<svg width="829" height="200" viewBox="0 0 829 200" fill="none" xmlns="http://www.w3.org/2000/svg">
<g clip-path="url(#clip0_95_251)">
<path d="M692.5 159.727H672.505L690.739 114.172C693.579 107.356 694.942 101.051 694.942 95.257C694.942 85.6007 691.364 77.7052 684.263 71.5137C677.162 65.2655 668.017 62.1982 656.883 62.1982C649.044 62.1982 638.99 65.4927 626.777 72.0818L642.739 34.99C645.75 27.7194 647.283 22.2096 647.283 18.5174C647.283 13.9733 645.579 10.1107 642.114 6.92982C638.706 3.7489 634.616 2.15845 629.901 2.15845C618.427 2.15845 609.395 10.1107 602.806 26.1289L544.241 168.361L542.366 173.076C540.605 177.45 539.753 181.312 539.753 184.55C539.753 188.81 541.401 192.502 544.752 195.513C548.103 198.523 552.193 200 556.908 200C568.951 200 578.039 192.445 584.174 177.222L603.601 129.452C611.781 109.287 621.665 99.2331 633.537 99.2331C642.342 99.2331 646.772 102.528 646.772 109.117C646.772 111.673 645.75 115.422 643.818 120.42L627.856 159.727C625.187 166.203 623.88 171.485 623.88 175.689C623.88 181.823 626.38 186.992 631.435 191.196C636.491 195.456 642.739 197.557 650.124 197.557H685.058C694.317 197.557 701.531 195.569 706.701 191.593C711.87 187.674 714.426 182.164 714.426 175.121C714.369 164.84 707.098 159.727 692.5 159.727Z" fill="white"/>
<path d="M822.354 6.24822C817.98 2.10168 812.64 0 806.222 0C794.065 0 785.886 7.38427 781.739 22.2664L759.869 108.037C758.62 112.695 757.938 116.444 757.938 119.341C757.938 123.942 759.529 127.861 762.766 131.042C765.947 134.28 769.81 135.814 774.298 135.814C783.329 135.814 791.112 127.009 797.587 109.401L824.626 39.4206C827.58 31.5251 829 25.5609 829 21.528C829 15.507 826.785 10.3948 822.354 6.24822Z" fill="white"/>
<path d="M779.808 161.943C779.524 161.602 779.296 161.318 779.012 160.977C772.821 154.388 764.357 150.866 756.802 145.811C754.927 144.561 753.11 143.141 751.462 141.551C749.36 139.506 746.975 137.575 746.861 134.28C746.861 133.201 746.691 132.178 746.577 131.042C745.895 131.383 745.839 131.951 745.611 132.349C741.976 139.847 738.568 147.458 736.125 155.354C734.194 161.659 733.001 168.077 733.739 174.553C734.705 182.278 737.148 189.492 743.453 194.604C750.61 200.511 761.233 201.59 770.151 197.501C772.707 196.308 775.661 194.604 777.649 192.616C784.409 185.686 787.192 175.632 783.216 167.282C782.307 165.464 781.114 163.59 779.808 161.943Z" fill="white"/>
<path d="M524.586 124.169C517.656 119.625 506.523 116.047 491.583 113.661C488.629 113.206 485.96 112.752 483.403 112.298L481.302 111.957C469.316 109.969 461.818 108.662 460.057 108.265C456.876 107.413 451.593 105.538 452.275 103.096C453.809 97.3587 462.784 94.3482 478.802 94.3482H480.847C490.163 94.5186 499.365 96.4499 508.284 100.142C516.52 103.834 520.497 105.368 522.712 106.049C523.791 106.333 524.416 106.447 524.814 106.447H525.268C535.607 106.447 542.082 101.619 544.695 92.1329C547.649 81.0565 541.287 72.7634 525.609 67.424C519.02 65.3791 511.465 64.0159 503.171 63.2207C499.025 62.7662 494.707 62.4822 490.163 62.4254C480.393 62.1982 471.134 63.1639 462.272 65.0951C457.274 66.1744 452.388 67.424 447.73 69.1281C430.121 75.7171 419.272 86.1687 415.409 100.199C411.66 114.058 415.92 124.34 428.133 130.701C444.549 139.335 464.09 138.256 481.586 142.516C486.868 143.823 493.515 147.344 487.493 152.911C482.892 157.228 476.189 157.455 470.225 157.455H453.638H452.786H450.059H387.632C388.313 156.149 389.052 154.899 389.677 153.536C395.3 141.267 398.197 128.997 398.197 116.615C398.197 100.142 392.744 86.6231 381.951 75.9443C371.102 65.2655 357.298 59.9261 340.484 59.9261C318.785 59.9261 300.04 67.992 284.191 84.067C268.343 100.142 260.39 119.227 260.39 141.21C260.39 147.004 261.072 152.4 262.265 157.398H251.926H229.602L248.177 111.559C250.734 105.254 252.04 99.1764 252.04 93.2689C252.04 83.8966 248.291 76.0011 240.793 69.5825C233.352 63.1639 224.036 59.9261 212.959 59.9261C196.713 59.9261 182.114 66.6856 169.22 80.2613C161.437 66.6856 149.793 59.9261 134.285 59.9261H134.228C127.071 59.9261 120.993 61.0622 116.108 63.2207C111.166 65.4359 104.747 69.9233 96.9079 76.6259C94.4653 67.14 88.2169 62.4254 78.1625 62.4254C78.1625 62.4254 78.1625 62.4254 78.1057 62.4254C68.3922 62.4254 61.1213 68.3897 56.2361 80.3181L30.1062 144.277C29.8222 144.618 29.6518 145.016 29.3678 145.3C21.8696 154.899 -0.908859 158.932 8.08761e-06 173.871C0.284029 178.586 4.14671 186.084 7.78218 189.094C15.7348 195.569 28.6293 199.659 39.4221 197.16C39.7629 197.103 40.0469 197.103 40.331 197.046C40.899 196.933 41.467 196.705 41.9783 196.535C43.228 196.137 44.4209 195.626 45.6138 195.001C46.125 194.717 46.6362 194.49 47.1475 194.149C47.3747 193.979 47.5451 193.922 47.7723 193.809C48.0563 193.581 48.2267 193.354 48.5108 193.127C49.8173 192.161 51.1238 191.082 52.2598 189.889C52.3734 189.832 52.4303 189.776 52.5439 189.662C53.7936 188.356 54.8728 186.992 55.9521 185.515C56.0657 185.288 56.2361 185.118 56.3497 184.947C57.0314 183.982 57.5994 182.959 58.1675 181.994C59.3604 179.892 60.4396 177.734 61.5189 175.291C61.6325 174.95 61.8597 174.666 61.9734 174.382L82.3092 124.51C89.5802 106.447 99.5209 97.4155 112.018 97.4155C115.199 97.4155 117.869 98.3811 120.198 100.256C122.527 102.187 123.663 104.402 123.663 106.901C123.663 109.344 122.754 112.695 121.05 117.012L101.452 165.464L99.5209 170.179C97.8168 174.723 96.9079 178.642 96.9079 181.994C96.9079 186.254 98.612 190.003 101.963 193.127C105.372 196.251 109.405 197.785 114.12 197.785C114.176 197.785 114.176 197.785 114.176 197.785C126.389 197.785 135.592 190.003 142.01 174.496L161.494 126.498C165.016 117.694 169.617 110.594 175.411 105.254C181.205 99.9148 187.056 97.3019 192.964 97.3019C200.576 97.3019 204.438 101.051 204.438 108.549C204.438 110.537 203.984 112.638 203.018 115.024L192.169 141.551L186.715 154.842C183.591 162.567 182.001 168.759 182.001 173.246C182.001 179.892 184.386 185.175 189.158 189.208C193.873 193.297 200.121 195.342 207.733 195.342H214.152H251.983H313.445H442.788H453.695H479.143C495.389 195.342 508.909 190.4 519.815 180.631C527.654 173.587 532.653 165.237 534.811 155.694C535.038 154.956 535.322 154.274 535.55 153.536C537.14 147.685 537.14 142.516 535.777 137.915C533.959 132.519 530.324 127.861 524.586 124.169ZM302.255 137.631C302.255 127.407 305.777 118.148 312.877 109.685C319.921 101.221 327.76 96.9611 336.337 96.9611C342.472 96.9611 347.471 99.006 351.277 103.039C355.083 107.072 357.014 112.411 357.014 119.057C357.014 130.531 353.095 140.699 345.199 149.617C341.279 154.104 335.883 156.66 329.123 157.455H320.66H319.41C307.992 155.922 302.255 149.333 302.255 137.631Z" fill="white"/>
</g>
<defs>
<clipPath id="clip0_95_251">
<rect width="829" height="200" fill="white"/>
</clipPath>
</defs>
</svg>
