<svg width="296" height="99" viewBox="0 0 296 99" fill="none" xmlns="http://www.w3.org/2000/svg">
<path d="M283.815 22.4871C278.108 22.4933 273.494 17.8854 273.507 12.1727C273.507 12.1161 273.507 12.0597 273.507 11.9969C273.507 5.36752 272.829 0 271.994 0C271.159 0 270.481 5.3738 270.481 11.9969C270.481 12.0534 270.481 12.1099 270.481 12.1664C270.493 17.8792 265.879 22.4871 260.166 22.4808C260.11 22.4808 260.053 22.4808 259.997 22.4808C253.368 22.4808 248 23.1588 248 23.9937C248 24.8287 253.374 25.5067 259.997 25.513C260.053 25.513 260.11 25.513 260.173 25.513C265.879 25.5067 270.493 30.1146 270.481 35.8274C270.481 35.8839 270.481 35.9404 270.481 36.0031C270.481 42.6325 271.159 48 271.994 48C272.829 48 273.507 42.6262 273.507 36.0031C273.507 35.9466 273.507 35.8902 273.507 35.8337C273.494 30.1209 278.108 25.5129 283.821 25.5192C283.878 25.5192 283.934 25.5192 283.991 25.5192C290.62 25.5192 295.987 24.8412 295.987 24.0063C295.987 23.1713 290.614 22.4933 283.991 22.4871C283.934 22.4871 283.878 22.4871 283.815 22.4871Z" fill="#7096D1"/>
<path d="M18.8195 68.16L22.1795 67.32V31.48L18.8195 30.64V29.8H48.7795V39.88H47.0995C46.3902 39.32 45.7742 38.6107 45.2515 37.752C44.0569 35.736 43.4595 33.552 43.4595 31.2H31.4195V48.84H37.8595C38.1209 47.4213 38.6062 46.096 39.3155 44.864C39.6142 44.304 39.9689 43.7627 40.3795 43.24H42.0595V55.84H40.3795C39.9689 55.3173 39.6142 54.776 39.3155 54.216C38.6062 52.984 38.1209 51.6587 37.8595 50.24H31.4195V67.32L34.7795 68.16V69H18.8195V68.16ZM63.637 69.84C61.5464 69.84 59.661 69.4107 57.981 68.552C56.3384 67.656 55.0504 66.4987 54.117 65.08C53.1837 63.6613 52.717 62.168 52.717 60.6V42.68L49.357 41.84V41H56.637C59.997 41 61.677 42.68 61.677 46.04V60.6C61.677 62.952 62.0877 64.7627 62.909 66.032C63.7677 67.264 64.757 67.88 65.877 67.88C67.2584 67.88 68.509 67.1333 69.629 65.64C70.0397 65.08 70.469 64.3333 70.917 63.4V42.68L67.557 41.84V41H83.237V41.84L79.877 42.68V69.28H79.317C76.5917 69.28 74.5197 68.5333 73.101 67.04C72.4664 66.368 72.0184 65.6213 71.757 64.8C71.2344 65.7333 70.6184 66.5733 69.909 67.32C68.229 69 66.1384 69.84 63.637 69.84ZM86.6189 68.16L89.9789 67.32V42.68L86.6189 41.84V41H91.6589C93.8616 41 95.5976 41.7093 96.8669 43.128C97.3522 43.688 97.7629 44.3787 98.0989 45.2C98.6216 44.2293 99.2376 43.3893 99.9469 42.68C101.627 41 103.718 40.16 106.219 40.16C108.31 40.16 110.176 40.608 111.819 41.504C113.499 42.3627 114.806 43.5013 115.739 44.92C116.672 46.3387 117.139 47.832 117.139 49.4V67.32L120.499 68.16V69H113.219C109.859 69 108.179 67.32 108.179 63.96V49.4C108.179 47.048 107.75 45.256 106.891 44.024C106.07 42.7547 105.099 42.12 103.979 42.12C102.56 42.12 101.291 42.8667 100.171 44.36C99.6856 44.9947 99.2749 45.7413 98.9389 46.6V67.32L102.299 68.16V69H86.6189V68.16ZM138.981 69.84C134.202 69.84 130.488 68.5333 127.837 65.92C125.186 63.2693 123.861 59.6293 123.861 55C123.861 50.3707 125.186 46.7493 127.837 44.136C130.488 41.4853 134.202 40.16 138.981 40.16C142.416 40.16 144.992 40.7573 146.709 41.952C148.464 43.1467 149.341 44.6027 149.341 46.32C149.341 47.5893 148.949 48.616 148.165 49.4C147.418 50.1467 146.41 50.52 145.141 50.52C144.618 50.52 144.096 50.4827 143.573 50.408L142.901 50.24V41.84L142.117 41.56C141.557 41.3733 140.885 41.28 140.101 41.28C137.973 41.28 136.312 42.288 135.117 44.304C133.96 46.32 133.381 49.8853 133.381 55C133.381 59.9653 133.96 63.456 135.117 65.472C136.312 67.4507 137.973 68.44 140.101 68.44C141.557 68.44 142.901 68.104 144.133 67.432C145.402 66.7227 146.392 65.808 147.101 64.688C147.848 63.5307 148.221 62.3547 148.221 61.16H149.621C149.621 62.6533 149.173 64.072 148.277 65.416C147.381 66.76 146.13 67.8427 144.525 68.664C142.92 69.448 141.072 69.84 138.981 69.84ZM168.116 69.84C165.652 69.84 163.506 69.392 161.676 68.496C159.884 67.6 158.503 66.368 157.532 64.8C156.562 63.232 156.076 61.4587 156.076 59.48V42.4H152.156V41H156.076V38.2C156.076 34.84 157.756 33.16 161.116 33.16H165.036V41H172.876V42.4H165.036V59.48C165.036 62.9147 165.391 65.2667 166.1 66.536C166.81 67.8053 167.855 68.44 169.236 68.44C170.58 68.44 171.756 67.7867 172.764 66.48C173.772 65.1733 174.276 63.4 174.276 61.16H175.676C175.676 63.9227 174.986 66.0693 173.604 67.6C172.223 69.0933 170.394 69.84 168.116 69.84ZM178.767 68.16L182.127 67.32V42.68L178.767 41.84V41H186.047C189.407 41 191.087 42.68 191.087 46.04V67.32L194.447 68.16V69H178.767V68.16ZM186.047 37.64C184.927 37.64 183.994 37.2667 183.247 36.52C182.501 35.7733 182.127 34.84 182.127 33.72C182.127 32.6 182.501 31.6667 183.247 30.92C183.994 30.1733 184.927 29.8 186.047 29.8C187.167 29.8 188.101 30.1733 188.847 30.92C189.594 31.6667 189.967 32.6 189.967 33.72C189.967 34.84 189.594 35.7733 188.847 36.52C188.101 37.2667 187.167 37.64 186.047 37.64ZM212.639 69.84C208.009 69.84 204.369 68.5333 201.719 65.92C199.105 63.2693 197.799 59.6293 197.799 55C197.799 50.3707 199.105 46.7493 201.719 44.136C204.369 41.4853 208.009 40.16 212.639 40.16C217.268 40.16 220.889 41.4853 223.503 44.136C226.153 46.7493 227.479 50.3707 227.479 55C227.479 59.6293 226.153 63.2693 223.503 65.92C220.889 68.5333 217.268 69.84 212.639 69.84ZM212.639 68.72C214.132 68.72 215.383 67.6747 216.391 65.584C217.436 63.4933 217.959 59.9653 217.959 55C217.959 50.0347 217.436 46.5067 216.391 44.416C215.383 42.3253 214.132 41.28 212.639 41.28C211.145 41.28 209.876 42.3253 208.831 44.416C207.823 46.5067 207.319 50.0347 207.319 55C207.319 59.9653 207.823 63.4933 208.831 65.584C209.876 67.6747 211.145 68.72 212.639 68.72ZM231.978 68.16L235.338 67.32V42.68L231.978 41.84V41H237.018C239.221 41 240.957 41.7093 242.226 43.128C242.712 43.688 243.122 44.3787 243.458 45.2C243.981 44.2293 244.597 43.3893 245.306 42.68C246.986 41 249.077 40.16 251.578 40.16C253.669 40.16 255.536 40.608 257.178 41.504C258.858 42.3627 260.165 43.5013 261.098 44.92C262.032 46.3387 262.498 47.832 262.498 49.4V67.32L265.858 68.16V69H258.578C255.218 69 253.538 67.32 253.538 63.96V49.4C253.538 47.048 253.109 45.256 252.25 44.024C251.429 42.7547 250.458 42.12 249.338 42.12C247.92 42.12 246.65 42.8667 245.53 44.36C245.045 44.9947 244.634 45.7413 244.298 46.6V67.32L247.658 68.16V69H231.978V68.16Z" fill="#746661"/>
<path d="M14.3582 91.6581C14.2966 91.6406 14.2367 91.6248 14.1768 91.6121C14.2336 91.6121 14.2919 91.6074 14.3503 91.6027C15.3171 91.514 16.0537 90.93 15.9969 90.2968C15.9401 89.6637 15.1089 89.2221 14.1437 89.3107C14.0806 89.3171 14.0191 89.325 13.9575 89.3345C14.0112 89.3123 14.0632 89.2886 14.1168 89.2617C14.9859 88.828 15.4622 88.016 15.1815 87.4462C14.8992 86.8763 13.967 86.7671 13.0979 87.1992C13.0412 87.2277 12.986 87.2578 12.9323 87.2895C12.9733 87.2499 13.0143 87.2071 13.0538 87.1644C13.7083 86.4458 13.8598 85.5151 13.3913 85.0862C12.9244 84.6572 12.0144 84.8931 11.3598 85.6117C11.3172 85.6591 11.2762 85.7066 11.2384 85.7557C11.262 85.7035 11.2857 85.6496 11.3062 85.5942C11.6563 84.6857 11.4623 83.7645 10.8724 83.5334C10.2825 83.3039 9.51916 83.8531 9.16743 84.7617C9.14377 84.8202 9.12485 84.8804 9.10592 84.939C9.10907 84.882 9.11223 84.8234 9.11223 84.7633C9.11223 83.7898 8.59962 83 7.96557 83C7.33151 83 6.81891 83.7898 6.81891 84.7633C6.81891 84.7759 6.81891 84.7886 6.81891 84.7997C6.81575 84.7918 6.81418 84.7838 6.81102 84.7775C6.46718 83.8674 5.70695 83.3118 5.11548 83.5382C4.52401 83.7645 4.3237 84.6841 4.66754 85.5958C4.68962 85.656 4.71486 85.713 4.74009 85.7699C4.70381 85.724 4.66754 85.6797 4.62811 85.6354C3.97828 84.9121 3.07136 84.6699 2.59976 85.0957C2.12974 85.5214 2.27327 86.4521 2.9231 87.1755C2.96569 87.223 3.00827 87.2673 3.05401 87.3116C3.00512 87.2831 2.95307 87.2546 2.90102 87.2277C2.03511 86.7893 1.10138 86.8922 0.815894 87.4604C0.530412 88.0271 1.00043 88.8438 1.86792 89.2822C1.9247 89.3107 1.98148 89.3376 2.03826 89.3614C1.98148 89.3519 1.92312 89.344 1.86477 89.3392C0.899489 89.2442 0.065123 89.6795 0.00361025 90.3126C-0.0579025 90.9458 0.673942 91.5346 1.6408 91.6296C1.70389 91.6359 1.76698 91.6391 1.82849 91.6406C1.77171 91.6533 1.7165 91.666 1.65972 91.6818C0.724413 91.943 0.106132 92.6521 0.274897 93.2646C0.44524 93.8772 1.34112 94.1605 2.27643 93.8993C2.33794 93.8819 2.3963 93.8629 2.45466 93.8423C2.40576 93.874 2.35845 93.9072 2.31113 93.9421C1.53354 94.5261 1.21178 95.4109 1.59032 95.919C1.97044 96.4287 2.90733 96.367 3.68491 95.7845C3.73538 95.7465 3.78428 95.7069 3.8316 95.6658C3.79847 95.7132 3.76535 95.7607 3.73381 95.8114C3.21962 96.6376 3.23855 97.5794 3.77482 97.9165C4.31108 98.2537 5.16437 97.8564 5.67856 97.0302C5.71168 96.9763 5.74322 96.9225 5.77161 96.8671C5.75742 96.9225 5.7448 96.9795 5.73376 97.0381C5.55238 97.9941 5.90883 98.8662 6.53027 98.9865C7.15171 99.1052 7.80469 98.4262 7.98607 97.4702C7.99869 97.4085 8.00815 97.3451 8.01446 97.2834C8.02077 97.3404 8.03023 97.399 8.0397 97.4559C8.21477 98.4135 8.86145 99.0973 9.48446 98.9834C10.1075 98.8694 10.4702 97.9988 10.2952 97.0412C10.2841 96.9779 10.2699 96.9178 10.2542 96.8576C10.281 96.9083 10.3094 96.9589 10.3409 97.0096C10.8488 97.839 11.6989 98.241 12.2383 97.9086C12.7778 97.5762 12.803 96.6329 12.2935 95.8035C12.2604 95.7497 12.2257 95.6974 12.1894 95.6468C12.2336 95.6848 12.2778 95.7212 12.3251 95.7576C13.0979 96.3464 14.0348 96.4129 14.4181 95.9064C14.8014 95.3998 14.4843 94.5119 13.7115 93.9231C13.661 93.8851 13.6105 93.8487 13.5585 93.8139C13.6121 93.8329 13.6673 93.8518 13.7241 93.8677C14.6563 94.1368 15.5553 93.8582 15.7288 93.2472C15.9039 92.6362 15.2887 91.924 14.355 91.6549L14.3582 91.6581Z" fill="#344EAD"/>
</svg>
