<svg width="195" height="64" viewBox="0 0 195 64" fill="none" xmlns="http://www.w3.org/2000/svg">
<path d="M24.7151 41.42C23.3897 41.42 22.1484 41.1213 20.9911 40.524C20.4684 40.2627 20.0297 39.9547 19.6751 39.6C19.4137 40.0293 19.0871 40.412 18.6951 40.748C18.3591 40.9907 18.1724 41.1213 18.1351 41.14H17.4351V35.82H18.5551C18.8351 36.7347 19.2271 37.556 19.7311 38.284C20.8697 39.908 22.3444 40.72 24.1551 40.72C25.2191 40.72 26.0684 40.4027 26.7031 39.768C27.3377 39.1333 27.6551 38.284 27.6551 37.22C27.6551 36.604 27.4684 36.0533 27.0951 35.568C26.7404 35.0827 26.2924 34.6533 25.7511 34.28C25.2097 33.9067 24.4537 33.44 23.4831 32.88C22.2511 32.1893 21.2524 31.564 20.4871 31.004C19.7217 30.444 19.0684 29.744 18.5271 28.904C17.9857 28.0453 17.7151 27.0373 17.7151 25.88C17.7151 24.9653 17.9671 24.144 18.4711 23.416C18.9937 22.6693 19.7684 22.0813 20.7951 21.652C21.8217 21.204 23.0817 20.98 24.5751 20.98C25.6577 20.98 26.7404 21.288 27.8231 21.904C28.2337 22.128 28.6444 22.4267 29.0551 22.8C29.3724 22.3147 29.6991 21.932 30.0351 21.652C30.3711 21.4093 30.5577 21.2787 30.5951 21.26H31.2951V26.58H30.1751C29.9324 25.684 29.5684 24.872 29.0831 24.144C28.6351 23.4347 28.0751 22.8467 27.4031 22.38C26.7497 21.9133 25.9937 21.68 25.1351 21.68C24.4071 21.68 23.7817 21.9693 23.2591 22.548C22.7364 23.1267 22.4751 23.864 22.4751 24.76C22.4751 25.4507 22.6711 26.076 23.0631 26.636C23.4737 27.1773 23.9684 27.6533 24.5471 28.064C25.1444 28.4747 25.9471 28.9693 26.9551 29.548C28.1311 30.22 29.0831 30.8173 29.8111 31.34C30.5391 31.8627 31.1551 32.516 31.6591 33.3C32.1631 34.0653 32.4151 34.952 32.4151 35.96C32.4151 36.968 32.1257 37.892 31.5471 38.732C30.9684 39.5533 30.1004 40.2067 28.9431 40.692C27.7857 41.1773 26.3764 41.42 24.7151 41.42ZM34.2274 40.58L35.9074 40.16V22.24L34.2274 21.82V21.4H37.8674C39.5474 21.4 40.3874 22.24 40.3874 23.92V28.4C40.6674 28.0267 40.9568 27.728 41.2554 27.504C42.0581 26.888 42.9821 26.58 44.0274 26.58C45.0728 26.58 46.0061 26.804 46.8274 27.252C47.6674 27.6813 48.3208 28.2507 48.7874 28.96C49.2541 29.6693 49.4874 30.416 49.4874 31.2V40.16L51.1674 40.58V41H47.5274C45.8474 41 45.0074 40.16 45.0074 38.48V31.2C45.0074 30.024 44.7928 29.128 44.3634 28.512C43.9528 27.8773 43.4674 27.56 42.9074 27.56C42.1981 27.56 41.5634 27.9333 41.0034 28.68C40.7608 28.9973 40.5554 29.3707 40.3874 29.8V40.16L42.0674 40.58V41H34.2274V40.58ZM60.2685 41.42C57.9538 41.42 56.1338 40.7667 54.8085 39.46C53.5018 38.1347 52.8485 36.3147 52.8485 34C52.8485 31.6853 53.5018 29.8747 54.8085 28.568C56.1338 27.2427 57.9538 26.58 60.2685 26.58C62.5832 26.58 64.3938 27.2427 65.7005 28.568C67.0259 29.8747 67.6885 31.6853 67.6885 34C67.6885 36.3147 67.0259 38.1347 65.7005 39.46C64.3938 40.7667 62.5832 41.42 60.2685 41.42ZM60.2685 40.86C61.0152 40.86 61.6405 40.3373 62.1445 39.292C62.6672 38.2467 62.9285 36.4827 62.9285 34C62.9285 31.5173 62.6672 29.7533 62.1445 28.708C61.6405 27.6627 61.0152 27.14 60.2685 27.14C59.5218 27.14 58.8872 27.6627 58.3645 28.708C57.8605 29.7533 57.6085 31.5173 57.6085 34C57.6085 36.4827 57.8605 38.2467 58.3645 39.292C58.8872 40.3373 59.5218 40.86 60.2685 40.86ZM69.6584 27.84L68.2584 27.42V27H71.4784C72.4677 27 73.2517 27.2053 73.8304 27.616C74.409 28.0267 74.885 28.6147 75.2584 29.38L78.3384 35.82L79.9344 31.732L78.0584 27.84L76.6584 27.42V27H79.8784C80.8677 27 81.6517 27.2053 82.2304 27.616C82.809 28.0267 83.285 28.6147 83.6584 29.38L86.7384 35.82L89.6784 28.26L87.5784 27.42V27H92.7584V27.42L90.5184 28.26L85.3384 41.28H84.4984L80.3544 32.656L76.9384 41.28H76.0984L69.6584 27.84ZM101.165 40.58L102.845 40.16V27.84L101.165 27.42V27H103.685C104.786 27 105.654 27.3547 106.289 28.064C106.532 28.344 106.737 28.6893 106.905 29.1C107.185 28.5773 107.484 28.1573 107.801 27.84C108.641 27 109.602 26.58 110.685 26.58C111.768 26.58 112.72 26.8227 113.541 27.308C114.362 27.7747 114.997 28.4187 115.445 29.24C115.725 28.6987 116.024 28.26 116.341 27.924C117.2 27.028 118.161 26.58 119.225 26.58C120.214 26.58 121.101 26.7853 121.885 27.196C122.688 27.6067 123.304 28.1667 123.733 28.876C124.181 29.5853 124.405 30.36 124.405 31.2V40.16L126.085 40.58V41H122.445C120.765 41 119.925 40.16 119.925 38.48V31.2C119.925 29.9867 119.738 29.0813 119.365 28.484C118.992 27.868 118.572 27.56 118.105 27.56C117.564 27.56 117.013 27.9333 116.453 28.68C116.229 29.0347 116.033 29.408 115.865 29.8V40.16L117.545 40.58V41H109.705V40.58L111.385 40.16V31.2C111.385 29.9867 111.198 29.0813 110.825 28.484C110.452 27.868 110.032 27.56 109.565 27.56C109.024 27.56 108.473 27.9333 107.913 28.68C107.689 29.0347 107.493 29.408 107.325 29.8V40.16L109.005 40.58V41H101.165V40.58ZM135.19 41.42C132.876 41.42 131.056 40.7667 129.73 39.46C128.424 38.1347 127.77 36.3147 127.77 34C127.77 31.6853 128.424 29.8747 129.73 28.568C131.056 27.2427 132.876 26.58 135.19 26.58C137.505 26.58 139.316 27.2427 140.622 28.568C141.948 29.8747 142.61 31.6853 142.61 34C142.61 36.3147 141.948 38.1347 140.622 39.46C139.316 40.7667 137.505 41.42 135.19 41.42ZM135.19 40.86C135.937 40.86 136.562 40.3373 137.066 39.292C137.589 38.2467 137.85 36.4827 137.85 34C137.85 31.5173 137.589 29.7533 137.066 28.708C136.562 27.6627 135.937 27.14 135.19 27.14C134.444 27.14 133.809 27.6627 133.286 28.708C132.782 29.7533 132.53 31.5173 132.53 34C132.53 36.4827 132.782 38.2467 133.286 39.292C133.809 40.3373 134.444 40.86 135.19 40.86ZM144.86 40.58L146.54 40.16V27.84L144.86 27.42V27H147.38C148.482 27 149.35 27.3547 149.984 28.064C150.227 28.344 150.432 28.6893 150.6 29.1C150.88 28.6893 151.226 28.316 151.636 27.98C152.57 27.2333 153.615 26.86 154.772 26.86C155.762 26.86 156.499 27.0933 156.984 27.56C157.488 28.008 157.74 28.6613 157.74 29.52C157.74 30.1547 157.544 30.668 157.152 31.06C156.779 31.4333 156.275 31.62 155.64 31.62C155.379 31.62 155.118 31.6013 154.856 31.564L154.52 31.48V27.56C153.568 27.56 152.7 27.9333 151.916 28.68C151.543 29.0533 151.244 29.4267 151.02 29.8V40.16L152.7 40.58V41H144.86V40.58ZM166.557 41.42C164.168 41.42 162.31 40.7667 160.985 39.46C159.66 38.1347 158.997 36.3147 158.997 34C158.997 32.488 159.286 31.172 159.865 30.052C160.444 28.932 161.246 28.0733 162.273 27.476C163.318 26.8787 164.513 26.58 165.857 26.58C167.201 26.58 168.377 26.832 169.385 27.336C170.412 27.84 171.196 28.5213 171.737 29.38C172.297 30.22 172.577 31.1533 172.577 32.18C172.577 32.6467 172.53 33.048 172.437 33.384L172.297 33.86C171.494 34.028 170.626 34.168 169.693 34.28C167.733 34.56 165.754 34.7 163.757 34.7C163.757 36.8653 164.056 38.4147 164.653 39.348C165.25 40.2627 166.072 40.72 167.117 40.72C167.845 40.72 168.517 40.552 169.133 40.216C169.768 39.8613 170.262 39.404 170.617 38.844C170.99 38.2653 171.177 37.6773 171.177 37.08H171.877C171.877 37.8267 171.653 38.536 171.205 39.208C170.757 39.88 170.132 40.4213 169.329 40.832C168.526 41.224 167.602 41.42 166.557 41.42ZM163.757 34C164.952 34 165.922 33.9533 166.669 33.86C166.986 33.8413 167.322 33.7947 167.677 33.72C167.696 33.6267 167.742 33.4213 167.817 33.104C167.91 32.6373 167.957 32.1427 167.957 31.62C167.957 30.0707 167.752 28.9413 167.341 28.232C166.93 27.504 166.436 27.14 165.857 27.14C164.457 27.14 163.757 29.4267 163.757 34Z" fill="#746661"/>
<path d="M186.883 46.9914C183.077 46.9956 180.001 43.9236 180.009 40.1151C180.009 40.0774 180.009 40.0398 180.009 39.9979C180.009 35.5783 179.557 32 179 32C178.443 32 177.991 35.5825 177.991 39.9979C177.991 40.0356 177.991 40.0732 177.991 40.1109C177.999 43.9194 174.923 46.9914 171.113 46.9872C171.075 46.9872 171.038 46.9872 171 46.9872C166.579 46.9872 163 47.4392 163 47.9958C163 48.5524 166.583 49.0045 171 49.0086C171.038 49.0086 171.075 49.0086 171.117 49.0086C174.923 49.0045 177.999 52.0764 177.991 55.8849C177.991 55.9226 177.991 55.9602 177.991 56.0021C177.991 60.4217 178.443 64 179 64C179.557 64 180.009 60.4175 180.009 56.0021C180.009 55.9644 180.009 55.9268 180.009 55.8891C180.001 52.0806 183.077 49.0086 186.887 49.0128C186.925 49.0128 186.962 49.0128 187 49.0128C191.421 49.0128 195 48.5608 195 48.0042C195 47.4476 191.417 46.9956 187 46.9914C186.962 46.9914 186.925 46.9914 186.883 46.9914Z" fill="#7096D1"/>
<path d="M14.3582 8.65805C14.2966 8.64064 14.2367 8.62481 14.1768 8.61215C14.2336 8.61215 14.2919 8.6074 14.3503 8.60265C15.3171 8.51401 16.0537 7.92995 15.9969 7.29682C15.9401 6.66369 15.1089 6.22208 14.1437 6.31072C14.0806 6.31705 14.0191 6.32497 13.9575 6.33446C14.0112 6.3123 14.0632 6.28856 14.1168 6.26165C14.9859 5.82796 15.4622 5.01597 15.1815 4.44615C14.8992 3.87634 13.967 3.76712 13.0979 4.19923C13.0412 4.22772 12.986 4.2578 12.9323 4.28945C12.9733 4.24988 13.0143 4.20715 13.0538 4.16441C13.7083 3.44581 13.8598 2.51511 13.3913 2.08616C12.9244 1.65722 12.0144 1.89306 11.3598 2.61166C11.3172 2.65915 11.2762 2.70663 11.2384 2.7557C11.262 2.70346 11.2857 2.64965 11.3062 2.59425C11.6563 1.68571 11.4623 0.764504 10.8724 0.533412C10.2825 0.303902 9.51916 0.853142 9.16743 1.76168C9.14377 1.82025 9.12485 1.8804 9.10592 1.93896C9.10907 1.88198 9.11223 1.82341 9.11223 1.76327C9.11223 0.789829 8.59962 0 7.96557 0C7.33151 0 6.81891 0.789829 6.81891 1.76327C6.81891 1.77593 6.81891 1.78859 6.81891 1.79967C6.81575 1.79176 6.81418 1.78384 6.81102 1.77751C6.46718 0.867388 5.70695 0.311816 5.11548 0.53816C4.52401 0.764504 4.3237 1.68413 4.66754 2.59583C4.68962 2.65598 4.71486 2.71296 4.74009 2.76994C4.70381 2.72404 4.66754 2.67972 4.62811 2.6354C3.97828 1.91205 3.07136 1.66988 2.59976 2.09566C2.12974 2.52144 2.27327 3.45214 2.9231 4.17549C2.96569 4.22298 3.00827 4.26729 3.05401 4.31161C3.00512 4.28312 2.95307 4.25463 2.90102 4.22772C2.03511 3.78928 1.10138 3.89217 0.815894 4.4604C0.530412 5.02705 1.00043 5.84379 1.86792 6.28223C1.9247 6.31072 1.98148 6.33763 2.03826 6.36137C1.98148 6.35187 1.92312 6.34396 1.86477 6.33921C0.899489 6.24424 0.065123 6.67952 0.00361025 7.31265C-0.0579025 7.94578 0.673942 8.53459 1.6408 8.62956C1.70389 8.63589 1.76698 8.63906 1.82849 8.64064C1.77171 8.6533 1.7165 8.66596 1.65972 8.68179C0.724413 8.94296 0.106132 9.65206 0.274897 10.2646C0.44524 10.8772 1.34112 11.1605 2.27643 10.8993C2.33794 10.8819 2.3963 10.8629 2.45466 10.8423C2.40576 10.874 2.35845 10.9072 2.31113 10.9421C1.53354 11.5261 1.21178 12.4109 1.59032 12.919C1.97044 13.4287 2.90733 13.367 3.68491 12.7845C3.73538 12.7465 3.78428 12.7069 3.8316 12.6658C3.79847 12.7132 3.76535 12.7607 3.73381 12.8114C3.21962 13.6376 3.23855 14.5794 3.77482 14.9165C4.31108 15.2537 5.16437 14.8564 5.67856 14.0302C5.71168 13.9763 5.74322 13.9225 5.77161 13.8671C5.75742 13.9225 5.7448 13.9795 5.73376 14.0381C5.55238 14.9941 5.90883 15.8662 6.53027 15.9865C7.15171 16.1052 7.80469 15.4262 7.98607 14.4702C7.99869 14.4085 8.00815 14.3451 8.01446 14.2834C8.02077 14.3404 8.03023 14.399 8.0397 14.4559C8.21477 15.4135 8.86145 16.0973 9.48446 15.9834C10.1075 15.8694 10.4702 14.9988 10.2952 14.0412C10.2841 13.9779 10.2699 13.9178 10.2542 13.8576C10.281 13.9083 10.3094 13.9589 10.3409 14.0096C10.8488 14.839 11.6989 15.241 12.2383 14.9086C12.7778 14.5762 12.803 13.6329 12.2935 12.8035C12.2604 12.7497 12.2257 12.6974 12.1894 12.6468C12.2336 12.6848 12.2778 12.7212 12.3251 12.7576C13.0979 13.3464 14.0348 13.4129 14.4181 12.9064C14.8014 12.3998 14.4843 11.5119 13.7115 10.9231C13.661 10.8851 13.6105 10.8487 13.5585 10.8139C13.6121 10.8329 13.6673 10.8518 13.7241 10.8677C14.6563 11.1368 15.5553 10.8582 15.7288 10.2472C15.9039 9.63624 15.2887 8.92397 14.355 8.65489L14.3582 8.65805Z" fill="#344EAD"/>
</svg>
