<svg width="239" height="105" viewBox="0 0 239 105" fill="none" xmlns="http://www.w3.org/2000/svg">
<path d="M35.8148 22.4871C30.1083 22.4933 25.4941 17.8854 25.5067 12.1727C25.5067 12.1161 25.5067 12.0597 25.5067 11.9969C25.5067 5.36752 24.8287 0 23.9937 0C23.1588 0 22.4808 5.3738 22.4808 11.9969C22.4808 12.0534 22.4808 12.1099 22.4808 12.1664C22.4933 17.8792 17.8792 22.4871 12.1664 22.4808C12.1099 22.4808 12.0534 22.4808 11.9969 22.4808C5.36751 22.4808 0 23.1588 0 23.9937C0 24.8287 5.37379 25.5067 11.9969 25.513C12.0534 25.513 12.1099 25.513 12.1726 25.513C17.8792 25.5067 22.4933 30.1146 22.4808 35.8274C22.4808 35.8839 22.4808 35.9404 22.4808 36.0031C22.4808 42.6325 23.1588 48 23.9937 48C24.8287 48 25.5067 42.6262 25.5067 36.0031C25.5067 35.9466 25.5067 35.8902 25.5067 35.8337C25.4941 30.1209 30.1083 25.5129 35.8211 25.5192C35.8776 25.5192 35.9341 25.5192 35.9906 25.5192C42.6199 25.5192 47.9875 24.8412 47.9875 24.0063C47.9875 23.1713 42.6137 22.4933 35.9906 22.4871C35.9341 22.4871 35.8776 22.4871 35.8148 22.4871Z" fill="#7096D1"/>
<path d="M34.9523 74.16L38.3123 73.32V37.48L34.9523 36.64V35.8H49.2323C55.915 35.8 61.0297 37.5173 64.5763 40.952C68.1603 44.3867 69.9523 49.2027 69.9523 55.4C69.9523 61.5973 68.1603 66.4133 64.5763 69.848C61.0297 73.2827 55.915 75 49.2323 75H34.9523V74.16ZM49.2323 73.6C52.7043 73.6 55.3923 72.2 57.2963 69.4C59.2003 66.5627 60.1523 61.896 60.1523 55.4C60.1523 48.904 59.2003 44.256 57.2963 41.456C55.3923 38.6187 52.7043 37.2 49.2323 37.2H47.5523V73.6H49.2323ZM89.5436 75.84C84.7649 75.84 81.0503 74.5333 78.3996 71.92C75.7489 69.2693 74.4236 65.6293 74.4236 61C74.4236 57.976 75.0023 55.344 76.1596 53.104C77.3169 50.864 78.9223 49.1467 80.9756 47.952C83.0663 46.7573 85.4556 46.16 88.1436 46.16C90.8316 46.16 93.1836 46.664 95.1996 47.672C97.2529 48.68 98.8209 50.0427 99.9036 51.76C101.024 53.44 101.584 55.3067 101.584 57.36C101.584 58.2933 101.49 59.096 101.304 59.768L101.024 60.72C99.4183 61.056 97.6823 61.336 95.8156 61.56C91.8956 62.12 87.9383 62.4 83.9436 62.4C83.9436 66.7307 84.5409 69.8293 85.7356 71.696C86.9303 73.5253 88.5729 74.44 90.6636 74.44C92.1196 74.44 93.4636 74.104 94.6956 73.432C95.9649 72.7227 96.9543 71.808 97.6636 70.688C98.4103 69.5307 98.7836 68.3547 98.7836 67.16H100.184C100.184 68.6533 99.7356 70.072 98.8396 71.416C97.9436 72.76 96.6929 73.8427 95.0876 74.664C93.4823 75.448 91.6343 75.84 89.5436 75.84ZM83.9436 61C86.3329 61 88.2743 60.9067 89.7676 60.72C90.4023 60.6827 91.0743 60.5893 91.7836 60.44C91.8209 60.2533 91.9143 59.8427 92.0636 59.208C92.2503 58.2747 92.3436 57.2853 92.3436 56.24C92.3436 53.1413 91.9329 50.8827 91.1116 49.464C90.2903 48.008 89.3009 47.28 88.1436 47.28C85.3436 47.28 83.9436 51.8533 83.9436 61ZM118.92 75.84C116.605 75.84 114.533 75.336 112.704 74.328C111.808 73.8427 111.08 73.32 110.52 72.76C109.922 73.5813 109.269 74.216 108.56 74.664C108.224 74.888 107.85 75.0933 107.44 75.28H106.04V65.76H108.28C108.765 67.328 109.474 68.784 110.408 70.128C112.386 73.0027 114.85 74.44 117.8 74.44C119.368 74.44 120.544 74.0667 121.328 73.32C122.149 72.536 122.56 71.416 122.56 69.96C122.56 68.728 122 67.7013 120.88 66.88C119.797 66.0213 118.08 64.976 115.728 63.744C113.712 62.736 112.069 61.84 110.8 61.056C109.568 60.2347 108.504 59.2267 107.608 58.032C106.749 56.8 106.32 55.3627 106.32 53.72C106.32 51.48 107.272 49.6693 109.176 48.288C111.117 46.8693 114.085 46.16 118.08 46.16C120.058 46.16 121.888 46.6827 123.568 47.728C124.389 48.2133 125.098 48.7173 125.696 49.24C126.181 48.568 126.834 47.9333 127.656 47.336C128.29 46.9627 128.664 46.7573 128.776 46.72H130.176V56.24H127.936C127.376 54.6347 126.685 53.1973 125.864 51.928C123.997 49.016 121.776 47.56 119.2 47.56C118.192 47.56 117.333 47.9333 116.624 48.68C115.914 49.4267 115.56 50.36 115.56 51.48C115.56 52.8987 116.157 54.0933 117.352 55.064C118.546 55.9973 120.357 57.08 122.784 58.312C124.762 59.32 126.33 60.216 127.488 61C128.682 61.7467 129.69 62.68 130.512 63.8C131.37 64.92 131.8 66.2267 131.8 67.72C131.8 73.1333 127.506 75.84 118.92 75.84ZM136.002 74.16L139.362 73.32V48.68L136.002 47.84V47H143.282C146.642 47 148.322 48.68 148.322 52.04V73.32L151.682 74.16V75H136.002V74.16ZM143.282 43.64C142.162 43.64 141.228 43.2667 140.482 42.52C139.735 41.7733 139.362 40.84 139.362 39.72C139.362 38.6 139.735 37.6667 140.482 36.92C141.228 36.1733 142.162 35.8 143.282 35.8C144.402 35.8 145.335 36.1733 146.082 36.92C146.828 37.6667 147.202 38.6 147.202 39.72C147.202 40.84 146.828 41.7733 146.082 42.52C145.335 43.2667 144.402 43.64 143.282 43.64ZM168.193 87.04C164.87 87.04 162.164 86.7413 160.073 86.144C157.982 85.5467 156.47 84.7813 155.537 83.848C154.641 82.9147 154.193 81.9253 154.193 80.88C154.193 79.6107 154.566 78.584 155.313 77.8C156.097 77.0533 157.124 76.68 158.393 76.68C158.692 76.68 159.233 76.736 160.017 76.848L160.633 76.96V84.8C161.081 84.9493 161.79 85.136 162.761 85.36C164.478 85.7333 166.102 85.92 167.633 85.92C172.188 85.92 175.51 85.2667 177.601 83.96C179.729 82.6907 180.793 81.104 180.793 79.2C180.793 76.7733 178.553 75.56 174.073 75.56H163.433C160.633 75.56 158.486 74.9813 156.993 73.824C155.5 72.6667 154.753 71.192 154.753 69.4C154.753 67.608 155.63 66.0213 157.385 64.64C158.094 64.1173 158.99 63.6507 160.073 63.24C158.692 62.3813 157.684 61.3733 157.049 60.216C156.452 59.0213 156.153 57.6027 156.153 55.96C156.153 53.1973 157.198 50.976 159.289 49.296C161.38 47.5787 164.441 46.72 168.473 46.72C170.228 46.72 171.833 46.9067 173.289 47.28C174.782 47.616 175.977 48.0827 176.873 48.68C177.172 48.0453 177.564 47.4853 178.049 47C179.169 45.88 180.55 45.32 182.193 45.32C183.462 45.32 184.526 45.768 185.385 46.664C186.244 47.5227 186.673 48.6613 186.673 50.08C186.673 51.1627 186.374 52.04 185.777 52.712C185.217 53.384 184.489 53.72 183.593 53.72C183.182 53.72 182.716 53.6827 182.193 53.608L181.633 53.44V46.72C180.662 46.72 179.748 47.1867 178.889 48.12C178.553 48.456 178.254 48.9227 177.993 49.52C179.86 51.1627 180.793 53.3093 180.793 55.96C180.793 58.7227 179.748 60.9627 177.657 62.68C175.566 64.36 172.505 65.2 168.473 65.2C165.785 65.2 163.358 64.7333 161.193 63.8L160.073 64.36C159.7 64.584 159.42 64.808 159.233 65.032C159.046 65.2187 158.953 65.4613 158.953 65.76C158.953 66.3947 159.27 66.88 159.905 67.216C160.577 67.552 161.753 67.72 163.433 67.72H174.073C176.873 67.72 179.057 68.5413 180.625 70.184C182.23 71.7893 183.033 74.048 183.033 76.96C183.033 79.9467 181.782 82.3733 179.281 84.24C176.817 86.1067 173.121 87.04 168.193 87.04ZM168.473 64.08C169.705 64.08 170.657 63.4827 171.329 62.288C172.038 61.0933 172.393 58.984 172.393 55.96C172.393 52.936 172.038 50.8267 171.329 49.632C170.657 48.4373 169.705 47.84 168.473 47.84C167.241 47.84 166.27 48.4373 165.561 49.632C164.889 50.8267 164.553 52.936 164.553 55.96C164.553 58.984 164.889 61.0933 165.561 62.288C166.27 63.4827 167.241 64.08 168.473 64.08ZM187.845 74.16L191.205 73.32V48.68L187.845 47.84V47H192.885C195.088 47 196.824 47.7093 198.093 49.128C198.579 49.688 198.989 50.3787 199.325 51.2C199.848 50.2293 200.464 49.3893 201.173 48.68C202.853 47 204.944 46.16 207.445 46.16C209.536 46.16 211.403 46.608 213.045 47.504C214.725 48.3627 216.032 49.5013 216.965 50.92C217.899 52.3387 218.365 53.832 218.365 55.4V73.32L221.725 74.16V75H214.445C211.085 75 209.405 73.32 209.405 69.96V55.4C209.405 53.048 208.976 51.256 208.117 50.024C207.296 48.7547 206.325 48.12 205.205 48.12C203.787 48.12 202.517 48.8667 201.397 50.36C200.912 50.9947 200.501 51.7413 200.165 52.6V73.32L203.525 74.16V75H187.845V74.16Z" fill="#746661"/>
<path d="M237.358 97.6581C237.297 97.6406 237.237 97.6248 237.177 97.6121C237.234 97.6121 237.292 97.6074 237.35 97.6027C238.317 97.514 239.054 96.93 238.997 96.2968C238.94 95.6637 238.109 95.2221 237.144 95.3107C237.081 95.3171 237.019 95.325 236.958 95.3345C237.011 95.3123 237.063 95.2886 237.117 95.2617C237.986 94.828 238.462 94.016 238.181 93.4462C237.899 92.8763 236.967 92.7671 236.098 93.1992C236.041 93.2277 235.986 93.2578 235.932 93.2895C235.973 93.2499 236.014 93.2071 236.054 93.1644C236.708 92.4458 236.86 91.5151 236.391 91.0862C235.924 90.6572 235.014 90.8931 234.36 91.6117C234.317 91.6591 234.276 91.7066 234.238 91.7557C234.262 91.7035 234.286 91.6496 234.306 91.5942C234.656 90.6857 234.462 89.7645 233.872 89.5334C233.283 89.3039 232.519 89.8531 232.167 90.7617C232.144 90.8202 232.125 90.8804 232.106 90.939C232.109 90.882 232.112 90.8234 232.112 90.7633C232.112 89.7898 231.6 89 230.966 89C230.332 89 229.819 89.7898 229.819 90.7633C229.819 90.7759 229.819 90.7886 229.819 90.7997C229.816 90.7918 229.814 90.7838 229.811 90.7775C229.467 89.8674 228.707 89.3118 228.115 89.5382C227.524 89.7645 227.324 90.6841 227.668 91.5958C227.69 91.656 227.715 91.713 227.74 91.7699C227.704 91.724 227.668 91.6797 227.628 91.6354C226.978 90.9121 226.071 90.6699 225.6 91.0957C225.13 91.5214 225.273 92.4521 225.923 93.1755C225.966 93.223 226.008 93.2673 226.054 93.3116C226.005 93.2831 225.953 93.2546 225.901 93.2277C225.035 92.7893 224.101 92.8922 223.816 93.4604C223.53 94.0271 224 94.8438 224.868 95.2822C224.925 95.3107 224.981 95.3376 225.038 95.3614C224.981 95.3519 224.923 95.344 224.865 95.3392C223.899 95.2442 223.065 95.6795 223.004 96.3126C222.942 96.9458 223.674 97.5346 224.641 97.6296C224.704 97.6359 224.767 97.6391 224.828 97.6406C224.772 97.6533 224.717 97.666 224.66 97.6818C223.724 97.943 223.106 98.6521 223.275 99.2646C223.445 99.8772 224.341 100.16 225.276 99.8993C225.338 99.8819 225.396 99.8629 225.455 99.8423C225.406 99.874 225.358 99.9072 225.311 99.9421C224.534 100.526 224.212 101.411 224.59 101.919C224.97 102.429 225.907 102.367 226.685 101.784C226.735 101.746 226.784 101.707 226.832 101.666C226.798 101.713 226.765 101.761 226.734 101.811C226.22 102.638 226.239 103.579 226.775 103.917C227.311 104.254 228.164 103.856 228.679 103.03C228.712 102.976 228.743 102.923 228.772 102.867C228.757 102.923 228.745 102.98 228.734 103.038C228.552 103.994 228.909 104.866 229.53 104.987C230.152 105.105 230.805 104.426 230.986 103.47C230.999 103.408 231.008 103.345 231.014 103.283C231.021 103.34 231.03 103.399 231.04 103.456C231.215 104.414 231.861 105.097 232.484 104.983C233.107 104.869 233.47 103.999 233.295 103.041C233.284 102.978 233.27 102.918 233.254 102.858C233.281 102.908 233.309 102.959 233.341 103.01C233.849 103.839 234.699 104.241 235.238 103.909C235.778 103.576 235.803 102.633 235.294 101.803C235.26 101.75 235.226 101.697 235.189 101.647C235.234 101.685 235.278 101.721 235.325 101.758C236.098 102.346 237.035 102.413 237.418 101.906C237.801 101.4 237.484 100.512 236.711 99.9231C236.661 99.8851 236.611 99.8487 236.558 99.8139C236.612 99.8329 236.667 99.8518 236.724 99.8677C237.656 100.137 238.555 99.8582 238.729 99.2472C238.904 98.6362 238.289 97.924 237.355 97.6549L237.358 97.6581Z" fill="#344EAD"/>
</svg>
