<svg width="298" height="98" viewBox="0 0 298 98" fill="none" xmlns="http://www.w3.org/2000/svg">
<path d="M35.8148 72.4871C30.1083 72.4933 25.4941 67.8854 25.5067 62.1727C25.5067 62.1161 25.5067 62.0597 25.5067 61.9969C25.5067 55.3675 24.8287 50 23.9937 50C23.1588 50 22.4808 55.3738 22.4808 61.9969C22.4808 62.0534 22.4808 62.1099 22.4808 62.1664C22.4933 67.8792 17.8792 72.4871 12.1664 72.4808C12.1099 72.4808 12.0534 72.4808 11.9969 72.4808C5.36751 72.4808 0 73.1588 0 73.9937C0 74.8287 5.37379 75.5067 11.9969 75.513C12.0534 75.513 12.1099 75.513 12.1726 75.513C17.8792 75.5067 22.4933 80.1146 22.4808 85.8274C22.4808 85.8839 22.4808 85.9404 22.4808 86.0031C22.4808 92.6325 23.1588 98 23.9937 98C24.8287 98 25.5067 92.6262 25.5067 86.0031C25.5067 85.9466 25.5067 85.8902 25.5067 85.8337C25.4941 80.1209 30.1083 75.5129 35.8211 75.5192C35.8776 75.5192 35.9341 75.5192 35.9906 75.5192C42.6199 75.5192 47.9874 74.8412 47.9874 74.0063C47.9874 73.1713 42.6137 72.4933 35.9906 72.4871C35.9341 72.4871 35.8776 72.4871 35.8148 72.4871Z" fill="#7096D1"/>
<path d="M48.2 58.04L52.04 57.08V16.12L48.2 15.16V14.2H64.52C72.1573 14.2 78.0027 16.1627 82.056 20.088C86.152 24.0133 88.2 29.5173 88.2 36.6C88.2 43.6827 86.152 49.1867 82.056 53.112C78.0027 57.0373 72.1573 59 64.52 59H48.2V58.04ZM64.52 57.4C68.488 57.4 71.56 55.8 73.736 52.6C75.912 49.3573 77 44.024 77 36.6C77 29.176 75.912 23.864 73.736 20.664C71.56 17.4213 68.488 15.8 64.52 15.8H62.6V57.4H64.52ZM110.59 59.96C105.129 59.96 100.883 58.4667 97.854 55.48C94.8247 52.4507 93.31 48.2907 93.31 43C93.31 39.544 93.9713 36.536 95.294 33.976C96.6167 31.416 98.4513 29.4533 100.798 28.088C103.187 26.7227 105.918 26.04 108.99 26.04C112.062 26.04 114.75 26.616 117.054 27.768C119.401 28.92 121.193 30.4773 122.43 32.44C123.71 34.36 124.35 36.4933 124.35 38.84C124.35 39.9067 124.243 40.824 124.03 41.592L123.71 42.68C121.875 43.064 119.891 43.384 117.758 43.64C113.278 44.28 108.755 44.6 104.19 44.6C104.19 49.5493 104.873 53.0907 106.238 55.224C107.603 57.3147 109.481 58.36 111.87 58.36C113.534 58.36 115.07 57.976 116.478 57.208C117.929 56.3973 119.059 55.352 119.87 54.072C120.723 52.7493 121.15 51.4053 121.15 50.04H122.75C122.75 51.7467 122.238 53.368 121.214 54.904C120.19 56.44 118.761 57.6773 116.926 58.616C115.091 59.512 112.979 59.96 110.59 59.96ZM104.19 43C106.921 43 109.139 42.8933 110.846 42.68C111.571 42.6373 112.339 42.5307 113.15 42.36C113.193 42.1467 113.299 41.6773 113.47 40.952C113.683 39.8853 113.79 38.7547 113.79 37.56C113.79 34.0187 113.321 31.4373 112.382 29.816C111.443 28.152 110.313 27.32 108.99 27.32C105.79 27.32 104.19 32.5467 104.19 43ZM145.763 59.96C142.947 59.96 140.493 59.448 138.403 58.424C136.355 57.4 134.776 55.992 133.667 54.2C132.557 52.408 132.003 50.3813 132.003 48.12V28.6H127.523V27H132.003V23.8C132.003 19.96 133.923 18.04 137.763 18.04H142.243V27H151.203V28.6H142.243V48.12C142.243 52.0453 142.648 54.7333 143.458 56.184C144.269 57.6347 145.464 58.36 147.043 58.36C148.579 58.36 149.923 57.6133 151.075 56.12C152.227 54.6267 152.803 52.6 152.803 50.04H154.403C154.403 53.1973 153.613 55.6507 152.035 57.4C150.456 59.1067 148.365 59.96 145.763 59.96ZM169.79 59.96C165.993 59.96 163.07 59.1493 161.022 57.528C158.974 55.9067 157.95 53.8373 157.95 51.32C157.95 49.656 158.313 48.0133 159.038 46.392C159.337 45.624 159.721 44.92 160.19 44.28C161.939 43.8533 163.838 43.4693 165.886 43.128C170.494 42.36 174.569 41.8907 178.11 41.72V39.8C178.11 35.064 177.534 31.8 176.382 30.008C175.23 28.216 173.459 27.32 171.07 27.32C170.174 27.32 169.406 27.4267 168.766 27.64L167.87 27.96V37.56L167.038 37.752C166.355 37.8373 165.779 37.88 165.31 37.88C163.859 37.88 162.686 37.4533 161.79 36.6C160.937 35.704 160.51 34.5307 160.51 33.08C160.51 31.1173 161.491 29.4533 163.454 28.088C165.459 26.7227 168.425 26.04 172.35 26.04C175.678 26.04 178.537 26.6373 180.926 27.832C183.358 28.984 185.193 30.6053 186.43 32.696C187.71 34.744 188.35 37.112 188.35 39.8V57.08L192.19 58.04V59H186.43C183.87 59 181.886 58.2107 180.478 56.632C179.881 55.992 179.411 55.1813 179.07 54.2C178.473 55.2667 177.769 56.2267 176.958 57.08C175.038 59 172.649 59.96 169.79 59.96ZM172.35 57.72C173.929 57.72 175.358 56.8667 176.638 55.16C177.107 54.52 177.598 53.6667 178.11 52.6V43.32C176.147 43.32 174.27 43.4267 172.478 43.64C171.155 43.8107 170.259 43.9173 169.79 43.96C169.577 44.4293 169.363 45.0693 169.15 45.88C168.723 47.5013 168.51 49.1013 168.51 50.68C168.51 53.0693 168.873 54.84 169.598 55.992C170.323 57.144 171.241 57.72 172.35 57.72ZM196.06 58.04L199.9 57.08V28.92L196.06 27.96V27H204.38C208.22 27 210.14 28.92 210.14 32.76V57.08L213.98 58.04V59H196.06V58.04ZM204.38 23.16C203.1 23.16 202.033 22.7333 201.18 21.88C200.327 21.0267 199.9 19.96 199.9 18.68C199.9 17.4 200.327 16.3333 201.18 15.48C202.033 14.6267 203.1 14.2 204.38 14.2C205.66 14.2 206.727 14.6267 207.58 15.48C208.433 16.3333 208.86 17.4 208.86 18.68C208.86 19.96 208.433 21.0267 207.58 21.88C206.727 22.7333 205.66 23.16 204.38 23.16ZM217.81 58.04L221.65 57.08V16.12L217.81 15.16V14.2H226.13C229.97 14.2 231.89 16.12 231.89 19.96V57.08L235.73 58.04V59H217.81V58.04Z" fill="#746661"/>
<path d="M296.358 13.6581C296.297 13.6406 296.237 13.6248 296.177 13.6121C296.234 13.6121 296.292 13.6074 296.35 13.6027C297.317 13.514 298.054 12.93 297.997 12.2968C297.94 11.6637 297.109 11.2221 296.144 11.3107C296.081 11.3171 296.019 11.325 295.958 11.3345C296.011 11.3123 296.063 11.2886 296.117 11.2617C296.986 10.828 297.462 10.016 297.181 9.44615C296.899 8.87634 295.967 8.76712 295.098 9.19923C295.041 9.22772 294.986 9.2578 294.932 9.28945C294.973 9.24988 295.014 9.20715 295.054 9.16441C295.708 8.44581 295.86 7.51511 295.391 7.08616C294.924 6.65722 294.014 6.89306 293.36 7.61166C293.317 7.65915 293.276 7.70663 293.238 7.7557C293.262 7.70346 293.286 7.64965 293.306 7.59425C293.656 6.68571 293.462 5.7645 292.872 5.53341C292.283 5.3039 291.519 5.85314 291.167 6.76168C291.144 6.82025 291.125 6.8804 291.106 6.93896C291.109 6.88198 291.112 6.82341 291.112 6.76327C291.112 5.78983 290.6 5 289.966 5C289.332 5 288.819 5.78983 288.819 6.76327C288.819 6.77593 288.819 6.78859 288.819 6.79967C288.816 6.79176 288.814 6.78384 288.811 6.77751C288.467 5.86739 287.707 5.31182 287.115 5.53816C286.524 5.7645 286.324 6.68413 286.668 7.59583C286.69 7.65598 286.715 7.71296 286.74 7.76994C286.704 7.72404 286.668 7.67972 286.628 7.6354C285.978 6.91205 285.071 6.66988 284.6 7.09566C284.13 7.52144 284.273 8.45214 284.923 9.17549C284.966 9.22298 285.008 9.26729 285.054 9.31161C285.005 9.28312 284.953 9.25463 284.901 9.22772C284.035 8.78928 283.101 8.89217 282.816 9.4604C282.53 10.0271 283 10.8438 283.868 11.2822C283.925 11.3107 283.981 11.3376 284.038 11.3614C283.981 11.3519 283.923 11.344 283.865 11.3392C282.899 11.2442 282.065 11.6795 282.004 12.3126C281.942 12.9458 282.674 13.5346 283.641 13.6296C283.704 13.6359 283.767 13.6391 283.828 13.6406C283.772 13.6533 283.717 13.666 283.66 13.6818C282.724 13.943 282.106 14.6521 282.275 15.2646C282.445 15.8772 283.341 16.1605 284.276 15.8993C284.338 15.8819 284.396 15.8629 284.455 15.8423C284.406 15.874 284.358 15.9072 284.311 15.9421C283.534 16.5261 283.212 17.4109 283.59 17.919C283.97 18.4287 284.907 18.367 285.685 17.7845C285.735 17.7465 285.784 17.7069 285.832 17.6658C285.798 17.7132 285.765 17.7607 285.734 17.8114C285.22 18.6376 285.239 19.5794 285.775 19.9165C286.311 20.2537 287.164 19.8564 287.679 19.0302C287.712 18.9763 287.743 18.9225 287.772 18.8671C287.757 18.9225 287.745 18.9795 287.734 19.0381C287.552 19.9941 287.909 20.8662 288.53 20.9865C289.152 21.1052 289.805 20.4262 289.986 19.4702C289.999 19.4085 290.008 19.3451 290.014 19.2834C290.021 19.3404 290.03 19.399 290.04 19.4559C290.215 20.4135 290.861 21.0973 291.484 20.9834C292.107 20.8694 292.47 19.9988 292.295 19.0412C292.284 18.9779 292.27 18.9178 292.254 18.8576C292.281 18.9083 292.309 18.9589 292.341 19.0096C292.849 19.839 293.699 20.241 294.238 19.9086C294.778 19.5762 294.803 18.6329 294.294 17.8035C294.26 17.7497 294.226 17.6974 294.189 17.6468C294.234 17.6848 294.278 17.7212 294.325 17.7576C295.098 18.3464 296.035 18.4129 296.418 17.9064C296.801 17.3998 296.484 16.5119 295.711 15.9231C295.661 15.8851 295.611 15.8487 295.558 15.8139C295.612 15.8329 295.667 15.8518 295.724 15.8677C296.656 16.1368 297.555 15.8582 297.729 15.2472C297.904 14.6362 297.289 13.924 296.355 13.6549L296.358 13.6581Z" fill="#344EAD"/>
</svg>
