<svg width="303" height="114" viewBox="0 0 303 114" fill="none" xmlns="http://www.w3.org/2000/svg">
<path d="M290.815 22.4871C285.108 22.4933 280.494 17.8854 280.507 12.1727C280.507 12.1161 280.507 12.0597 280.507 11.9969C280.507 5.36752 279.829 0 278.994 0C278.159 0 277.481 5.3738 277.481 11.9969C277.481 12.0534 277.481 12.1099 277.481 12.1664C277.493 17.8792 272.879 22.4871 267.166 22.4808C267.11 22.4808 267.053 22.4808 266.997 22.4808C260.368 22.4808 255 23.1588 255 23.9937C255 24.8287 260.374 25.5067 266.997 25.513C267.053 25.513 267.11 25.513 267.173 25.513C272.879 25.5067 277.493 30.1146 277.481 35.8274C277.481 35.8839 277.481 35.9404 277.481 36.0031C277.481 42.6325 278.159 48 278.994 48C279.829 48 280.507 42.6262 280.507 36.0031C280.507 35.9466 280.507 35.8902 280.507 35.8337C280.494 30.1209 285.108 25.5129 290.821 25.5192C290.878 25.5192 290.934 25.5192 290.991 25.5192C297.62 25.5192 302.987 24.8412 302.987 24.0063C302.987 23.1713 297.614 22.4933 290.991 22.4871C290.934 22.4871 290.878 22.4871 290.815 22.4871Z" fill="#7096D1"/>
<path d="M19.2938 82.04L23.1338 81.08V40.12L19.2938 39.16V38.2H53.5338V49.72H51.6138C50.8031 49.08 50.0991 48.2693 49.5018 47.288C48.1364 44.984 47.4538 42.488 47.4538 39.8H33.6938V59.96H41.0538C41.3524 58.3387 41.9071 56.824 42.7178 55.416C43.0591 54.776 43.4644 54.1573 43.9338 53.56H45.8538V67.96H43.9338C43.4644 67.3627 43.0591 66.744 42.7178 66.104C41.9071 64.696 41.3524 63.1813 41.0538 61.56H33.6938V81.08L37.5338 82.04V83H19.2938V82.04ZM70.5138 83.96C68.1244 83.96 65.9698 83.4693 64.0498 82.488C62.1724 81.464 60.7004 80.1413 59.6338 78.52C58.5671 76.8987 58.0338 75.192 58.0338 73.4V52.92L54.1938 51.96V51H62.5138C66.3538 51 68.2738 52.92 68.2738 56.76V73.4C68.2738 76.088 68.7431 78.1573 69.6818 79.608C70.6631 81.016 71.7938 81.72 73.0738 81.72C74.6524 81.72 76.0818 80.8667 77.3618 79.16C77.8311 78.52 78.3218 77.6667 78.8338 76.6V52.92L74.9938 51.96V51H92.9138V51.96L89.0738 52.92V83.32H88.4338C85.3191 83.32 82.9511 82.4667 81.3298 80.76C80.6044 79.992 80.0924 79.1387 79.7938 78.2C79.1964 79.2667 78.4924 80.2267 77.6818 81.08C75.7618 83 73.3724 83.96 70.5138 83.96ZM96.7788 82.04L100.619 81.08V52.92L96.7788 51.96V51H102.539C105.056 51 107.04 51.8107 108.491 53.432C109.045 54.072 109.515 54.8613 109.899 55.8C110.496 54.6907 111.2 53.7307 112.011 52.92C113.931 51 116.32 50.04 119.179 50.04C121.568 50.04 123.701 50.552 125.579 51.576C127.499 52.5573 128.992 53.8587 130.059 55.48C131.125 57.1013 131.659 58.808 131.659 60.6V81.08L135.499 82.04V83H127.179C123.339 83 121.419 81.08 121.419 77.24V60.6C121.419 57.912 120.928 55.864 119.947 54.456C119.008 53.0053 117.899 52.28 116.619 52.28C114.997 52.28 113.547 53.1333 112.267 54.84C111.712 55.5653 111.243 56.4187 110.859 57.4V81.08L114.699 82.04V83H96.7788V82.04ZM156.621 83.96C151.16 83.96 146.915 82.4667 143.885 79.48C140.856 76.4507 139.341 72.2907 139.341 67C139.341 61.7093 140.856 57.5707 143.885 54.584C146.915 51.5547 151.16 50.04 156.621 50.04C160.547 50.04 163.491 50.7227 165.453 52.088C167.459 53.4533 168.461 55.1173 168.461 57.08C168.461 58.5307 168.013 59.704 167.117 60.6C166.264 61.4533 165.112 61.88 163.661 61.88C163.064 61.88 162.467 61.8373 161.869 61.752L161.101 61.56V51.96L160.205 51.64C159.565 51.4267 158.797 51.32 157.901 51.32C155.469 51.32 153.571 52.472 152.205 54.776C150.883 57.08 150.221 61.1547 150.221 67C150.221 72.6747 150.883 76.664 152.205 78.968C153.571 81.2293 155.469 82.36 157.901 82.36C159.565 82.36 161.101 81.976 162.509 81.208C163.96 80.3973 165.091 79.352 165.901 78.072C166.755 76.7493 167.181 75.4053 167.181 74.04H168.781C168.781 75.7467 168.269 77.368 167.245 78.904C166.221 80.44 164.792 81.6773 162.957 82.616C161.123 83.512 159.011 83.96 156.621 83.96ZM189.919 83.96C187.103 83.96 184.649 83.448 182.559 82.424C180.511 81.4 178.932 79.992 177.823 78.2C176.713 76.408 176.159 74.3813 176.159 72.12V52.6H171.679V51H176.159V47.8C176.159 43.96 178.079 42.04 181.919 42.04H186.399V51H195.359V52.6H186.399V72.12C186.399 76.0453 186.804 78.7333 187.615 80.184C188.425 81.6347 189.62 82.36 191.199 82.36C192.735 82.36 194.079 81.6133 195.231 80.12C196.383 78.6267 196.959 76.6 196.959 74.04H198.559C198.559 77.1973 197.769 79.6507 196.191 81.4C194.612 83.1067 192.521 83.96 189.919 83.96ZM202.091 82.04L205.931 81.08V52.92L202.091 51.96V51H210.411C214.251 51 216.171 52.92 216.171 56.76V81.08L220.011 82.04V83H202.091V82.04ZM210.411 47.16C209.131 47.16 208.065 46.7333 207.211 45.88C206.358 45.0267 205.931 43.96 205.931 42.68C205.931 41.4 206.358 40.3333 207.211 39.48C208.065 38.6267 209.131 38.2 210.411 38.2C211.691 38.2 212.758 38.6267 213.611 39.48C214.465 40.3333 214.891 41.4 214.891 42.68C214.891 43.96 214.465 45.0267 213.611 45.88C212.758 46.7333 211.691 47.16 210.411 47.16ZM240.801 83.96C235.511 83.96 231.351 82.4667 228.321 79.48C225.335 76.4507 223.841 72.2907 223.841 67C223.841 61.7093 225.335 57.5707 228.321 54.584C231.351 51.5547 235.511 50.04 240.801 50.04C246.092 50.04 250.231 51.5547 253.217 54.584C256.247 57.5707 257.761 61.7093 257.761 67C257.761 72.2907 256.247 76.4507 253.217 79.48C250.231 82.4667 246.092 83.96 240.801 83.96ZM240.801 82.68C242.508 82.68 243.937 81.4853 245.089 79.096C246.284 76.7067 246.881 72.6747 246.881 67C246.881 61.3253 246.284 57.2933 245.089 54.904C243.937 52.5147 242.508 51.32 240.801 51.32C239.095 51.32 237.644 52.5147 236.449 54.904C235.297 57.2933 234.721 61.3253 234.721 67C234.721 72.6747 235.297 76.7067 236.449 79.096C237.644 81.4853 239.095 82.68 240.801 82.68ZM262.904 82.04L266.744 81.08V52.92L262.904 51.96V51H268.664C271.181 51 273.165 51.8107 274.616 53.432C275.17 54.072 275.64 54.8613 276.024 55.8C276.621 54.6907 277.325 53.7307 278.136 52.92C280.056 51 282.445 50.04 285.304 50.04C287.693 50.04 289.826 50.552 291.704 51.576C293.624 52.5573 295.117 53.8587 296.184 55.48C297.25 57.1013 297.784 58.808 297.784 60.6V81.08L301.624 82.04V83H293.304C289.464 83 287.544 81.08 287.544 77.24V60.6C287.544 57.912 287.053 55.864 286.072 54.456C285.133 53.0053 284.024 52.28 282.744 52.28C281.122 52.28 279.672 53.1333 278.392 54.84C277.837 55.5653 277.368 56.4187 276.984 57.4V81.08L280.824 82.04V83H262.904V82.04Z" fill="#746661"/>
<path d="M14.3582 106.658C14.2966 106.641 14.2367 106.625 14.1768 106.612C14.2336 106.612 14.2919 106.607 14.3503 106.603C15.3171 106.514 16.0537 105.93 15.9969 105.297C15.9401 104.664 15.1089 104.222 14.1437 104.311C14.0806 104.317 14.0191 104.325 13.9575 104.334C14.0112 104.312 14.0632 104.289 14.1168 104.262C14.9859 103.828 15.4622 103.016 15.1815 102.446C14.8992 101.876 13.967 101.767 13.0979 102.199C13.0412 102.228 12.986 102.258 12.9323 102.289C12.9733 102.25 13.0143 102.207 13.0538 102.164C13.7083 101.446 13.8598 100.515 13.3913 100.086C12.9244 99.6572 12.0144 99.8931 11.3598 100.612C11.3172 100.659 11.2762 100.707 11.2384 100.756C11.262 100.703 11.2857 100.65 11.3062 100.594C11.6563 99.6857 11.4623 98.7645 10.8724 98.5334C10.2825 98.3039 9.51916 98.8531 9.16743 99.7617C9.14377 99.8202 9.12485 99.8804 9.10592 99.939C9.10907 99.882 9.11223 99.8234 9.11223 99.7633C9.11223 98.7898 8.59962 98 7.96557 98C7.33151 98 6.81891 98.7898 6.81891 99.7633C6.81891 99.7759 6.81891 99.7886 6.81891 99.7997C6.81575 99.7918 6.81418 99.7838 6.81102 99.7775C6.46718 98.8674 5.70695 98.3118 5.11548 98.5382C4.52401 98.7645 4.3237 99.6841 4.66754 100.596C4.68962 100.656 4.71486 100.713 4.74009 100.77C4.70381 100.724 4.66754 100.68 4.62811 100.635C3.97828 99.9121 3.07136 99.6699 2.59976 100.096C2.12974 100.521 2.27327 101.452 2.9231 102.175C2.96569 102.223 3.00827 102.267 3.05401 102.312C3.00512 102.283 2.95307 102.255 2.90102 102.228C2.03511 101.789 1.10138 101.892 0.815894 102.46C0.530412 103.027 1.00043 103.844 1.86792 104.282C1.9247 104.311 1.98148 104.338 2.03826 104.361C1.98148 104.352 1.92312 104.344 1.86477 104.339C0.899489 104.244 0.065123 104.68 0.00361025 105.313C-0.0579025 105.946 0.673942 106.535 1.6408 106.63C1.70389 106.636 1.76698 106.639 1.82849 106.641C1.77171 106.653 1.7165 106.666 1.65972 106.682C0.724413 106.943 0.106132 107.652 0.274897 108.265C0.44524 108.877 1.34112 109.16 2.27643 108.899C2.33794 108.882 2.3963 108.863 2.45466 108.842C2.40576 108.874 2.35845 108.907 2.31113 108.942C1.53354 109.526 1.21178 110.411 1.59032 110.919C1.97044 111.429 2.90733 111.367 3.68491 110.784C3.73538 110.746 3.78428 110.707 3.8316 110.666C3.79847 110.713 3.76535 110.761 3.73381 110.811C3.21962 111.638 3.23855 112.579 3.77482 112.917C4.31108 113.254 5.16437 112.856 5.67856 112.03C5.71168 111.976 5.74322 111.923 5.77161 111.867C5.75742 111.923 5.7448 111.98 5.73376 112.038C5.55238 112.994 5.90883 113.866 6.53027 113.987C7.15171 114.105 7.80469 113.426 7.98607 112.47C7.99869 112.408 8.00815 112.345 8.01446 112.283C8.02077 112.34 8.03023 112.399 8.0397 112.456C8.21477 113.414 8.86145 114.097 9.48446 113.983C10.1075 113.869 10.4702 112.999 10.2952 112.041C10.2841 111.978 10.2699 111.918 10.2542 111.858C10.281 111.908 10.3094 111.959 10.3409 112.01C10.8488 112.839 11.6989 113.241 12.2383 112.909C12.7778 112.576 12.803 111.633 12.2935 110.803C12.2604 110.75 12.2257 110.697 12.1894 110.647C12.2336 110.685 12.2778 110.721 12.3251 110.758C13.0979 111.346 14.0348 111.413 14.4181 110.906C14.8014 110.4 14.4843 109.512 13.7115 108.923C13.661 108.885 13.6105 108.849 13.5585 108.814C13.6121 108.833 13.6673 108.852 13.7241 108.868C14.6563 109.137 15.5553 108.858 15.7288 108.247C15.9039 107.636 15.2887 106.924 14.355 106.655L14.3582 106.658Z" fill="#344EAD"/>
</svg>
