<svg width="214" height="105" viewBox="0 0 214 105" fill="none" xmlns="http://www.w3.org/2000/svg">
<path d="M35.8148 79.4871C30.1083 79.4933 25.4941 74.8854 25.5067 69.1727C25.5067 69.1161 25.5067 69.0597 25.5067 68.9969C25.5067 62.3675 24.8287 57 23.9937 57C23.1588 57 22.4808 62.3738 22.4808 68.9969C22.4808 69.0534 22.4808 69.1099 22.4808 69.1664C22.4933 74.8792 17.8792 79.4871 12.1664 79.4808C12.1099 79.4808 12.0534 79.4808 11.9969 79.4808C5.36751 79.4808 0 80.1588 0 80.9937C0 81.8287 5.37379 82.5067 11.9969 82.513C12.0534 82.513 12.1099 82.513 12.1726 82.513C17.8792 82.5067 22.4933 87.1146 22.4808 92.8274C22.4808 92.8839 22.4808 92.9404 22.4808 93.0031C22.4808 99.6325 23.1588 105 23.9937 105C24.8287 105 25.5067 99.6262 25.5067 93.0031C25.5067 92.9466 25.5067 92.8902 25.5067 92.8337C25.4941 87.1209 30.1083 82.5129 35.8211 82.5192C35.8776 82.5192 35.9341 82.5192 35.9906 82.5192C42.6199 82.5192 47.9874 81.8412 47.9874 81.0063C47.9874 80.1713 42.6137 79.4933 35.9906 79.4871C35.9341 79.4871 35.8776 79.4871 35.8148 79.4871Z" fill="#7096D1"/>
<path d="M32.8 66.16L36.16 65.32V29.48L32.8 28.64V27.8H47.08C53.7627 27.8 58.8773 29.5173 62.424 32.952C66.008 36.3867 67.8 41.2027 67.8 47.4C67.8 53.5973 66.008 58.4133 62.424 61.848C58.8773 65.2827 53.7627 67 47.08 67H32.8V66.16ZM47.08 65.6C50.552 65.6 53.24 64.2 55.144 61.4C57.048 58.5627 58 53.896 58 47.4C58 40.904 57.048 36.256 55.144 33.456C53.24 30.6187 50.552 29.2 47.08 29.2H45.4V65.6H47.08ZM87.3913 67.84C82.6126 67.84 78.8979 66.5333 76.2473 63.92C73.5966 61.2693 72.2713 57.6293 72.2713 53C72.2713 49.976 72.8499 47.344 74.0073 45.104C75.1646 42.864 76.7699 41.1467 78.8233 39.952C80.9139 38.7573 83.3033 38.16 85.9913 38.16C88.6793 38.16 91.0313 38.664 93.0473 39.672C95.1006 40.68 96.6686 42.0427 97.7513 43.76C98.8713 45.44 99.4313 47.3067 99.4313 49.36C99.4313 50.2933 99.3379 51.096 99.1513 51.768L98.8713 52.72C97.2659 53.056 95.5299 53.336 93.6633 53.56C89.7433 54.12 85.7859 54.4 81.7913 54.4C81.7913 58.7307 82.3886 61.8293 83.5833 63.696C84.7779 65.5253 86.4206 66.44 88.5113 66.44C89.9673 66.44 91.3113 66.104 92.5433 65.432C93.8126 64.7227 94.8019 63.808 95.5113 62.688C96.2579 61.5307 96.6313 60.3547 96.6313 59.16H98.0312C98.0312 60.6533 97.5833 62.072 96.6873 63.416C95.7913 64.76 94.5406 65.8427 92.9353 66.664C91.3299 67.448 89.4819 67.84 87.3913 67.84ZM81.7913 53C84.1806 53 86.1219 52.9067 87.6153 52.72C88.2499 52.6827 88.9219 52.5893 89.6313 52.44C89.6686 52.2533 89.7619 51.8427 89.9113 51.208C90.0979 50.2747 90.1913 49.2853 90.1913 48.24C90.1913 45.1413 89.7806 42.8827 88.9593 41.464C88.1379 40.008 87.1486 39.28 85.9913 39.28C83.1913 39.28 81.7913 43.8533 81.7913 53ZM118.167 67.84C115.703 67.84 113.557 67.392 111.727 66.496C109.935 65.6 108.554 64.368 107.583 62.8C106.613 61.232 106.127 59.4587 106.127 57.48V40.4H102.207V39H106.127V36.2C106.127 32.84 107.807 31.16 111.167 31.16H115.087V39H122.927V40.4H115.087V57.48C115.087 60.9147 115.442 63.2667 116.151 64.536C116.861 65.8053 117.906 66.44 119.287 66.44C120.631 66.44 121.807 65.7867 122.815 64.48C123.823 63.1733 124.327 61.4 124.327 59.16H125.727C125.727 61.9227 125.037 64.0693 123.655 65.6C122.274 67.0933 120.445 67.84 118.167 67.84ZM139.191 67.84C135.869 67.84 133.311 67.1307 131.519 65.712C129.727 64.2933 128.831 62.4827 128.831 60.28C128.831 58.824 129.149 57.3867 129.783 55.968C130.045 55.296 130.381 54.68 130.791 54.12C132.322 53.7467 133.983 53.4107 135.775 53.112C139.807 52.44 143.373 52.0293 146.471 51.88V50.2C146.471 46.056 145.967 43.2 144.959 41.632C143.951 40.064 142.402 39.28 140.311 39.28C139.527 39.28 138.855 39.3733 138.295 39.56L137.511 39.84V48.24L136.783 48.408C136.186 48.4827 135.682 48.52 135.271 48.52C134.002 48.52 132.975 48.1467 132.191 47.4C131.445 46.616 131.071 45.5893 131.071 44.32C131.071 42.6027 131.93 41.1467 133.647 39.952C135.402 38.7573 137.997 38.16 141.431 38.16C144.343 38.16 146.845 38.6827 148.935 39.728C151.063 40.736 152.669 42.1547 153.751 43.984C154.871 45.776 155.431 47.848 155.431 50.2V65.32L158.791 66.16V67H153.751C151.511 67 149.775 66.3093 148.543 64.928C148.021 64.368 147.61 63.6587 147.311 62.8C146.789 63.7333 146.173 64.5733 145.463 65.32C143.783 67 141.693 67.84 139.191 67.84ZM141.431 65.88C142.813 65.88 144.063 65.1333 145.183 63.64C145.594 63.08 146.023 62.3333 146.471 61.4V53.28C144.754 53.28 143.111 53.3733 141.543 53.56C140.386 53.7093 139.602 53.8027 139.191 53.84C139.005 54.2507 138.818 54.8107 138.631 55.52C138.258 56.9387 138.071 58.3387 138.071 59.72C138.071 61.8107 138.389 63.36 139.023 64.368C139.658 65.376 140.461 65.88 141.431 65.88ZM162.178 66.16L165.538 65.32V40.68L162.178 39.84V39H169.458C172.818 39 174.498 40.68 174.498 44.04V65.32L177.858 66.16V67H162.178V66.16ZM169.458 35.64C168.338 35.64 167.404 35.2667 166.658 34.52C165.911 33.7733 165.538 32.84 165.538 31.72C165.538 30.6 165.911 29.6667 166.658 28.92C167.404 28.1733 168.338 27.8 169.458 27.8C170.578 27.8 171.511 28.1733 172.258 28.92C173.004 29.6667 173.378 30.6 173.378 31.72C173.378 32.84 173.004 33.7733 172.258 34.52C171.511 35.2667 170.578 35.64 169.458 35.64ZM181.209 66.16L184.569 65.32V29.48L181.209 28.64V27.8H188.489C191.849 27.8 193.529 29.48 193.529 32.84V65.32L196.889 66.16V67H181.209V66.16Z" fill="#746661"/>
<path d="M212.358 8.65805C212.297 8.64064 212.237 8.62481 212.177 8.61215C212.234 8.61215 212.292 8.6074 212.35 8.60265C213.317 8.51401 214.054 7.92995 213.997 7.29682C213.94 6.66369 213.109 6.22208 212.144 6.31072C212.081 6.31705 212.019 6.32497 211.958 6.33446C212.011 6.3123 212.063 6.28856 212.117 6.26165C212.986 5.82796 213.462 5.01597 213.181 4.44615C212.899 3.87634 211.967 3.76712 211.098 4.19923C211.041 4.22772 210.986 4.2578 210.932 4.28945C210.973 4.24988 211.014 4.20715 211.054 4.16441C211.708 3.44581 211.86 2.51511 211.391 2.08616C210.924 1.65722 210.014 1.89306 209.36 2.61166C209.317 2.65915 209.276 2.70663 209.238 2.7557C209.262 2.70346 209.286 2.64965 209.306 2.59425C209.656 1.68571 209.462 0.764504 208.872 0.533412C208.283 0.303902 207.519 0.853143 207.167 1.76168C207.144 1.82025 207.125 1.8804 207.106 1.93896C207.109 1.88198 207.112 1.82341 207.112 1.76327C207.112 0.78983 206.6 0 205.966 0C205.332 0 204.819 0.78983 204.819 1.76327C204.819 1.77593 204.819 1.78859 204.819 1.79967C204.816 1.79176 204.814 1.78384 204.811 1.77751C204.467 0.867388 203.707 0.311816 203.115 0.53816C202.524 0.764504 202.324 1.68413 202.668 2.59583C202.69 2.65598 202.715 2.71296 202.74 2.76994C202.704 2.72404 202.668 2.67972 202.628 2.6354C201.978 1.91205 201.071 1.66988 200.6 2.09566C200.13 2.52144 200.273 3.45214 200.923 4.17549C200.966 4.22298 201.008 4.26729 201.054 4.31161C201.005 4.28312 200.953 4.25463 200.901 4.22772C200.035 3.78928 199.101 3.89217 198.816 4.4604C198.53 5.02705 199 5.84379 199.868 6.28223C199.925 6.31072 199.981 6.33763 200.038 6.36137C199.981 6.35188 199.923 6.34396 199.865 6.33921C198.899 6.24424 198.065 6.67952 198.004 7.31265C197.942 7.94578 198.674 8.53459 199.641 8.62956C199.704 8.63589 199.767 8.63906 199.828 8.64064C199.772 8.6533 199.717 8.66596 199.66 8.68179C198.724 8.94296 198.106 9.65206 198.275 10.2646C198.445 10.8772 199.341 11.1605 200.276 10.8993C200.338 10.8819 200.396 10.8629 200.455 10.8423C200.406 10.874 200.358 10.9072 200.311 10.9421C199.534 11.5261 199.212 12.4109 199.59 12.919C199.97 13.4287 200.907 13.367 201.685 12.7845C201.735 12.7465 201.784 12.7069 201.832 12.6658C201.798 12.7132 201.765 12.7607 201.734 12.8114C201.22 13.6376 201.239 14.5794 201.775 14.9165C202.311 15.2537 203.164 14.8564 203.679 14.0302C203.712 13.9763 203.743 13.9225 203.772 13.8671C203.757 13.9225 203.745 13.9795 203.734 14.0381C203.552 14.9941 203.909 15.8662 204.53 15.9865C205.152 16.1052 205.805 15.4262 205.986 14.4702C205.999 14.4085 206.008 14.3451 206.014 14.2834C206.021 14.3404 206.03 14.399 206.04 14.4559C206.215 15.4135 206.861 16.0973 207.484 15.9834C208.107 15.8694 208.47 14.9988 208.295 14.0412C208.284 13.9779 208.27 13.9178 208.254 13.8576C208.281 13.9083 208.309 13.9589 208.341 14.0096C208.849 14.839 209.699 15.241 210.238 14.9086C210.778 14.5762 210.803 13.6329 210.294 12.8035C210.26 12.7497 210.226 12.6974 210.189 12.6468C210.234 12.6848 210.278 12.7212 210.325 12.7576C211.098 13.3464 212.035 13.4129 212.418 12.9064C212.801 12.3998 212.484 11.5119 211.711 10.9231C211.661 10.8851 211.611 10.8487 211.558 10.8139C211.612 10.8329 211.667 10.8518 211.724 10.8677C212.656 11.1368 213.555 10.8582 213.729 10.2472C213.904 9.63624 213.289 8.92397 212.355 8.65489L212.358 8.65805Z" fill="#344EAD"/>
</svg>
