<svg width="234" height="66" viewBox="0 0 234 66" fill="none" xmlns="http://www.w3.org/2000/svg">
<path d="M31.6744 58.48C30.1597 58.48 28.741 58.1387 27.4184 57.456C26.821 57.1573 26.3197 56.8053 25.9144 56.4C25.6157 56.8907 25.2424 57.328 24.7944 57.712C24.4104 57.9893 24.197 58.1387 24.1544 58.16H23.3544V52.08H24.6344C24.9544 53.1253 25.4024 54.064 25.9784 54.896C27.2797 56.752 28.965 57.68 31.0344 57.68C32.2504 57.68 33.221 57.3173 33.9464 56.592C34.6717 55.8667 35.0344 54.896 35.0344 53.68C35.0344 52.976 34.821 52.3467 34.3944 51.792C33.989 51.2373 33.477 50.7467 32.8584 50.32C32.2397 49.8933 31.3757 49.36 30.2664 48.72C28.8584 47.9307 27.717 47.216 26.8424 46.576C25.9677 45.936 25.221 45.136 24.6024 44.176C23.9837 43.1947 23.6744 42.0427 23.6744 40.72C23.6744 39.6747 23.9624 38.736 24.5384 37.904C25.1357 37.0507 26.021 36.3787 27.1944 35.888C28.3677 35.376 29.8077 35.12 31.5144 35.12C32.7517 35.12 33.989 35.472 35.2264 36.176C35.6957 36.432 36.165 36.7733 36.6344 37.2C36.997 36.6453 37.3704 36.208 37.7544 35.888C38.1384 35.6107 38.3517 35.4613 38.3944 35.44H39.1944V41.52H37.9144C37.637 40.496 37.221 39.568 36.6664 38.736C36.1544 37.9253 35.5144 37.2533 34.7464 36.72C33.9997 36.1867 33.1357 35.92 32.1544 35.92C31.3224 35.92 30.6077 36.2507 30.0104 36.912C29.413 37.5733 29.1144 38.416 29.1144 39.44C29.1144 40.2293 29.3384 40.944 29.7864 41.584C30.2557 42.2027 30.821 42.7467 31.4824 43.216C32.165 43.6853 33.0824 44.2507 34.2344 44.912C35.5784 45.68 36.6664 46.3627 37.4984 46.96C38.3304 47.5573 39.0344 48.304 39.6104 49.2C40.1864 50.0747 40.4744 51.088 40.4744 52.24C40.4744 53.392 40.1437 54.448 39.4824 55.408C38.821 56.3467 37.829 57.0933 36.5064 57.648C35.1837 58.2027 33.573 58.48 31.6744 58.48ZM42.5456 57.52L44.4656 57.04V36.56L42.5456 36.08V35.6H46.7056C48.6256 35.6 49.5856 36.56 49.5856 38.48V43.6C49.9056 43.1733 50.2363 42.832 50.5776 42.576C51.495 41.872 52.551 41.52 53.7456 41.52C54.9403 41.52 56.007 41.776 56.9456 42.288C57.9056 42.7787 58.6523 43.4293 59.1856 44.24C59.719 45.0507 59.9856 45.904 59.9856 46.8V57.04L61.9056 57.52V58H57.7456C55.8256 58 54.8656 57.04 54.8656 55.12V46.8C54.8656 45.456 54.6203 44.432 54.1296 43.728C53.6603 43.0027 53.1056 42.64 52.4656 42.64C51.655 42.64 50.9296 43.0667 50.2896 43.92C50.0123 44.2827 49.7776 44.7093 49.5856 45.2V57.04L51.5056 57.52V58H42.5456V57.52ZM72.3069 58.48C69.6615 58.48 67.5815 57.7333 66.0669 56.24C64.5735 54.7253 63.8269 52.6453 63.8269 50C63.8269 47.3547 64.5735 45.2853 66.0669 43.792C67.5815 42.2773 69.6615 41.52 72.3069 41.52C74.9522 41.52 77.0215 42.2773 78.5149 43.792C80.0295 45.2853 80.7869 47.3547 80.7869 50C80.7869 52.6453 80.0295 54.7253 78.5149 56.24C77.0215 57.7333 74.9522 58.48 72.3069 58.48ZM72.3069 57.84C73.1602 57.84 73.8749 57.2427 74.4509 56.048C75.0482 54.8533 75.3469 52.8373 75.3469 50C75.3469 47.1627 75.0482 45.1467 74.4509 43.952C73.8749 42.7573 73.1602 42.16 72.3069 42.16C71.4535 42.16 70.7282 42.7573 70.1309 43.952C69.5549 45.1467 69.2669 47.1627 69.2669 50C69.2669 52.8373 69.5549 54.8533 70.1309 56.048C70.7282 57.2427 71.4535 57.84 72.3069 57.84ZM83.0381 42.96L81.4381 42.48V42H85.1181C86.2488 42 87.1448 42.2347 87.8061 42.704C88.4675 43.1733 89.0115 43.8453 89.4381 44.72L92.9581 52.08L94.7821 47.408L92.6381 42.96L91.0381 42.48V42H94.7181C95.8488 42 96.7448 42.2347 97.4061 42.704C98.0675 43.1733 98.6115 43.8453 99.0381 44.72L102.558 52.08L105.918 43.44L103.518 42.48V42H109.438V42.48L106.878 43.44L100.958 58.32H99.9981L95.2621 48.464L91.3581 58.32H90.3981L83.0381 42.96ZM119.046 57.52L120.966 57.04V42.96L119.046 42.48V42H121.926C123.184 42 124.176 42.4053 124.902 43.216C125.179 43.536 125.414 43.9307 125.606 44.4C125.926 43.8027 126.267 43.3227 126.63 42.96C127.59 42 128.688 41.52 129.926 41.52C131.163 41.52 132.251 41.7973 133.19 42.352C134.128 42.8853 134.854 43.6213 135.366 44.56C135.686 43.9413 136.027 43.44 136.39 43.056C137.371 42.032 138.47 41.52 139.686 41.52C140.816 41.52 141.83 41.7547 142.726 42.224C143.643 42.6933 144.347 43.3333 144.838 44.144C145.35 44.9547 145.606 45.84 145.606 46.8V57.04L147.526 57.52V58H143.366C141.446 58 140.486 57.04 140.486 55.12V46.8C140.486 45.4133 140.272 44.3787 139.846 43.696C139.419 42.992 138.939 42.64 138.406 42.64C137.787 42.64 137.158 43.0667 136.518 43.92C136.262 44.3253 136.038 44.752 135.846 45.2V57.04L137.766 57.52V58H128.806V57.52L130.726 57.04V46.8C130.726 45.4133 130.512 44.3787 130.086 43.696C129.659 42.992 129.179 42.64 128.646 42.64C128.027 42.64 127.398 43.0667 126.758 43.92C126.502 44.3253 126.278 44.752 126.086 45.2V57.04L128.006 57.52V58H119.046V57.52ZM157.932 58.48C155.287 58.48 153.207 57.7333 151.692 56.24C150.199 54.7253 149.452 52.6453 149.452 50C149.452 47.3547 150.199 45.2853 151.692 43.792C153.207 42.2773 155.287 41.52 157.932 41.52C160.577 41.52 162.647 42.2773 164.14 43.792C165.655 45.2853 166.412 47.3547 166.412 50C166.412 52.6453 165.655 54.7253 164.14 56.24C162.647 57.7333 160.577 58.48 157.932 58.48ZM157.932 57.84C158.785 57.84 159.5 57.2427 160.076 56.048C160.673 54.8533 160.972 52.8373 160.972 50C160.972 47.1627 160.673 45.1467 160.076 43.952C159.5 42.7573 158.785 42.16 157.932 42.16C157.079 42.16 156.353 42.7573 155.756 43.952C155.18 45.1467 154.892 47.1627 154.892 50C154.892 52.8373 155.18 54.8533 155.756 56.048C156.353 57.2427 157.079 57.84 157.932 57.84ZM168.983 57.52L170.903 57.04V42.96L168.983 42.48V42H171.863C173.122 42 174.114 42.4053 174.839 43.216C175.116 43.536 175.351 43.9307 175.543 44.4C175.863 43.9307 176.258 43.504 176.727 43.12C177.794 42.2667 178.988 41.84 180.311 41.84C181.442 41.84 182.284 42.1067 182.839 42.64C183.415 43.152 183.703 43.8987 183.703 44.88C183.703 45.6053 183.479 46.192 183.031 46.64C182.604 47.0667 182.028 47.28 181.303 47.28C181.004 47.28 180.706 47.2587 180.407 47.216L180.023 47.12V42.64C178.935 42.64 177.943 43.0667 177.047 43.92C176.62 44.3467 176.279 44.7733 176.023 45.2V57.04L177.943 57.52V58H168.983V57.52ZM193.779 58.48C191.049 58.48 188.926 57.7333 187.411 56.24C185.897 54.7253 185.139 52.6453 185.139 50C185.139 48.272 185.47 46.768 186.131 45.488C186.793 44.208 187.71 43.2267 188.883 42.544C190.078 41.8613 191.443 41.52 192.979 41.52C194.515 41.52 195.859 41.808 197.011 42.384C198.185 42.96 199.081 43.7387 199.699 44.72C200.339 45.68 200.659 46.7467 200.659 47.92C200.659 48.4533 200.606 48.912 200.499 49.296L200.339 49.84C199.422 50.032 198.43 50.192 197.363 50.32C195.123 50.64 192.862 50.8 190.579 50.8C190.579 53.2747 190.921 55.0453 191.603 56.112C192.286 57.1573 193.225 57.68 194.419 57.68C195.251 57.68 196.019 57.488 196.723 57.104C197.449 56.6987 198.014 56.176 198.419 55.536C198.846 54.8747 199.059 54.2027 199.059 53.52H199.859C199.859 54.3733 199.603 55.184 199.091 55.952C198.579 56.72 197.865 57.3387 196.947 57.808C196.03 58.256 194.974 58.48 193.779 58.48ZM190.579 50C191.945 50 193.054 49.9467 193.907 49.84C194.27 49.8187 194.654 49.7653 195.059 49.68C195.081 49.5733 195.134 49.3387 195.219 48.976C195.326 48.4427 195.379 47.8773 195.379 47.28C195.379 45.5093 195.145 44.2187 194.675 43.408C194.206 42.576 193.641 42.16 192.979 42.16C191.379 42.16 190.579 44.7733 190.579 50Z" fill="#746661"/>
<path d="M225.883 30.9914C222.077 30.9956 219.001 27.9236 219.009 24.1151C219.009 24.0774 219.009 24.0398 219.009 23.9979C219.009 19.5783 218.557 16 218 16C217.443 16 216.991 19.5825 216.991 23.9979C216.991 24.0356 216.991 24.0732 216.991 24.1109C216.999 27.9194 213.923 30.9914 210.113 30.9872C210.075 30.9872 210.038 30.9872 210 30.9872C205.579 30.9872 202 31.4392 202 31.9958C202 32.5524 205.583 33.0045 210 33.0086C210.038 33.0086 210.075 33.0086 210.117 33.0086C213.923 33.0045 216.999 36.0764 216.991 39.8849C216.991 39.9226 216.991 39.9602 216.991 40.0021C216.991 44.4217 217.443 48 218 48C218.557 48 219.009 44.4175 219.009 40.0021C219.009 39.9644 219.009 39.9268 219.009 39.8891C219.001 36.0806 222.077 33.0086 225.887 33.0128C225.925 33.0128 225.962 33.0128 226 33.0128C230.421 33.0128 234 32.5608 234 32.0042C234 31.4476 230.417 30.9956 226 30.9914C225.962 30.9914 225.925 30.9914 225.883 30.9914Z" fill="#7096D1"/>
<path d="M14.3582 8.65805C14.2966 8.64064 14.2367 8.62481 14.1768 8.61215C14.2336 8.61215 14.2919 8.6074 14.3503 8.60265C15.3171 8.51401 16.0537 7.92995 15.9969 7.29682C15.9401 6.66369 15.1089 6.22208 14.1437 6.31072C14.0806 6.31705 14.0191 6.32497 13.9575 6.33446C14.0112 6.3123 14.0632 6.28856 14.1168 6.26165C14.9859 5.82796 15.4622 5.01597 15.1815 4.44615C14.8992 3.87634 13.967 3.76712 13.0979 4.19923C13.0412 4.22772 12.986 4.2578 12.9323 4.28945C12.9733 4.24988 13.0143 4.20715 13.0538 4.16441C13.7083 3.44581 13.8598 2.51511 13.3913 2.08616C12.9244 1.65722 12.0144 1.89306 11.3598 2.61166C11.3172 2.65915 11.2762 2.70663 11.2384 2.7557C11.262 2.70346 11.2857 2.64965 11.3062 2.59425C11.6563 1.68571 11.4623 0.764504 10.8724 0.533412C10.2825 0.303902 9.51916 0.853142 9.16743 1.76168C9.14377 1.82025 9.12485 1.8804 9.10592 1.93896C9.10907 1.88198 9.11223 1.82341 9.11223 1.76327C9.11223 0.789829 8.59962 0 7.96557 0C7.33151 0 6.81891 0.789829 6.81891 1.76327C6.81891 1.77593 6.81891 1.78859 6.81891 1.79967C6.81575 1.79176 6.81418 1.78384 6.81102 1.77751C6.46718 0.867388 5.70695 0.311816 5.11548 0.53816C4.52401 0.764504 4.3237 1.68413 4.66754 2.59583C4.68962 2.65598 4.71486 2.71296 4.74009 2.76994C4.70381 2.72404 4.66754 2.67972 4.62811 2.6354C3.97828 1.91205 3.07136 1.66988 2.59976 2.09566C2.12974 2.52144 2.27327 3.45214 2.9231 4.17549C2.96569 4.22298 3.00827 4.26729 3.05401 4.31161C3.00512 4.28312 2.95307 4.25463 2.90102 4.22772C2.03511 3.78928 1.10138 3.89217 0.815894 4.4604C0.530412 5.02705 1.00043 5.84379 1.86792 6.28223C1.9247 6.31072 1.98148 6.33763 2.03826 6.36137C1.98148 6.35187 1.92312 6.34396 1.86477 6.33921C0.899489 6.24424 0.065123 6.67952 0.00361025 7.31265C-0.0579025 7.94578 0.673942 8.53459 1.6408 8.62956C1.70389 8.63589 1.76698 8.63906 1.82849 8.64064C1.77171 8.6533 1.7165 8.66596 1.65972 8.68179C0.724413 8.94296 0.106132 9.65206 0.274897 10.2646C0.44524 10.8772 1.34112 11.1605 2.27643 10.8993C2.33794 10.8819 2.3963 10.8629 2.45466 10.8423C2.40576 10.874 2.35845 10.9072 2.31113 10.9421C1.53354 11.5261 1.21178 12.4109 1.59032 12.919C1.97044 13.4287 2.90733 13.367 3.68491 12.7845C3.73538 12.7465 3.78428 12.7069 3.8316 12.6658C3.79847 12.7132 3.76535 12.7607 3.73381 12.8114C3.21962 13.6376 3.23855 14.5794 3.77482 14.9165C4.31108 15.2537 5.16437 14.8564 5.67856 14.0302C5.71168 13.9763 5.74322 13.9225 5.77161 13.8671C5.75742 13.9225 5.7448 13.9795 5.73376 14.0381C5.55238 14.9941 5.90883 15.8662 6.53027 15.9865C7.15171 16.1052 7.80469 15.4262 7.98607 14.4702C7.99869 14.4085 8.00815 14.3451 8.01446 14.2834C8.02077 14.3404 8.03023 14.399 8.0397 14.4559C8.21477 15.4135 8.86145 16.0973 9.48446 15.9834C10.1075 15.8694 10.4702 14.9988 10.2952 14.0412C10.2841 13.9779 10.2699 13.9178 10.2542 13.8576C10.281 13.9083 10.3094 13.9589 10.3409 14.0096C10.8488 14.839 11.6989 15.241 12.2383 14.9086C12.7778 14.5762 12.803 13.6329 12.2935 12.8035C12.2604 12.7497 12.2257 12.6974 12.1894 12.6468C12.2336 12.6848 12.2778 12.7212 12.3251 12.7576C13.0979 13.3464 14.0348 13.4129 14.4181 12.9064C14.8014 12.3998 14.4843 11.5119 13.7115 10.9231C13.661 10.8851 13.6105 10.8487 13.5585 10.8139C13.6121 10.8329 13.6673 10.8518 13.7241 10.8677C14.6563 11.1368 15.5553 10.8582 15.7288 10.2472C15.9039 9.63624 15.2887 8.92397 14.355 8.65489L14.3582 8.65805Z" fill="#344EAD"/>
</svg>
