<svg width="299" height="99" viewBox="0 0 299 99" fill="none" xmlns="http://www.w3.org/2000/svg">
<path d="M35.8148 22.4871C30.1083 22.4933 25.4941 17.8854 25.5067 12.1727C25.5067 12.1161 25.5067 12.0597 25.5067 11.9969C25.5067 5.36752 24.8287 0 23.9937 0C23.1588 0 22.4808 5.3738 22.4808 11.9969C22.4808 12.0534 22.4808 12.1099 22.4808 12.1664C22.4933 17.8792 17.8792 22.4871 12.1664 22.4808C12.1099 22.4808 12.0534 22.4808 11.9969 22.4808C5.36751 22.4808 0 23.1588 0 23.9937C0 24.8287 5.37379 25.5067 11.9969 25.513C12.0534 25.513 12.1099 25.513 12.1726 25.513C17.8792 25.5067 22.4933 30.1146 22.4808 35.8274C22.4808 35.8839 22.4808 35.9404 22.4808 36.0031C22.4808 42.6325 23.1588 48 23.9937 48C24.8287 48 25.5067 42.6262 25.5067 36.0031C25.5067 35.9466 25.5067 35.8902 25.5067 35.8337C25.4941 30.1209 30.1083 25.5129 35.8211 25.5192C35.8776 25.5192 35.9341 25.5192 35.9906 25.5192C42.6199 25.5192 47.9875 24.8412 47.9875 24.0063C47.9875 23.1713 42.6137 22.4933 35.9906 22.4871C35.9341 22.4871 35.8776 22.4871 35.8148 22.4871Z" fill="#7096D1"/>
<path d="M44.2313 82.04L48.0713 81.08V40.12L44.2313 39.16V38.2H60.5513C68.1886 38.2 74.0339 40.1627 78.0873 44.088C82.1833 48.0133 84.2313 53.5173 84.2313 60.6C84.2313 67.6827 82.1833 73.1867 78.0873 77.112C74.0339 81.0373 68.1886 83 60.5513 83H44.2313V82.04ZM60.5513 81.4C64.5193 81.4 67.5913 79.8 69.7673 76.6C71.9433 73.3573 73.0312 68.024 73.0312 60.6C73.0312 53.176 71.9433 47.864 69.7673 44.664C67.5913 41.4213 64.5193 39.8 60.5513 39.8H58.6313V81.4H60.5513ZM106.621 83.96C101.16 83.96 96.9146 82.4667 93.8853 79.48C90.8559 76.4507 89.3413 72.2907 89.3413 67C89.3413 63.544 90.0026 60.536 91.3253 57.976C92.6479 55.416 94.4826 53.4533 96.8293 52.088C99.2186 50.7227 101.949 50.04 105.021 50.04C108.093 50.04 110.781 50.616 113.085 51.768C115.432 52.92 117.224 54.4773 118.461 56.44C119.741 58.36 120.381 60.4933 120.381 62.84C120.381 63.9067 120.275 64.824 120.061 65.592L119.741 66.68C117.907 67.064 115.923 67.384 113.789 67.64C109.309 68.28 104.787 68.6 100.221 68.6C100.221 73.5493 100.904 77.0907 102.269 79.224C103.635 81.3147 105.512 82.36 107.901 82.36C109.565 82.36 111.101 81.976 112.509 81.208C113.96 80.3973 115.091 79.352 115.901 78.072C116.755 76.7493 117.181 75.4053 117.181 74.04H118.781C118.781 75.7467 118.269 77.368 117.245 78.904C116.221 80.44 114.792 81.6773 112.957 82.616C111.123 83.512 109.011 83.96 106.621 83.96ZM100.221 67C102.952 67 105.171 66.8933 106.877 66.68C107.603 66.6373 108.371 66.5307 109.181 66.36C109.224 66.1467 109.331 65.6773 109.501 64.952C109.715 63.8853 109.821 62.7547 109.821 61.56C109.821 58.0187 109.352 55.4373 108.413 53.816C107.475 52.152 106.344 51.32 105.021 51.32C101.821 51.32 100.221 56.5467 100.221 67ZM140.194 83.96C137.548 83.96 135.18 83.384 133.09 82.232C132.066 81.6773 131.234 81.08 130.594 80.44C129.911 81.3787 129.164 82.104 128.354 82.616C127.97 82.872 127.543 83.1067 127.074 83.32H125.474V72.44H128.034C128.588 74.232 129.399 75.896 130.466 77.432C132.727 80.7173 135.543 82.36 138.914 82.36C140.706 82.36 142.05 81.9333 142.946 81.08C143.884 80.184 144.354 78.904 144.354 77.24C144.354 75.832 143.714 74.6587 142.434 73.72C141.196 72.7387 139.234 71.544 136.546 70.136C134.242 68.984 132.364 67.96 130.914 67.064C129.506 66.1253 128.29 64.9733 127.266 63.608C126.284 62.2 125.794 60.5573 125.794 58.68C125.794 56.12 126.882 54.0507 129.058 52.472C131.276 50.8507 134.668 50.04 139.234 50.04C141.495 50.04 143.586 50.6373 145.506 51.832C146.444 52.3867 147.255 52.9627 147.938 53.56C148.492 52.792 149.239 52.0667 150.178 51.384C150.903 50.9573 151.33 50.7227 151.458 50.68H153.058V61.56H150.498C149.858 59.7253 149.068 58.0827 148.13 56.632C145.996 53.304 143.458 51.64 140.514 51.64C139.362 51.64 138.38 52.0667 137.57 52.92C136.759 53.7733 136.354 54.84 136.354 56.12C136.354 57.7413 137.036 59.1067 138.402 60.216C139.767 61.2827 141.836 62.52 144.61 63.928C146.871 65.08 148.663 66.104 149.986 67C151.351 67.8533 152.503 68.92 153.442 70.2C154.423 71.48 154.914 72.9733 154.914 74.68C154.914 80.8667 150.007 83.96 140.194 83.96ZM159.716 82.04L163.556 81.08V52.92L159.716 51.96V51H168.036C171.876 51 173.796 52.92 173.796 56.76V81.08L177.636 82.04V83H159.716V82.04ZM168.036 47.16C166.756 47.16 165.69 46.7333 164.836 45.88C163.983 45.0267 163.556 43.96 163.556 42.68C163.556 41.4 163.983 40.3333 164.836 39.48C165.69 38.6267 166.756 38.2 168.036 38.2C169.316 38.2 170.383 38.6267 171.236 39.48C172.09 40.3333 172.516 41.4 172.516 42.68C172.516 43.96 172.09 45.0267 171.236 45.88C170.383 46.7333 169.316 47.16 168.036 47.16ZM196.506 96.76C192.709 96.76 189.616 96.4187 187.226 95.736C184.837 95.0533 183.109 94.1787 182.042 93.112C181.018 92.0453 180.506 90.9147 180.506 89.72C180.506 88.2693 180.933 87.096 181.786 86.2C182.682 85.3467 183.856 84.92 185.306 84.92C185.648 84.92 186.266 84.984 187.162 85.112L187.866 85.24V94.2C188.378 94.3707 189.189 94.584 190.298 94.84C192.261 95.2667 194.117 95.48 195.866 95.48C201.072 95.48 204.869 94.7333 207.258 93.24C209.69 91.7893 210.906 89.976 210.906 87.8C210.906 85.0267 208.346 83.64 203.226 83.64H191.066C187.866 83.64 185.413 82.9787 183.706 81.656C182 80.3333 181.146 78.648 181.146 76.6C181.146 74.552 182.149 72.7387 184.154 71.16C184.965 70.5627 185.989 70.0293 187.226 69.56C185.648 68.5787 184.496 67.4267 183.77 66.104C183.088 64.7387 182.746 63.1173 182.746 61.24C182.746 58.0827 183.941 55.544 186.33 53.624C188.72 51.6613 192.218 50.68 196.826 50.68C198.832 50.68 200.666 50.8933 202.33 51.32C204.037 51.704 205.402 52.2373 206.426 52.92C206.768 52.1947 207.216 51.5547 207.77 51C209.05 49.72 210.629 49.08 212.506 49.08C213.957 49.08 215.173 49.592 216.154 50.616C217.136 51.5973 217.626 52.8987 217.626 54.52C217.626 55.7573 217.285 56.76 216.602 57.528C215.962 58.296 215.13 58.68 214.106 58.68C213.637 58.68 213.104 58.6373 212.506 58.552L211.866 58.36V50.68C210.757 50.68 209.712 51.2133 208.73 52.28C208.346 52.664 208.005 53.1973 207.706 53.88C209.84 55.7573 210.906 58.2107 210.906 61.24C210.906 64.3973 209.712 66.9573 207.322 68.92C204.933 70.84 201.434 71.8 196.826 71.8C193.754 71.8 190.981 71.2667 188.506 70.2L187.226 70.84C186.8 71.096 186.48 71.352 186.266 71.608C186.053 71.8213 185.946 72.0987 185.946 72.44C185.946 73.1653 186.309 73.72 187.034 74.104C187.802 74.488 189.146 74.68 191.066 74.68H203.226C206.426 74.68 208.922 75.6187 210.714 77.496C212.549 79.3307 213.466 81.912 213.466 85.24C213.466 88.6533 212.037 91.4267 209.178 93.56C206.362 95.6933 202.138 96.76 196.506 96.76ZM196.826 70.52C198.234 70.52 199.322 69.8373 200.09 68.472C200.901 67.1067 201.306 64.696 201.306 61.24C201.306 57.784 200.901 55.3733 200.09 54.008C199.322 52.6427 198.234 51.96 196.826 51.96C195.418 51.96 194.309 52.6427 193.498 54.008C192.73 55.3733 192.346 57.784 192.346 61.24C192.346 64.696 192.73 67.1067 193.498 68.472C194.309 69.8373 195.418 70.52 196.826 70.52ZM218.966 82.04L222.806 81.08V52.92L218.966 51.96V51H224.726C227.244 51 229.228 51.8107 230.678 53.432C231.233 54.072 231.702 54.8613 232.086 55.8C232.684 54.6907 233.388 53.7307 234.198 52.92C236.118 51 238.508 50.04 241.366 50.04C243.756 50.04 245.889 50.552 247.766 51.576C249.686 52.5573 251.18 53.8587 252.246 55.48C253.313 57.1013 253.846 58.808 253.846 60.6V81.08L257.686 82.04V83H249.366C245.526 83 243.606 81.08 243.606 77.24V60.6C243.606 57.912 243.116 55.864 242.134 54.456C241.196 53.0053 240.086 52.28 238.806 52.28C237.185 52.28 235.734 53.1333 234.454 54.84C233.9 55.5653 233.43 56.4187 233.046 57.4V81.08L236.886 82.04V83H218.966V82.04Z" fill="#746661"/>
<path d="M297.358 91.6581C297.297 91.6406 297.237 91.6248 297.177 91.6121C297.234 91.6121 297.292 91.6074 297.35 91.6027C298.317 91.514 299.054 90.93 298.997 90.2968C298.94 89.6637 298.109 89.2221 297.144 89.3107C297.081 89.3171 297.019 89.325 296.958 89.3345C297.011 89.3123 297.063 89.2886 297.117 89.2617C297.986 88.828 298.462 88.016 298.181 87.4462C297.899 86.8763 296.967 86.7671 296.098 87.1992C296.041 87.2277 295.986 87.2578 295.932 87.2895C295.973 87.2499 296.014 87.2071 296.054 87.1644C296.708 86.4458 296.86 85.5151 296.391 85.0862C295.924 84.6572 295.014 84.8931 294.36 85.6117C294.317 85.6591 294.276 85.7066 294.238 85.7557C294.262 85.7035 294.286 85.6496 294.306 85.5942C294.656 84.6857 294.462 83.7645 293.872 83.5334C293.283 83.3039 292.519 83.8531 292.167 84.7617C292.144 84.8202 292.125 84.8804 292.106 84.939C292.109 84.882 292.112 84.8234 292.112 84.7633C292.112 83.7898 291.6 83 290.966 83C290.332 83 289.819 83.7898 289.819 84.7633C289.819 84.7759 289.819 84.7886 289.819 84.7997C289.816 84.7918 289.814 84.7838 289.811 84.7775C289.467 83.8674 288.707 83.3118 288.115 83.5382C287.524 83.7645 287.324 84.6841 287.668 85.5958C287.69 85.656 287.715 85.713 287.74 85.7699C287.704 85.724 287.668 85.6797 287.628 85.6354C286.978 84.9121 286.071 84.6699 285.6 85.0957C285.13 85.5214 285.273 86.4521 285.923 87.1755C285.966 87.223 286.008 87.2673 286.054 87.3116C286.005 87.2831 285.953 87.2546 285.901 87.2277C285.035 86.7893 284.101 86.8922 283.816 87.4604C283.53 88.0271 284 88.8438 284.868 89.2822C284.925 89.3107 284.981 89.3376 285.038 89.3614C284.981 89.3519 284.923 89.344 284.865 89.3392C283.899 89.2442 283.065 89.6795 283.004 90.3126C282.942 90.9458 283.674 91.5346 284.641 91.6296C284.704 91.6359 284.767 91.6391 284.828 91.6406C284.772 91.6533 284.717 91.666 284.66 91.6818C283.724 91.943 283.106 92.6521 283.275 93.2646C283.445 93.8772 284.341 94.1605 285.276 93.8993C285.338 93.8819 285.396 93.8629 285.455 93.8423C285.406 93.874 285.358 93.9072 285.311 93.9421C284.534 94.5261 284.212 95.4109 284.59 95.919C284.97 96.4287 285.907 96.367 286.685 95.7845C286.735 95.7465 286.784 95.7069 286.832 95.6658C286.798 95.7132 286.765 95.7607 286.734 95.8114C286.22 96.6376 286.239 97.5794 286.775 97.9165C287.311 98.2537 288.164 97.8564 288.679 97.0302C288.712 96.9763 288.743 96.9225 288.772 96.8671C288.757 96.9225 288.745 96.9795 288.734 97.0381C288.552 97.9941 288.909 98.8662 289.53 98.9865C290.152 99.1052 290.805 98.4262 290.986 97.4702C290.999 97.4085 291.008 97.3451 291.014 97.2834C291.021 97.3404 291.03 97.399 291.04 97.4559C291.215 98.4135 291.861 99.0973 292.484 98.9834C293.107 98.8694 293.47 97.9988 293.295 97.0412C293.284 96.9779 293.27 96.9178 293.254 96.8576C293.281 96.9083 293.309 96.9589 293.341 97.0096C293.849 97.839 294.699 98.241 295.238 97.9086C295.778 97.5762 295.803 96.6329 295.294 95.8035C295.26 95.7497 295.226 95.6974 295.189 95.6468C295.234 95.6848 295.278 95.7212 295.325 95.7576C296.098 96.3464 297.035 96.4129 297.418 95.9064C297.801 95.3998 297.484 94.5119 296.711 93.9231C296.661 93.8851 296.611 93.8487 296.558 93.8139C296.612 93.8329 296.667 93.8518 296.724 93.8677C297.656 94.1368 298.555 93.8582 298.729 93.2472C298.904 92.6362 298.289 91.924 297.355 91.6549L297.358 91.6581Z" fill="#344EAD"/>
</svg>
