<?xml version="1.0" encoding="UTF-8"?>
<svg id="_레이어_1" data-name=" 레이어 1" xmlns="http://www.w3.org/2000/svg" version="1.1" viewBox="0 0 300 100">
  <defs>
    <style>
      .cls-1 {
        fill: #314b9e;
        stroke-width: 0px;
      }
    </style>
  </defs>
  <path class="cls-1" d="M248,68.8c-.8-.1-1.6,0-2.4,0-2.4,0-4.7,0-7.1,0-.3,0-.7,0-.9-.2-.6-.4,0,1.2.3.8,2.7-4.8,5-9.9,6.6-15.2,1.1-3.8,1.8-7.5-.2-11.1-1.8-3.3-5.2-5.3-8.8-5.9-3.8-.8-7.4.2-12.1,1.6,2-5.1,3.6-9.3,5.3-13.6,1.1-2.9.6-5.4-1.9-7.3-2.6-2.1-5.4-2-8.2-.5-3,1.6-4.7,4.4-5.9,7.4-5,12-10,23.9-14.9,35.8-2.1,5-4.2,10.1-6.1,15.2-1,2.8-1.2,5.9,1.7,7.8,3,2.1,6.2,1.7,9.1-.2,2.4-1.5,3.7-3.9,4.8-6.5,2.4-5.6,4.7-11.3,7.1-17,1.3-3,2.7-5.9,5.6-7.8,2.1-1.4,4.6-2,6.7-.5,2.2,1.5-.7,6.8-1.4,8.5-1.9,4.1-3.3,8.4-4.6,12.7-1.1,3.4-.8,9.8,4,10.1.3,0,.5,0,.8,0,6.9.4,13.7,0,20.6,0s2.1,0,2.9-.5c.8-.5,1.3-1.2,1.7-2,.7-1.4,1.1-2.9,1.2-4.4,0-1.1,0-3.7-.7-4.6-.7-1-2-2.2-3-2.4h0Z"/>
  <path class="cls-1" d="M284.1,16c-4.4-1.1-8.5.1-10.1,4.6-4.1,11.4-6.8,23.1-9.2,34.9-.6,3.1.6,5.8,3.7,7,3.3,1.3,5.6-.4,7.5-2.8,1.1-1.3,1.9-2.8,2.5-4.4,3.5-8.7,6.9-17.4,10.2-26.1.6-1.6.9-3.3,1.1-4,.3-5.3-1.6-8.3-5.8-9.3h0Z"/>
  <path class="cls-1" d="M270.3,67.1c-1.9-1.2-4.1-1.9-5.8-3.4-.9-.8-1.6-1.8-2.1-2.9-.2-.3-.5-1.1-.9-1.1-.4,0-.8.7-1.1,1-2.7,3.7-4.7,8.7-4.5,13.4,0,.4,0,.8.1,1.2,0,.2,0,.5.2.7,1.1,4.6,5.6,7.6,10.2,7.6,1.2,0,2.4-.2,3.6-.7,4.7-2,6.7-8.4,3.7-12.6-.9-1.3-2.1-2.3-3.4-3.1h0Z"/>
  <path class="cls-1" d="M163.5,48.8c.3-.2.8-.3,1.1-.4,6.3-1.5,12.4.2,18.4,2.1,1.6.5,3.3,1.3,5,1.3,2.8,0,4.9-1.9,5.9-4.4,1.6-3.7,0-6.6-3.3-8.6-9-5.3-29.1-3.9-37.1,2.8-3.7,3.1-6.1,7.1-5.3,12.1.9,5.1,5.2,6.9,9.5,8.1,3.6.9,7.5,1.4,11.2,1.9,1.5.2,5.6.6,5.6,2.7,0,2.1-4.5,1.5-5.9,1.4-2.8,0-5.6,0-8.4,0-5.5,0-10.9,0-16.4,0s-1,.5.6-6c3.2-13.3-3.8-25.3-16-26.6-5.4-.6-11,.4-15.9,2.8-10.4,5.1-15.5,15.7-15.1,27.2,0,1.1.2,2.6-1.6,2.6h-5.9c-1.4,0,1.2-3.4,1.6-4.5,1.5-4,3.4-7.8,4.6-11.9,2.6-8.6-2.6-15.7-11.6-16.5-5.1-.4-9.8.9-13.9,4-1.6,1.2-2.8,1.8-4.9.2-6.9-5.6-13.1-5.7-20.8-1.1-1.6,1-1.7,1.4-3.5,0-5-3.9-10.1-2.7-13,3.1-2.2,4.4-4,9.1-5.7,13.7-1.3,3.4-2.1,7.1-4.3,10.1-2.3,3.1-7.7,3.7-8.6,7.8-1.2,5.9,5.4,9.1,10.1,9.6,5.2.5,8.5-1.9,10.8-6.5,3.5-6.9,5.2-14.6,9-21.2,1.1-1.8,2.4-3.7,4.2-4.7,4.5-2.7,7.7.5,6.2,5-.5,1.6-1.2,3.2-1.8,4.8-1.6,4-10,17.6-3.7,21.2,3.3,1.9,6.2,2.4,9.1.5,2.7-1.7,4.1-4.5,5.3-7.3,3.1-7.4,5.3-16.5,11-22.4,3.9-4.1,11.1-3.6,8.3,3.4-1.7,4.1-3.5,8.2-5,12.3-3.9,10.1-.5,15,10.3,15,15,0,26,0,41,0s32.1.7,46,0c9.7-.5,17.1-4.9,19.8-12.6,2.6-7.2.5-11.8-6.7-14.6-1.3-.5-2.6-.9-3.9-1.2-4.7-1.2-9.5-1.6-14.2-2.4-.9-.2-3.1-.5-2.9-1.8,0-.4.3-.8.7-1h0ZM119.1,68.2c-5.1,0-6.6-1.9-6.6-6.7,0-6.1,5.3-12.3,10.6-12.4,4-.1,6.9,2.8,6.9,7.1,0,6.7-5,12-11,12Z"/>
</svg>