<svg width="488" height="118" viewBox="0 0 488 118" fill="none" xmlns="http://www.w3.org/2000/svg">
<g clip-path="url(#clip0_186_1124)">
<path d="M407.648 94.2392H395.877L406.611 67.3615C408.283 63.34 409.085 59.62 409.085 56.2017C409.085 50.5044 406.979 45.8461 402.799 42.1931C398.619 38.5067 393.236 36.697 386.682 36.697C382.067 36.697 376.149 38.6407 368.959 42.5283L378.356 20.6441C380.128 16.3544 381.031 13.1037 381.031 10.9253C381.031 8.24425 380.027 5.96535 377.988 4.08861C375.981 2.21187 373.574 1.2735 370.798 1.2735C364.044 1.2735 358.727 5.96535 354.848 15.4161L320.373 99.3332L319.27 102.115C318.233 104.695 317.732 106.974 317.732 108.884C317.732 111.398 318.701 113.576 320.674 115.352C322.647 117.129 325.055 118 327.83 118C334.919 118 340.269 113.543 343.881 104.561L355.316 76.3766C360.132 64.4794 365.95 58.5476 372.938 58.5476C378.121 58.5476 380.73 60.4913 380.73 64.3789C380.73 65.887 380.128 68.0988 378.991 71.048L369.595 94.2392C368.023 98.0597 367.254 101.176 367.254 103.656C367.254 107.276 368.725 110.325 371.701 112.805C374.677 115.319 378.356 116.559 382.703 116.559H403.267C408.718 116.559 412.964 115.386 416.007 113.04C419.05 110.728 420.555 107.477 420.555 103.321C420.521 97.2553 416.241 94.2392 407.648 94.2392Z" fill="#344EAD"/>
<path d="M484.088 3.68645C481.513 1.23999 478.37 0 474.591 0C467.435 0 462.62 4.35672 460.179 13.1372L447.305 63.7421C446.57 66.4902 446.169 68.7021 446.169 70.4112C446.169 73.1258 447.105 75.4382 449.011 77.315C450.883 79.2252 453.157 80.1301 455.799 80.1301C461.116 80.1301 465.697 74.9355 469.509 64.5464L485.425 23.2582C487.164 18.5998 488 15.0809 488 12.7015C488 9.14911 486.696 6.13292 484.088 3.68645Z" fill="#344EAD"/>
<path d="M459.042 95.5462C458.875 95.3451 458.741 95.1775 458.574 94.9764C454.929 91.0889 449.947 89.0111 445.5 86.0284C444.396 85.2911 443.326 84.4533 442.357 83.5149C441.119 82.3084 439.715 81.169 439.648 79.2252C439.648 78.5885 439.548 77.9852 439.481 77.315C439.08 77.5161 439.046 77.8512 438.912 78.0858C436.772 82.5095 434.766 87.0003 433.328 91.6586C432.191 95.3786 431.489 99.1656 431.924 102.986C432.492 107.544 433.93 111.8 437.642 114.816C441.855 118.302 448.108 118.938 453.358 116.525C454.862 115.822 456.601 114.816 457.772 113.643C461.751 109.555 463.389 103.623 461.049 98.6964C460.514 97.624 459.811 96.518 459.042 95.5462Z" fill="#344EAD"/>
<path d="M308.804 73.2599C304.724 70.5788 298.17 68.4675 289.376 67.0599C287.637 66.7918 286.065 66.5237 284.561 66.2556L283.324 66.0545C276.268 64.8816 271.854 64.1108 270.818 63.8762C268.945 63.3735 265.835 62.2675 266.237 60.8265C267.139 57.4416 272.423 55.6654 281.852 55.6654H283.056C288.54 55.766 293.957 56.9054 299.207 59.0838C304.055 61.2621 306.396 62.167 307.7 62.5692C308.335 62.7367 308.703 62.8038 308.937 62.8038H309.205C315.291 62.8038 319.103 59.9551 320.641 54.3584C322.38 47.8234 318.634 42.9304 309.405 39.7802C305.527 38.5737 301.079 37.7694 296.197 37.3002C293.756 37.0321 291.215 36.8645 288.54 36.831C282.789 36.697 277.338 37.2667 272.122 38.4061C269.179 39.0429 266.303 39.7802 263.561 40.7856C253.196 44.6731 246.809 50.8395 244.535 59.1173C242.328 67.2945 244.836 73.3604 252.025 77.1139C261.689 82.2079 273.192 81.5712 283.491 84.0846C286.601 84.8554 290.513 86.9333 286.968 90.2176C284.26 92.7646 280.314 92.8986 276.803 92.8986H267.039H266.537H264.932H228.184C228.585 92.1278 229.02 91.3905 229.387 90.5862C232.698 83.3474 234.403 76.1085 234.403 68.8026C234.403 59.0838 231.193 51.1077 224.84 44.8072C218.453 38.5067 210.328 35.3564 200.43 35.3564C187.656 35.3564 176.622 40.1153 167.292 49.5996C157.963 59.0838 153.282 70.3442 153.282 83.3138C153.282 86.7322 153.683 89.9159 154.385 92.8651H148.299H135.158L146.092 65.8199C147.597 62.1 148.366 58.5141 148.366 55.0287C148.366 49.499 146.159 44.8407 141.745 41.0537C137.365 37.2667 131.881 35.3564 125.361 35.3564C115.797 35.3564 107.204 39.3445 99.613 47.3542C95.0319 39.3445 88.1771 35.3564 79.0484 35.3564H79.0149C74.8017 35.3564 71.2238 36.0267 68.3481 37.3002C65.4389 38.6072 61.6604 41.2548 57.0459 45.2093C55.6081 39.6126 51.9298 36.831 46.0112 36.831C46.0112 36.831 46.0112 36.831 45.9778 36.831C40.2598 36.831 35.9797 40.3499 33.104 47.3877L17.7223 85.1236C17.5552 85.3246 17.4548 85.5592 17.2877 85.7268C12.8738 91.3905 -0.535016 93.77 -1.93901e-06 102.584C0.16719 105.366 2.441 109.789 4.58106 111.565C9.26243 115.386 16.853 117.799 23.2062 116.324C23.4069 116.291 23.5741 116.291 23.7413 116.257C24.0756 116.19 24.41 116.056 24.711 115.956C25.4466 115.721 26.1488 115.42 26.851 115.051C27.152 114.883 27.4529 114.749 27.7539 114.548C27.8876 114.448 27.9879 114.414 28.1217 114.347C28.2889 114.213 28.3892 114.079 28.5564 113.945C29.3255 113.375 30.0946 112.738 30.7633 112.035C30.8302 112.001 30.8636 111.968 30.9305 111.901C31.6662 111.13 32.3015 110.325 32.9368 109.454C33.0037 109.32 33.104 109.22 33.1709 109.119C33.5722 108.549 33.9065 107.946 34.2409 107.376C34.9431 106.136 35.5785 104.863 36.2138 103.422C36.2807 103.221 36.4144 103.053 36.4813 102.886L48.4522 73.461C52.7324 62.8038 58.5841 57.4752 65.9405 57.4752C67.8131 57.4752 69.3847 58.0449 70.7556 59.1508C72.1266 60.2903 72.7954 61.5973 72.7954 63.0719C72.7954 64.5129 72.2604 66.4902 71.2572 69.0372L59.721 97.624L58.5841 100.406C57.5809 103.087 57.0459 105.399 57.0459 107.376C57.0459 109.89 58.0491 112.102 60.0219 113.945C62.0282 115.788 64.4024 116.693 67.1777 116.693C67.2112 116.693 67.2112 116.693 67.2112 116.693C74.4004 116.693 79.8175 112.102 83.596 102.953L95.0654 74.6339C97.1385 69.4394 99.8471 65.2502 103.258 62.1C106.668 58.9497 110.113 57.4081 113.59 57.4081C118.071 57.4081 120.345 59.62 120.345 64.0438C120.345 65.2167 120.077 66.4567 119.509 67.8643L113.122 83.5149L109.912 91.357C108.073 95.9148 107.137 99.5677 107.137 102.215C107.137 106.136 108.541 109.253 111.35 111.633C114.125 114.045 117.803 115.252 122.284 115.252H126.063H148.333H184.513H260.652H267.073H282.053C291.616 115.252 299.575 112.336 305.995 106.572C310.609 102.416 313.552 97.4899 314.823 91.8597C314.956 91.424 315.123 91.0219 315.257 90.5862C316.193 87.1343 316.193 84.0846 315.391 81.3701C314.321 78.1863 312.181 75.4382 308.804 73.2599ZM177.926 81.2025C177.926 75.1701 179.999 69.7075 184.179 64.714C188.325 59.7205 192.94 57.2071 197.989 57.2071C201.6 57.2071 204.543 58.4135 206.783 60.793C209.023 63.1724 210.16 66.3226 210.16 70.2437C210.16 77.0134 207.853 83.0122 203.205 88.2738C200.898 90.9213 197.721 92.4294 193.742 92.8986H188.76H188.024C181.303 91.9938 177.926 88.1062 177.926 81.2025Z" fill="#344EAD"/>
</g>
<defs>
<clipPath id="clip0_186_1124">
<rect width="488" height="118" fill="white"/>
</clipPath>
</defs>
</svg>
