<?xml version="1.0" encoding="UTF-8"?>
<svg id="_레이어_1" data-name=" 레이어 1" xmlns="http://www.w3.org/2000/svg" version="1.1" viewBox="0 0 100 100">
  <defs>
    <style>
      .cls-1 {
        fill: none;
      }

      .cls-1, .cls-2, .cls-3, .cls-4 {
        stroke-width: 0px;
      }

      .cls-2 {
        fill: #2f2f2f;
      }

      .cls-3 {
        fill: #4d4239;
      }

      .cls-4 {
        fill: #000;
      }
    </style>
  </defs>
  <g>
    <g>
      <g>
        <path class="cls-3" d="M10.7,55.9l-.2-.7-7.4.3v.7h-.3l-.3-6.2h2.1c0,0,0,.3,0,.3,0,.2-.2.3-.4.4-.4.3-.9.4-1.3.4v2.5c.1,0,3.8-.2,3.8-.2v-1.3c-.4,0-.6-.1-.9-.3-.1,0-.2-.1-.3-.2v-.3h2.6c0-.1,0,.2,0,.2,0,0-.2.2-.3.2-.2.2-.5.3-.8.3v1.3c0,0,3.7-.2,3.7-.2v-2.7c-.6,0-1.1,0-1.5-.3-.2,0-.3-.2-.5-.4v-.3s2.1,0,2.1,0l.3,6.5h-.2,0Z"/>
        <path class="cls-3" d="M10.4,48.4v-.7c0,0-5.1-.8-5.1-.8l-.3.7h-.2s.2-1.1.2-1.1c0-.5.3-.8.6-1,.1,0,.3-.1.5-.2-.2-.1-.3-.3-.5-.5-.3-.4-.4-.8-.3-1.4,0-.4.2-.8.4-1.1.2-.3.5-.5.8-.7.3-.2.6-.2,1-.2l3.7.5.3-.7h.2s-.2,1.5-.2,1.5c-.1.7-.5,1-1.2.9l-3-.5c-.5,0-.9,0-1.2,0s-.4.3-.5.5c0,.3,0,.6.3.8.1.1.3.2.4.3l4.3.6.3-.7h.2s-.5,3.2-.5,3.2h-.2s0,0,0,0Z"/>
        <path class="cls-3" d="M5.8,37.9c-.2,0-.4.1-.6,0s-.4-.2-.5-.4c0-.2-.1-.4,0-.6,0-.2.2-.4.4-.5.2,0,.4-.1.6,0s.4.2.5.4c0,.2.1.4,0,.6,0,.2-.2.4-.4.5ZM13.7,42.6c-.3.2-.6.2-.9.2-.2,0-.4-.2-.5-.4s-.1-.4,0-.7c0,0,0-.1,0-.2,0,0,0,0,0-.1h0c0-.1,1.6.3,1.6.3h0c0-.1,0-.2,0-.2,0-.2,0-.5-.2-.7s-.7-.5-1.4-.7l-5.6-1.7-.4.6h-.2s.4-1.5.4-1.5c.2-.7.6-.9,1.3-.7l4.9,1.5c.4.1.7.3,1,.6.2.3.4.7.5,1.1,0,.4,0,.9-.1,1.4-.2.6-.4.9-.7,1.1h0Z"/>
        <path class="cls-3" d="M12.9,35.8c-.7.3-1.5.2-2.4-.2s-1.4-1-1.7-1.7c-.3-.7-.2-1.5.2-2.4s1-1.4,1.7-1.7,1.5-.2,2.4.2c.9.4,1.4,1,1.7,1.7s.2,1.5-.2,2.4c-.4.9-1,1.4-1.7,1.7ZM14.2,33c-.3-.4-.9-.8-1.9-1.2-.9-.4-1.6-.7-2.1-.6-.5,0-.8.1-.9.4s0,.6.2,1,.9.8,1.9,1.2,1.6.7,2.1.7c.5,0,.8-.2.9-.4s0-.6-.3-1h0Z"/>
        <path class="cls-3" d="M18.4,31.2c-.3,0-.5,0-.8-.2-.2-.2-.4-.4-.4-.6s0-.4.2-.7c0,0,0-.1.1-.1s0,0,0-.1h.1c0-.1,1.3.8,1.3.8.1-.2.1-.4,0-.7s-.3-.6-.6-1.1l-.3-.5-6.3-.7-.5.4h-.1c0-.1.8-1.3.8-1.3.2-.3.5-.5.8-.6.3-.1.6-.1,1,0l3,.4-1.9-2.8-.8.5h-.1c0-.1,1.2-1.9,1.2-1.9h.1c0,.1-.2,1.1-.2,1.1l3.6,5.4c.4.6.6,1,.7,1.4,0,.4,0,.7-.2,1-.2.3-.4.5-.7.5h0Z"/>
        <path class="cls-3" d="M24.5,23.8c-.3,0-.5-.1-.7-.4-.2-.2-.3-.5-.3-.7s.1-.4.3-.6c0,0,.1,0,.1-.1s0,0,.1,0h.1c0,0,1,1.1,1,1.1.1-.2.2-.4.2-.7,0-.3,0-.7-.3-1.2l-.2-.6-5.9-2.3-.6.2h-.1c0-.1,1.1-1.1,1.1-1.1.3-.3.6-.4.9-.4.3,0,.6,0,.9.2l2.9,1.1-1.1-3.2-.9.3h-.1c0-.1,1.6-1.5,1.6-1.5h.1c0,.1-.5,1-.5,1l2.1,6.1c.2.6.3,1.2.3,1.6,0,.4-.2.7-.5.9-.3.2-.5.3-.8.3h0Z"/>
        <path class="cls-3" d="M28,17.3c-.8-.2-1.4-.7-1.9-1.5-.5-.8-.6-1.6-.5-2.4.2-.8.7-1.4,1.5-1.9s1.6-.6,2.4-.4c.8.2,1.4.7,1.9,1.5s.6,1.6.5,2.4c-.2.8-.7,1.4-1.5,1.9s-1.6.6-2.4.4ZM30.5,15.6c0-.5-.3-1.2-.9-2.1s-1-1.5-1.4-1.7c-.4-.3-.7-.3-1-.2s-.4.5-.3,1c0,.5.3,1.2.9,2.1.5.9,1,1.5,1.4,1.7.4.3.7.3,1,.2s.4-.5.3-1Z"/>
        <path class="cls-3" d="M35.3,14c-.4,0-.7-.2-1-.4-.3-.2-.5-.5-.6-.8l-1.3-3.5h-.7c0,0,0,0,0,0l1.4-.5c.7-.2,1.1,0,1.3.6l1,2.8c.2.5.4.8.6,1,.2.2.5.2.7.2.3-.1.5-.3.6-.7,0-.1,0-.3,0-.5l-1.5-4h-.7c0,0,0,0,0,0l3.1-1.1v.2c0,0-.5.4-.5.4l1.9,5.2h-.1c-.5.2-1,.2-1.4,0-.2,0-.3-.2-.4-.3,0,.2,0,.4-.2.6-.2.4-.6.8-1,.9-.4.1-.8.2-1.2.1h0Z"/>
        <path class="cls-3" d="M41.1,12l.7-.3-.9-5h-.7c0,0,0-.2,0-.2l1-.2c.5,0,.8,0,1.1.2.1,0,.2.2.3.4,0-.2.2-.4.3-.5.3-.4.7-.6,1.2-.7.4,0,.7,0,1,.1.2.2.4.4.5.8,0,.3,0,.5-.1.7-.1.2-.3.3-.6.3-.1,0-.2,0-.3,0h-.1l-.3-1.6c-.4,0-.7.3-1,.7-.1.2-.2.4-.3.5l.8,4.2h.7c0,0,0,.2,0,.2l-3.2.6v-.2s0,0,0,0Z"/>
        <path class="cls-3" d="M51.7,10.9c-.3-.3-.6-.6-.8-1.1-.2-.5-.2-1-.2-1.7,0-1,.4-1.7.9-2.2.5-.5,1.1-.7,1.9-.7.4,0,.7.1,1,.3.1,0,.2.2.3.3l.2-2.3-.7-.2v-.2h1.5c.7.2,1,.5,1,1.2l-.5,6.7.7.2v.2h-1.1c-.5-.1-.8-.3-1-.6,0-.1-.2-.3-.2-.5-.1.2-.3.4-.4.5-.4.3-.8.5-1.3.4-.5,0-.8-.2-1.2-.4h0ZM54.2,10.5c0-.1.2-.3.3-.4l.3-4c0,0-.2-.2-.2-.2-.2-.2-.4-.3-.6-.3-.3,0-.6.2-.8.5-.2.4-.4,1.1-.4,2.1,0,1,0,1.7,0,2.1.1.4.3.6.6.6.3,0,.6-.1.8-.4h0Z"/>
        <path class="cls-3" d="M58.6,11.5c-.3-.4-.4-.8-.2-1.2,0-.3.2-.6.4-.8,0-.1.2-.2.3-.3.3,0,.7,0,1.1,0,.8,0,1.6.2,2.2.3v-.3c.3-.8.4-1.4.2-1.8-.1-.4-.4-.6-.8-.7-.2,0-.3,0-.4,0h-.2l-.4,1.7h-.2c-.1,0-.2,0-.3,0-.3,0-.4-.2-.5-.4s-.1-.4,0-.7c0-.3.3-.6.8-.7s1-.1,1.7,0c.6.2,1.1.4,1.4.7s.6.7.7,1.1c.1.4.1.9,0,1.3l-.8,3,.6.4v.2s-1-.3-1-.3c-.5-.1-.8-.4-.9-.7,0-.1-.1-.3-.1-.5-.2.2-.3.3-.5.4-.4.2-.9.3-1.4.2-.7-.2-1.1-.4-1.4-.8h0ZM61.4,11.8c.1,0,.2-.2.4-.4l.4-1.6c-.3,0-.7-.2-1-.2-.2,0-.4,0-.5,0,0,0-.1.2-.2.3-.2.3-.3.5-.3.8-.1.4-.1.8,0,1,0,.2.2.4.4.4.3,0,.6,0,.9-.3Z"/>
        <path class="cls-3" d="M64.8,13.4h.7c0,.1,2-4.6,2-4.6l-.6-.4v-.2c0,0,1.5.6,1.5.6.6.3.8.7.6,1.4l-1.7,4.1.6.4v.2c0,0-3.1-1.3-3.1-1.3v-.2c0,0,0,0,0,0ZM68.3,7.8c0-.2,0-.4,0-.6,0-.2.2-.4.4-.4.2,0,.4,0,.6,0,.2,0,.4.2.4.4,0,.2,0,.4,0,.6,0,.2-.2.4-.4.5-.2,0-.4,0-.6,0-.2,0-.4-.2-.4-.4h0Z"/>
        <path class="cls-3" d="M68.7,15.1l.7.2,3.6-6.5-.5-.5h0c0-.1,1.3.6,1.3.6.6.3.8.8.4,1.4l-3.3,5.9.5.5h0c0,.1-2.8-1.4-2.8-1.4,0,0,0-.1,0-.2Z"/>
        <path class="cls-3" d="M71.3,19.4c0-.3,0-.5.2-.8.2-.2.4-.4.6-.4s.4,0,.7.2c0,0,0,0,.1.1,0,0,0,0,0,0h.1c0,.1-.9,1.4-.9,1.4.2.1.4.1.7,0,.3,0,.6-.2,1.1-.5l.5-.3.9-6.3-.4-.5h0c0-.1,1.2.7,1.2.7.3.2.5.5.6.8,0,.3.1.6,0,1l-.4,3,2.9-1.8-.5-.8h0c0-.1,1.7,1.1,1.7,1.1h0c0,.1-1-.1-1-.1l-5.4,3.4c-.6.4-1.1.6-1.5.6-.4,0-.7,0-1-.2-.3-.2-.4-.5-.5-.7h0Z"/>
        <path class="cls-3" d="M80.2,23.8l.6.4,5.7-4.8-.3-.6h.1c0-.1,1,1,1,1,.4.5.4,1-.1,1.5l-5.1,4.4.3.6h-.1c0,.1-2.1-2.4-2.1-2.4h.1c0-.1,0-.1,0-.1Z"/>
        <path class="cls-3" d="M82.9,27l.5.5,4.2-2.9-.2-.7h.1c0-.1.9,1.1.9,1.1.4.6.3,1.1-.3,1.5l-3.6,2.5.2.7h-.1c0,.1-1.8-2.6-1.8-2.6h.1c0-.1,0-.1,0-.1ZM88.8,24.1c0-.2.2-.4.3-.5s.4-.2.6-.1.4.2.5.4.2.4.1.6c0,.2-.2.4-.3.5s-.4.2-.6.1-.4-.2-.5-.4-.2-.4-.1-.6Z"/>
        <path class="cls-3" d="M85.2,30.5l.5.5,4.4-2.3-.4-.7h.3c0-.1.4.6.4.6l.5-.3c.4-.2.7-.3,1.1-.2s.7.1,1.1.4c.3.2.6.6.8,1,.2.4.3.7.3,1,0,.3,0,.6-.1.8-.1.2-.3.4-.4.5-.2.1-.5.1-.7,0-.2,0-.4-.2-.5-.5,0-.1,0-.2-.1-.3h0c0-.1,1.6-1,1.6-1h0c0-.1,0-.2,0-.2,0,0,0,0,0-.1-.1-.2-.3-.4-.7-.3-.3,0-.8.2-1.4.5l-.5.3.9,1.6h-.3c0,.1-.9-1.5-.9-1.5l-4.4,2.3.2.7h-.2c0,0-1.5-2.8-1.5-2.8h.2c0,0,0-.1,0-.1Z"/>
        <path class="cls-3" d="M88.3,35.5c.3-.7.9-1.2,1.8-1.5.6-.2,1.2-.3,1.7-.2s1,.3,1.3.6c.4.3.7.8.8,1.3.2.5.2,1,.2,1.5,0,.5-.2.9-.5,1.2s-.6.6-1,.7c-.2,0-.3,0-.5.1h-.2c-.2-.3-.3-.6-.5-1-.4-.7-.7-1.5-1-2.3-.8.3-1.4.6-1.7,1-.3.4-.3.8-.2,1.2,0,.3.3.5.5.7.2.2.5.3.7.4.3,0,.5,0,.8,0v.3c-.2,0-.5.1-.8,0-.3,0-.6-.2-.9-.5s-.5-.6-.6-1c-.3-.9-.3-1.8,0-2.5h0ZM91.2,37c0,.1.1.2.2.4,0,0,.1,0,.3,0,.2,0,.4,0,.6-.2.6-.2,1-.5,1.2-.7.2-.3.3-.5.2-.7-.2-.5-1.2-.5-3,.1.2.5.3.8.5,1.1h0Z"/>
        <path class="cls-3" d="M95.8,44.3v-.6h.3v1.3c0,.4,0,.7-.1,1-.2.2-.4.5-.7.6l-2.6,1.4,1.7.6,1.6-.9v-.6h.3v1.3c0,.4,0,.7-.1,1-.2.2-.4.5-.7.6l-2.6,1.4,3.2,1.1.3-.9h.2v2.1c.1,0,0,0,0,0l-.4-.9-5.5-1.9v-.3s3.5-1.9,3.5-1.9l-3.7-1.2v-.3s5.4-3,5.4-3h0Z"/>
        <path class="cls-3" d="M90.7,54.5v.7c0,0,5.2.6,5.2.6l.3-.7h.2s-.2,1.5-.2,1.5c0,.7-.5,1-1.2.9l-4.4-.5-.3.7h-.2s.4-3.2.4-3.2h.2ZM97.1,56.2c.2-.1.4-.2.6-.2s.4.1.6.3c.1.2.2.4.2.6s-.1.4-.3.5c-.2.1-.4.2-.6.2-.2,0-.4-.1-.6-.3s-.2-.4-.2-.6c0-.2.1-.4.3-.5Z"/>
        <path class="cls-3" d="M89.7,60.3c.3-.3.6-.5.9-.7.4-.1.8-.1,1.2,0l3.4.9.2-.8h.3c0,0-.2.9-.2.9h.6c.7.3.9.7.8,1.4l-.2.8-1.6-.4-.4,1.6h-.3c0,0,.4-1.7.4-1.7l-3.4-.9c-.7-.2-1.2-.2-1.5-.1s-.5.3-.5.5c0,.3,0,.5.2.8.2.3.6.5,1,.6v.3c-.6-.1-1-.4-1.3-.7-.2-.4-.3-.8-.2-1.2.1-.5.3-.9.6-1.2h0Z"/>
        <path class="cls-3" d="M88.9,63.9v.7c-.1,0,6.7,3,6.7,3l.4-.6h.2c0,0-.6,1.5-.6,1.5-.3.6-.7.8-1.4.5l-1.7-.7c0,.2.2.3.2.5,0,.4,0,.8-.1,1.2s-.4.7-.7,1c-.3.2-.6.4-1,.5-.3,0-.7,0-1,0l-3.4-1.5-.4.6h-.2c0,0,.6-1.5.6-1.5.3-.6.7-.8,1.4-.5l2.8,1.2c.4.2.8.3,1.1.2.3,0,.5-.2.6-.4.1-.3,0-.6-.1-.9,0-.1-.2-.3-.3-.4l-3.9-1.7-.4.6h-.2c0,0,1.3-3.1,1.3-3.1h.2c0,0,0,0,0,0Z"/>
        <path class="cls-3" d="M83.9,74.1l-.3.6,3.8,3.4.6-.4h.1c0,.1-.7.9-.7.9-.3.3-.7.5-1.1.5s-.3,0-.5,0c0,.2.1.4.1.6,0,.5-.1.9-.4,1.2-.3.3-.6.6-1,.7s-.8.1-1.1,0c0,.2.1.4.2.6,0,.5,0,.9-.4,1.3-.3.3-.6.5-.9.7-.3.1-.7.2-1,.1s-.6-.2-.9-.4l-2.8-2.5-.6.4h-.1c0-.1,1-1.2,1-1.2.5-.5,1-.6,1.5,0l2.2,2c.4.3.7.5,1,.6.3,0,.5,0,.6-.1.2-.2.2-.4.1-.8,0-.2-.1-.3-.2-.5l-3.2-2.9-.6.4h-.1c0-.1,2.2-2.5,2.2-2.5h.1c0,.1-.3.8-.3.8l2.8,2.5c.4.3.7.5,1,.6.3,0,.5,0,.6-.1.2-.2.2-.4.1-.8,0-.2-.1-.3-.2-.5l-3.2-2.9-.6.4h-.1c0-.1,2.2-2.5,2.2-2.5h.1c0,.1,0,.1,0,.1Z"/>
        <path class="cls-3" d="M75.8,83c.8.1,1.4.6,2,1.4s.8,1.6.6,2.3c-.1.8-.6,1.4-1.4,2s-1.6.8-2.3.6c-.8-.1-1.4-.6-2-1.4s-.8-1.6-.6-2.3c.1-.8.6-1.4,1.4-2s1.6-.8,2.3-.6ZM73.4,84.8c0,.5.4,1.1,1,2,.6.8,1.1,1.4,1.5,1.6s.8.3,1,0,.3-.5.3-1c0-.5-.4-1.1-1-2s-1.1-1.4-1.5-1.6c-.4-.2-.8-.3-1,0-.2.2-.3.5-.3,1h0Z"/>
        <path class="cls-3" d="M68.9,86.8c.2,0,.4,0,.6,0,0-.2.1-.4.2-.5,0,0,0-.1.2-.2h.3c0-.1.8,1.7.8,1.7l-.4.2c-.2-.2-.5-.5-.8-.6-.6-.4-1.2-.4-1.8-.2-.3.1-.5.3-.6.5,0,.2,0,.5,0,.7.1.2.3.4.6.4.3,0,.7,0,1.2.1.5,0,.8,0,1.2,0,.3,0,.6.1.9.3.3.2.5.4.6.7.2.4.2.8,0,1.3s-.7.8-1.5,1.2c-.4.2-.8.2-1.2.2-.2,0-.4,0-.5,0,0,.2,0,.3-.2.5,0,.1-.1.2-.2.2h-.3c0,.1-.8-1.7-.8-1.7l.4-.2c.2.2.5.5.8.6.6.4,1.2.5,1.6.2.2,0,.3-.2.4-.4,0-.2,0-.4,0-.6-.1-.3-.3-.4-.7-.5-.3,0-.8-.1-1.3-.1-.5,0-.8,0-1.1,0-.3,0-.6-.1-.8-.3-.3-.1-.4-.3-.6-.6-.5-1,0-1.9,1.7-2.7.4-.2.9-.3,1.3-.3h0Z"/>
        <path class="cls-3" d="M64.4,88.9l-.6.3,1.9,7.2h.7v.2c0,0-1.4.4-1.4.4-.7.2-1.1,0-1.3-.7l-.5-1.8c0,.2-.2.3-.2.4-.3.3-.6.6-1,.7s-.8.1-1.2,0-.7-.2-1-.5-.4-.5-.5-.8l-1-3.6h-.7v-.2s1.4-.4,1.4-.4c.7-.2,1.1,0,1.3.7l.8,2.9c.1.5.3.8.5,1,.2.2.5.3.7.2.3,0,.5-.3.6-.7,0-.2.1-.3.1-.5l-1.1-4.2h-.7v-.2s3.1-.8,3.1-.8v.2c0,0,0,0,0,0Z"/>
        <path class="cls-3" d="M56.4,90.8c.2.2.3.3.3.6,0,.2,0,.4-.2.6-.2.2-.3.3-.6.3-.2,0-.4,0-.6-.2-.2-.2-.3-.3-.3-.6,0-.2,0-.4.2-.6.2-.2.3-.3.6-.3.2,0,.4,0,.6.2Z"/>
      </g>
      <g>
        <path class="cls-3" d="M69.4,54.6c-.2,0-.3,0-.5,0-.4,0-.9,0-1.3,0,0,0-.1,0-.2,0-.1,0,0,.2,0,.1.5-.9.9-1.9,1.2-2.9.2-.7.3-1.4,0-2.1-.3-.6-1-1-1.7-1.1-.7-.1-1.4,0-2.3.3.4-1,.7-1.8,1-2.6.2-.5.1-1-.4-1.4-.5-.4-1-.4-1.5,0-.6.3-.9.8-1.1,1.4-1,2.3-1.9,4.5-2.8,6.8-.4,1-.8,1.9-1.2,2.9-.2.5-.2,1.1.3,1.5.6.4,1.2.3,1.7,0,.5-.3.7-.8.9-1.2.5-1.1.9-2.2,1.3-3.2.2-.6.5-1.1,1.1-1.5.4-.3.9-.4,1.3,0,.4.3-.1,1.3-.3,1.6-.4.8-.6,1.6-.9,2.4-.2.6-.2,1.9.8,1.9,0,0,0,0,.2,0,1.3,0,2.6,0,3.9,0s.4,0,.6,0c.2,0,.2-.2.3-.4.1-.3.2-.5.2-.8,0-.2,0-.7-.1-.9s-.4-.4-.6-.5h0Z"/>
        <path class="cls-3" d="M76.2,44.5c-.8-.2-1.6,0-1.9.9-.8,2.2-1.3,4.4-1.8,6.7-.1.6.1,1.1.7,1.3.6.2,1.1,0,1.4-.5.2-.2.4-.5.5-.8.7-1.7,1.3-3.3,1.9-5,.1-.3.2-.6.2-.8,0-1-.3-1.6-1.1-1.8h0Z"/>
        <path class="cls-3" d="M73.6,54.3c-.4-.2-.8-.4-1.1-.7-.2-.2-.3-.3-.4-.5,0,0,0-.2-.2-.2,0,0-.2.1-.2.2-.5.7-.9,1.7-.9,2.5,0,0,0,.2,0,.2,0,0,0,0,0,.1.2.9,1.1,1.5,1.9,1.4.2,0,.5,0,.7-.1.9-.4,1.3-1.6.7-2.4-.2-.2-.4-.4-.6-.6h0Z"/>
        <path class="cls-3" d="M53.3,50.8c0,0,.1,0,.2,0,1.2-.3,2.4,0,3.5.4.3,0,.6.2,1,.2.5,0,.9-.4,1.1-.8.3-.7,0-1.2-.6-1.6-1.7-1-5.5-.7-7.1.5-.7.6-1.2,1.3-1,2.3.2,1,1,1.3,1.8,1.5.7.2,1.4.3,2.1.4.3,0,1.1.1,1.1.5s-.8.3-1.1.3c-.5,0-1.1,0-1.6,0-1,0-2.1,0-3.1,0s-.2,0,.1-1.1c.6-2.5-.7-4.8-3.1-5.1-1-.1-2.1,0-3,.5-2,1-3,3-2.9,5.2,0,.2,0,.5-.3.5h-1.1c-.3,0,.2-.6.3-.9.3-.8.7-1.5.9-2.3.5-1.6-.5-3-2.2-3.1-1,0-1.9.2-2.7.8-.3.2-.5.3-.9,0-1.3-1.1-2.5-1.1-4-.2-.3.2-.3.3-.7,0-1-.7-1.9-.5-2.5.6-.4.8-.8,1.7-1.1,2.6-.2.6-.4,1.4-.8,1.9-.4.6-1.5.7-1.6,1.5-.2,1.1,1,1.7,1.9,1.8,1,0,1.6-.4,2-1.2.7-1.3,1-2.8,1.7-4,.2-.3.5-.7.8-.9.9-.5,1.5,0,1.2,1-.1.3-.2.6-.4.9-.3.8-1.9,3.4-.7,4,.6.4,1.2.5,1.7,0,.5-.3.8-.8,1-1.4.6-1.4,1-3.1,2.1-4.3.8-.8,2.1-.7,1.6.7-.3.8-.7,1.5-1,2.3-.7,1.9,0,2.8,2,2.9,2.9,0,5,0,7.8,0s6.1.1,8.8,0c1.8,0,3.3-.9,3.8-2.4.5-1.4,0-2.3-1.3-2.8-.2,0-.5-.2-.8-.2-.9-.2-1.8-.3-2.7-.5-.2,0-.6,0-.5-.3,0,0,0-.1.1-.2h0ZM44.8,54.5c-1,0-1.3-.4-1.2-1.3,0-1.2,1-2.3,2-2.4.8,0,1.3.5,1.3,1.3,0,1.3-1,2.3-2.1,2.3Z"/>
      </g>
    </g>
    <rect class="cls-1" x="0" y="0" width="100" height="100"/>
  </g>
  <g>
    <g>
      <path class="cls-4" d="M591.7,507.5l-.3-1-10.2.5-.2,1h-.2l-.4-8.5h2.9c0-.1,0,.4,0,.4-.2.2-.3.4-.6.5-.6.4-1.2.6-1.8.6l.2,3.4,5-.2v-1.8c-.5,0-.9-.2-1.2-.4-.2,0-.3-.2-.5-.3v-.5s3.6-.2,3.6-.2v.5c-.1.1-.3.2-.4.3-.3.2-.7.4-1.1.5v1.8c0,0,5-.2,5-.2l-.2-3.8c-.7,0-1.3-.1-1.9-.4-.2-.1-.5-.3-.6-.5v-.5s2.9-.1,2.9-.1l.4,8.9h-.3Z"/>
      <path class="cls-4" d="M591.4,497.2v-1c0,0-7.1-1-7.1-1l-.4.9h-.2s.2-1.5.2-1.5c0-.6.4-1.1.8-1.4.2-.1.4-.2.6-.3-.2-.2-.5-.4-.6-.6-.4-.5-.5-1.2-.4-1.9,0-.6.3-1.1.6-1.5s.7-.8,1.1-1,.9-.3,1.3-.2l5.1.8.4-.9h.2s-.3,2.1-.3,2.1c-.1,1-.7,1.4-1.6,1.2l-4.1-.6c-.7-.1-1.2,0-1.6.1-.4.2-.6.4-.7.8,0,.4,0,.8.5,1.2.2.2.3.3.6.4l5.8.9.4-.9h.2s-.7,4.5-.7,4.5h-.2s0,0,0,0Z"/>
      <path class="cls-4" d="M585.1,482.7c-.3.1-.5.2-.9,0s-.5-.3-.7-.5c-.1-.3-.2-.5,0-.9,0-.3.3-.5.5-.7.3-.1.5-.2.9,0s.5.3.7.5c.1.3.2.5,0,.9,0,.3-.3.5-.5.7ZM595.9,489.2c-.4.3-.8.4-1.2.2-.3-.1-.6-.3-.7-.6s-.2-.6,0-.9c0,0,0-.2,0-.2s0-.1,0-.2v-.2c0,0,2.2.7,2.2.7h0c0-.2,0-.2,0-.3,0-.3,0-.6-.3-1-.3-.3-.9-.6-1.9-.9l-7.7-2.4-.5.9h-.2c0,0,.6-2.1.6-2.1.3-.9.9-1.2,1.8-1l6.7,2.1c.5.2,1,.5,1.3.9.3.4.6.9.7,1.5,0,.6,0,1.2-.2,1.9-.2.8-.5,1.3-.9,1.6h0Z"/>
      <path class="cls-4" d="M594.8,479.9c-1,.4-2.1.3-3.3-.3-1.2-.6-2-1.4-2.3-2.4-.4-1-.3-2.1.3-3.3.6-1.2,1.3-2,2.3-2.3s2.1-.3,3.3.3c1.2.6,2,1.4,2.3,2.4s.3,2.1-.3,3.3c-.6,1.2-1.3,2-2.3,2.3ZM596.5,476c-.4-.5-1.3-1.1-2.5-1.7-1.3-.6-2.3-.9-2.9-.9-.7,0-1.1.2-1.3.6s0,.8.3,1.4c.4.5,1.3,1.1,2.5,1.7,1.3.6,2.3.9,2.9.9.7,0,1.1-.2,1.3-.6.2-.4,0-.8-.3-1.4Z"/>
      <path class="cls-4" d="M602.4,473.6c-.4,0-.7,0-1.1-.3-.3-.2-.5-.5-.6-.8,0-.3,0-.6.2-.9,0,0,0-.1.2-.2s0-.1.1-.1h.1c0-.1,1.8,1.1,1.8,1.1.1-.3.2-.6,0-1,0-.4-.4-.9-.8-1.5l-.5-.7-8.7-1-.7.5h-.2c0-.1,1.2-1.8,1.2-1.8.3-.5.7-.8,1-.9.4-.1.8-.2,1.3-.1l4.2.5-2.6-3.9-1.1.7h-.2c0-.1,1.7-2.6,1.7-2.6h.2c0,.1-.3,1.5-.3,1.5l4.9,7.4c.5.8.8,1.4.9,2s0,1-.3,1.4c-.3.4-.6.6-1,.7h0Z"/>
      <path class="cls-4" d="M610.7,463.3c-.4,0-.7-.2-1-.5-.3-.3-.4-.6-.4-.9s.2-.6.5-.8c0,0,.1-.1.2-.1,0,0,.1,0,.2-.1h.2c0-.1,1.4,1.5,1.4,1.5.2-.2.3-.5.3-.9,0-.4-.1-.9-.4-1.6l-.3-.8-8.1-3.2-.8.3-.2-.2,1.5-1.3c.4-.4.8-.6,1.2-.6.4,0,.8,0,1.3.2l3.9,1.5-1.5-4.4-1.2.4-.2-.2,2.3-1.9.2.2-.7,1.2,2.9,8.4c.3.9.4,1.6.4,2.1,0,.5-.2,1-.6,1.3s-.7.5-1.1.4h0Z"/>
      <path class="cls-4" d="M615.5,454.4c-1-.3-1.9-1-2.6-2.1s-.9-2.2-.6-3.2,1-1.9,2.1-2.6c1.1-.7,2.2-.9,3.2-.6s1.9,1,2.6,2.1.9,2.2.6,3.2-1,1.9-2.1,2.6-2.2.9-3.2.6ZM619.1,452.1c0-.7-.4-1.6-1.2-2.8s-1.4-2-1.9-2.4c-.6-.4-1-.4-1.4-.2s-.5.7-.5,1.3c0,.7.4,1.6,1.2,2.8.7,1.2,1.4,2,1.9,2.4.6.4,1,.4,1.4.2s.5-.7.5-1.3Z"/>
      <path class="cls-4" d="M625.6,449.8c-.5,0-1-.2-1.4-.5s-.7-.6-.8-1.1l-1.8-4.8h-1c0,.1,0-.1,0-.1l2-.7c.9-.3,1.5,0,1.8.9l1.4,3.9c.2.6.5,1.1.9,1.3s.7.3,1,.2c.4-.1.6-.5.8-1,0-.2,0-.4.1-.7l-2-5.6h-1c0,.1,0-.1,0-.1l4.2-1.5v.2c0,0-.7.5-.7.5l2.6,7.1h-.2c-.7.3-1.4.3-1.9,0-.2-.1-.4-.3-.6-.5,0,.3-.1.6-.2.9-.3.6-.8,1-1.4,1.3-.6.2-1.1.3-1.6.2h0Z"/>
      <path class="cls-4" d="M633.5,447.1l.9-.4-1.2-6.9h-1c0,0,0-.3,0-.3l1.4-.3c.6-.1,1.1,0,1.6.3.2.1.3.3.5.5.1-.3.3-.5.5-.7.5-.5,1-.8,1.7-1,.6-.1,1,0,1.3.2s.5.5.6,1c0,.4,0,.7-.2.9-.2.2-.4.4-.8.5-.2,0-.3,0-.5,0h-.2l-.4-2.2c-.5.1-1,.4-1.3.9-.2.2-.3.5-.4.7l1,5.8h1c0,0,0,.3,0,.3l-4.4.8v-.2s0,0,0,0Z"/>
      <path class="cls-4" d="M648.2,445.5c-.5-.4-.8-.9-1.1-1.5s-.3-1.4-.3-2.3c0-1.4.5-2.4,1.2-3.1.7-.7,1.6-1,2.6-.9.5,0,1,.2,1.3.4.2,0,.3.2.5.4l.2-3.1-.9-.3v-.2s2.1.2,2.1.2c1,0,1.4.6,1.3,1.5l-.7,9.2.9.3v.2s-1.5-.1-1.5-.1c-.6,0-1.1-.3-1.4-.7-.1-.2-.2-.4-.3-.6-.2.3-.3.5-.6.7-.5.4-1.1.6-1.8.6-.6,0-1.2-.2-1.6-.6h0ZM651.7,445.1c.1-.1.3-.4.4-.6l.4-5.5c-.1-.1-.2-.2-.3-.4-.3-.2-.5-.4-.8-.4-.5,0-.8.2-1.1.7s-.5,1.5-.6,2.9c0,1.4,0,2.3.1,2.9.2.5.5.8.8.9.4,0,.8-.2,1.1-.6h0Z"/>
      <path class="cls-4" d="M657.6,446.4c-.4-.5-.5-1.1-.3-1.7.1-.4.3-.8.6-1.1.1-.2.3-.3.4-.4.5,0,.9,0,1.5,0,1.2.1,2.2.2,3,.4v-.5c.4-1.1.5-2,.3-2.5-.2-.5-.5-.8-1.1-1-.2,0-.4,0-.6,0h-.2s-.6,2.3-.6,2.3h-.2c-.2,0-.3,0-.4,0-.3,0-.6-.3-.8-.5-.2-.3-.2-.6,0-.9.1-.5.5-.8,1-1,.6-.2,1.3-.2,2.3,0,.8.2,1.5.5,2,1,.5.4.8,1,1,1.5s.2,1.2,0,1.9l-1.1,4.2.9.5v.2c0,0-1.5-.4-1.5-.4-.6-.2-1-.5-1.3-1,0-.2-.2-.4-.2-.7-.2.2-.4.4-.7.6-.6.3-1.2.4-1.9.2-.9-.2-1.6-.6-2-1.1h0ZM661.5,446.9c.2-.1.3-.3.5-.5l.6-2.2c-.5-.1-.9-.2-1.4-.3-.3,0-.5,0-.7,0,0,.1-.2.2-.3.4-.2.4-.4.7-.5,1.1-.2.6-.2,1,0,1.4,0,.3.3.5.6.6.4.1.8,0,1.2-.4h0Z"/>
      <path class="cls-4" d="M666.2,449.1h1c0,.1,2.7-6.3,2.7-6.3l-.8-.6v-.2c0,0,2,.8,2,.8.9.4,1.1,1,.8,1.9l-2.4,5.6.8.6v.2c0,0-4.2-1.7-4.2-1.7v-.2c0,0,0,0,0,0ZM670.9,441.3c-.1-.3-.1-.6,0-.9.1-.3.3-.5.6-.6.3-.1.6-.1.9,0,.3.1.5.3.6.6s.1.6,0,.9c-.1.3-.3.5-.6.6-.3.1-.6.1-.9,0-.3-.1-.5-.3-.6-.6Z"/>
      <path class="cls-4" d="M671.6,451.4l1,.2,5-9-.7-.7v-.2c.1,0,1.9,1,1.9,1,.8.5,1,1.1.6,2l-4.5,8.1.7.7v.2c-.1,0-4-2.2-4-2.2v-.2c.1,0,.1,0,.1,0Z"/>
      <path class="cls-4" d="M675.2,457.2c0-.4,0-.7.3-1.1.2-.3.5-.5.8-.6s.6,0,.9.2c0,0,.1.1.2.2,0,0,0,.1.1.1h.2c0,.1-1.3,1.9-1.3,1.9.3.1.6.2,1,0,.4,0,.9-.3,1.5-.7l.7-.5,1.2-8.6-.5-.7v-.2c.1,0,1.8,1.2,1.8,1.2.4.3.7.7.8,1.1.1.4.2.8,0,1.3l-.6,4.2,3.9-2.5-.7-1.1v-.2c.1,0,2.5,1.8,2.5,1.8v.2c-.1,0-1.5-.4-1.5-.4l-7.5,4.7c-.8.5-1.5.8-2,.9s-1,0-1.4-.3-.6-.6-.7-1h0Z"/>
      <path class="cls-4" d="M687.4,463.4l.8.6,7.8-6.7-.4-.9.2-.2,1.3,1.6c.6.7.6,1.4-.2,2l-7,6,.4.9-.2.2-2.9-3.4.2-.2h0Z"/>
      <path class="cls-4" d="M691.1,467.8l.7.6,5.8-4-.3-.9h.2c0-.1,1.2,1.6,1.2,1.6.5.8.4,1.5-.4,2l-5,3.5.3.9h-.2c0,.1-2.5-3.5-2.5-3.5h.2c0-.1,0-.1,0-.1ZM699.2,463.8c0-.3.2-.5.5-.7s.5-.2.8-.2c.3,0,.5.2.7.5.2.3.2.5.2.8s-.2.5-.5.7-.5.2-.8.2-.5-.2-.7-.5-.2-.5-.2-.8Z"/>
      <path class="cls-4" d="M694.3,472.5l.7.7,6-3.2-.5-1,.3-.2.5,1,.7-.4c.5-.3,1-.4,1.5-.4s1,.2,1.5.5c.5.3.8.8,1.2,1.4.3.5.4,1,.5,1.4,0,.4,0,.8-.2,1.1-.1.3-.3.5-.6.7-.3.2-.6.2-.9.1-.3,0-.5-.3-.7-.6,0-.1-.1-.3-.2-.4v-.2s2.1-1.2,2.1-1.2h0c0-.1,0-.2,0-.3,0,0,0-.1,0-.2-.2-.3-.5-.5-.9-.5-.4,0-1.1.2-2,.7l-.7.4,1.2,2.3-.3.2-1.2-2.3-6,3.2.2,1h-.2c0,.1-2.1-3.9-2.1-3.9h.2c0-.1,0-.1,0-.1Z"/>
      <path class="cls-4" d="M698.5,479.5c.5-1,1.3-1.7,2.5-2.1.8-.3,1.6-.4,2.3-.3.7.1,1.3.4,1.8.8.5.4.9,1,1.2,1.8s.3,1.4.3,2c0,.6-.3,1.2-.6,1.7-.3.5-.8.8-1.4,1-.2,0-.5.1-.7.2h-.3c-.2-.4-.5-.8-.7-1.3-.5-1-1-2-1.4-3.1-1.2.4-1.9.9-2.3,1.4s-.5,1-.3,1.6c.1.4.4.7.7,1s.7.5,1,.5c.4,0,.7,0,1,0v.4c-.3.1-.7.2-1.2,0-.5-.1-.9-.4-1.2-.7-.4-.4-.7-.8-.9-1.4-.5-1.3-.5-2.4,0-3.4h0ZM702.5,481.5c0,.2.2.3.3.5,0,0,.2,0,.4,0,.3,0,.5-.1.8-.2.8-.3,1.4-.6,1.7-1,.3-.4.4-.7.3-1-.3-.8-1.6-.7-4.1.2.2.6.4,1.2.6,1.5h0Z"/>
      <path class="cls-4" d="M708.8,491.5l.2-.8h.2v1.8c.1.6,0,1-.2,1.4-.2.3-.5.6-1,.9l-3.6,2,2.4.8,2.2-1.2.2-.8h.2v1.8c.1.6,0,1-.2,1.4-.2.3-.5.6-1,.9l-3.6,2,4.4,1.5.4-1.2h.2l.2,2.9h-.2l-.5-1.2-7.6-2.6v-.5s4.8-2.6,4.8-2.6l-5-1.7v-.5s7.4-4.1,7.4-4.1h0Z"/>
      <path class="cls-4" d="M701.8,505.5v1c.1,0,7.1.9,7.1.9l.3-.9h.2s-.2,2.1-.2,2.1c-.1,1-.7,1.4-1.6,1.2l-6-.7-.4.9h-.2s.5-4.5.5-4.5h.2s0,0,0,0ZM710.6,507.9c.2-.2.5-.3.8-.2.3,0,.6.2.8.4.2.2.3.5.2.8s-.2.6-.4.8c-.2.2-.5.3-.8.2-.3,0-.6-.2-.8-.4-.2-.2-.3-.5-.2-.8,0-.3.2-.6.4-.8h0Z"/>
      <path class="cls-4" d="M700.4,513.5c.4-.4.8-.7,1.3-.9.5-.2,1-.2,1.6,0l4.7,1.2.3-1.1h.4c0,0-.3,1.2-.3,1.2l.8.2c.9.2,1.3.8,1,1.8l-.3,1.1-2.2-.5-.5,2.2h-.4c0,0,.5-2.3.5-2.3l-4.7-1.2c-1-.2-1.6-.3-2-.2s-.7.4-.7.7c0,.4,0,.7.3,1.1.3.4.8.6,1.4.8v.4c-.9-.2-1.4-.5-1.7-1s-.4-1-.2-1.7c.2-.7.4-1.2.8-1.7h0Z"/>
      <path class="cls-4" d="M699.3,518.5l-.2,1,9.4,4.1.6-.8h.2c0,0-.8,2-.8,2-.4.9-1,1.1-1.9.8l-2.3-1c.1.2.2.5.3.7.1.6,0,1.1-.2,1.7s-.6,1-1,1.3c-.4.3-.9.5-1.3.6s-.9,0-1.3-.1l-4.7-2-.6.8h-.2c0,0,.8-2,.8-2,.4-.9,1-1.1,1.9-.8l3.8,1.7c.6.3,1.1.4,1.6.3.4,0,.7-.3.8-.6.2-.4.1-.8-.2-1.2-.1-.2-.3-.4-.5-.6l-5.4-2.4-.6.8h-.2c0,0,1.8-4.2,1.8-4.2h.2c0,0,0,0,0,0Z"/>
      <path class="cls-4" d="M692.5,532.6l-.5.9,5.2,4.7.8-.5.2.2-1,1.1c-.4.5-.9.7-1.5.7s-.4,0-.7-.1c.1.3.2.6.2.9,0,.7-.2,1.2-.6,1.7-.4.5-.9.8-1.4.9s-1,.2-1.5,0c.1.3.2.6.2.9,0,.7-.1,1.3-.5,1.7-.4.4-.8.7-1.3.9-.5.2-1,.2-1.4.1-.5,0-.9-.3-1.2-.6l-3.8-3.4-.8.5-.2-.2,1.4-1.5c.6-.7,1.3-.8,2-.1l3.1,2.8c.5.5,1,.7,1.4.8.4,0,.7,0,.9-.2.2-.2.3-.6.2-1.1,0-.2-.2-.5-.2-.7l-4.4-4-.8.5-.2-.2,3-3.3.2.2-.5.9,3.8,3.4c.5.5,1,.7,1.4.8s.7,0,.9-.2c.2-.2.3-.6.2-1.1,0-.2-.2-.5-.2-.7l-4.4-4-.8.5-.2-.2,3-3.3.2.2h0Z"/>
      <path class="cls-4" d="M681.4,544.8c1,.2,2,.8,2.7,1.9s1,2.2.9,3.2-.8,2-1.9,2.7-2.2,1-3.2.9-2-.8-2.7-1.9-1-2.2-.9-3.2.8-2,1.9-2.7,2.2-1,3.2-.9h0ZM678,547.3c0,.7.6,1.6,1.4,2.7.8,1.2,1.5,1.9,2.1,2.2s1,.4,1.4.1.5-.7.4-1.3c0-.7-.6-1.6-1.4-2.7s-1.5-1.9-2.1-2.2c-.6-.3-1-.4-1.4-.1-.3.2-.5.7-.4,1.3Z"/>
      <path class="cls-4" d="M671.8,550c.3,0,.5,0,.8.1,0-.3.1-.5.3-.7,0,0,.1-.2.2-.3l.4-.2,1.2,2.5-.6.3c-.3-.3-.7-.6-1.1-.9-.9-.5-1.7-.6-2.4-.2-.4.2-.7.4-.8.7-.1.3,0,.6,0,1,.2.3.4.5.8.6.4,0,1,.1,1.7.2.6,0,1.2,0,1.6,0s.8.2,1.2.4c.4.2.7.5.9,1,.3.6.2,1.2,0,1.8s-1,1.1-2,1.6c-.5.2-1,.3-1.6.3-.3,0-.5,0-.7-.1,0,.2-.1.5-.3.7-.1.2-.2.3-.2.3l-.4.2-1.2-2.5.6-.3c.3.3.7.6,1.1.9.8.5,1.6.6,2.2.3.3-.1.4-.3.5-.6,0-.3,0-.6,0-.8-.2-.4-.5-.6-.9-.7-.4,0-1-.2-1.8-.2-.6,0-1.2,0-1.5-.1-.4,0-.8-.2-1.1-.4-.3-.2-.6-.5-.8-.9-.7-1.4.1-2.6,2.3-3.7.6-.3,1.2-.4,1.8-.4h0Z"/>
      <path class="cls-4" d="M665.6,552.9l-.9.5,2.7,9.9h1s0,.2,0,.2l-2,.5c-.9.2-1.5,0-1.8-1l-.7-2.5c0,.2-.2.5-.3.6-.3.5-.8.8-1.4.9-.6.2-1.1.2-1.7,0s-1-.3-1.3-.7-.6-.7-.7-1.1l-1.3-5h-1s0-.2,0-.2l2-.5c.9-.2,1.5,0,1.8,1l1.1,4c.2.7.4,1.1.8,1.4.3.3.6.4,1,.3.4-.1.7-.4.9-.9,0-.2.1-.5.2-.7l-1.5-5.7h-1s0-.2,0-.2l4.3-1.2v.2c0,0,0,0,0,0Z"/>
      <path class="cls-4" d="M654.6,555.5c.3.2.4.5.5.8,0,.3,0,.6-.3.9s-.5.4-.8.5c-.3,0-.6,0-.9-.3s-.4-.5-.5-.8c0-.3,0-.6.3-.9s.5-.4.8-.5c.3,0,.6,0,.9.3Z"/>
    </g>
    <g>
      <path class="cls-2" d="M672.5,505.7c-.2,0-.4,0-.6,0-.6,0-1.2,0-1.8,0,0,0-.2,0-.2,0-.2,0,0,.3,0,.2.7-1.3,1.3-2.6,1.7-4,.3-1,.5-2,0-2.9-.5-.9-1.4-1.4-2.3-1.6-1-.2-2,0-3.2.4.5-1.3,1-2.5,1.4-3.5.3-.8.2-1.4-.5-1.9-.7-.5-1.4-.5-2.1-.1-.8.4-1.2,1.1-1.6,2-1.3,3.1-2.6,6.3-3.9,9.4-.5,1.3-1.1,2.6-1.6,4-.3.7-.3,1.5.4,2.1.8.5,1.6.4,2.4,0,.6-.4,1-1,1.3-1.7.6-1.5,1.2-3,1.9-4.5.3-.8.7-1.5,1.5-2,.5-.4,1.2-.5,1.8-.1.6.4-.2,1.8-.4,2.2-.5,1.1-.8,2.2-1.2,3.3-.3.9-.2,2.6,1,2.6,0,0,.1,0,.2,0,1.8,0,3.6,0,5.4,0s.5,0,.8-.1c.2-.1.3-.3.5-.5.2-.4.3-.8.3-1.2,0-.3,0-1-.2-1.2-.2-.2-.5-.6-.8-.6h0s0,0,0,0Z"/>
      <path class="cls-2" d="M681.9,491.8c-1.2-.3-2.2,0-2.7,1.2-1.1,3-1.8,6.1-2.4,9.2-.2.8.2,1.5,1,1.8.8.4,1.5-.1,2-.7.3-.3.5-.7.7-1.2.9-2.3,1.8-4.6,2.7-6.9.2-.4.2-.9.3-1,0-1.4-.4-2.2-1.5-2.5h0Z"/>
      <path class="cls-2" d="M678.3,505.2c-.5-.3-1.1-.5-1.5-.9-.2-.2-.4-.5-.5-.8,0,0-.1-.3-.2-.3-.1,0-.2.2-.3.2-.7,1-1.2,2.3-1.2,3.5,0,.1,0,.2,0,.3,0,0,0,.1,0,.2.3,1.2,1.5,2,2.7,2s.6,0,.9-.2c1.2-.5,1.8-2.2,1-3.3-.2-.3-.5-.6-.9-.8h0s0,0,0,0Z"/>
      <path class="cls-2" d="M650.3,500.4c0,0,.2,0,.3-.1,1.7-.4,3.2,0,4.8.6.4.1.9.4,1.3.3.7,0,1.3-.5,1.5-1.2.4-1,0-1.7-.9-2.2-2.4-1.4-7.6-1-9.7.7-1,.8-1.6,1.9-1.4,3.2.2,1.4,1.3,1.8,2.5,2.1.9.2,2,.4,2.9.5.4,0,1.5.2,1.5.7,0,.5-1.2.4-1.6.4-.7,0-1.5,0-2.2,0-1.4,0-2.9,0-4.3,0s-.3.1.2-1.6c.8-3.5-1-6.6-4.2-7-1.4-.2-2.9.1-4.2.7-2.7,1.4-4,4.1-4,7.1,0,.3,0,.7-.4.7h-1.6c-.4,0,.3-.9.4-1.2.4-1,.9-2,1.2-3.1.7-2.2-.7-4.1-3-4.3-1.3-.1-2.6.2-3.7,1-.4.3-.7.5-1.3,0-1.8-1.5-3.4-1.5-5.5-.3-.4.2-.5.4-.9,0-1.3-1-2.7-.7-3.4.8-.6,1.2-1,2.4-1.5,3.6-.3.9-.5,1.9-1.1,2.6-.6.8-2,1-2.2,2.1-.3,1.5,1.4,2.4,2.6,2.5,1.3.1,2.2-.5,2.8-1.7.9-1.8,1.3-3.8,2.4-5.6.3-.5.6-1,1.1-1.2,1.2-.7,2,.1,1.6,1.3-.1.4-.3.8-.5,1.2-.4,1-2.6,4.6-1,5.6.8.5,1.6.6,2.4.1.7-.4,1.1-1.2,1.4-1.9.8-2,1.4-4.3,2.9-5.9,1-1.1,2.9-.9,2.2.9-.4,1.1-.9,2.1-1.3,3.2-1,2.6-.1,3.9,2.7,3.9,3.9,0,6.8,0,10.8,0s8.4.2,12.1,0c2.5-.1,4.5-1.3,5.2-3.3.7-1.9.1-3.1-1.8-3.8-.3-.1-.7-.2-1-.3-1.2-.3-2.5-.4-3.7-.6-.2,0-.8-.1-.8-.5,0-.1,0-.2.2-.2h0ZM638.7,505.5c-1.3,0-1.7-.5-1.7-1.8,0-1.6,1.4-3.2,2.8-3.3,1.1,0,1.8.7,1.8,1.9,0,1.8-1.3,3.1-2.9,3.1h0Z"/>
    </g>
  </g>
</svg>