<?xml version="1.0" encoding="UTF-8"?>
<svg id="_레이어_1" data-name="레이어 1" xmlns="http://www.w3.org/2000/svg" version="1.1" viewBox="0 0 234 66">
  <defs>
    <style>
      .cls-1 {
        fill: #746661;
        stroke-width: 0px;
      }
    </style>
  </defs>
  <path class="cls-1" d="M35.6,44.3c-1.5,0-2.9-.3-4.3-1-.6-.3-1.1-.7-1.5-1.1-.3.5-.7.9-1.1,1.3-.4.3-.6.4-.6.4h-.8v-6.1h1.3c.3,1,.8,2,1.3,2.8,1.3,1.9,3,2.8,5.1,2.8s2.2-.4,2.9-1.1c.7-.7,1.1-1.7,1.1-2.9s-.2-1.3-.6-1.9c-.4-.6-.9-1-1.5-1.5-.6-.4-1.5-1-2.6-1.6-1.4-.8-2.5-1.5-3.4-2.1-.9-.6-1.6-1.4-2.2-2.4-.6-1-.9-2.1-.9-3.5s.3-2,.9-2.8c.6-.9,1.5-1.5,2.7-2,1.2-.5,2.6-.8,4.3-.8s2.5.4,3.7,1.1c.5.3.9.6,1.4,1,.4-.6.7-1,1.1-1.3.4-.3.6-.4.6-.4h.8v6.1h-1.3c-.3-1-.7-2-1.2-2.8-.5-.8-1.2-1.5-1.9-2-.7-.5-1.6-.8-2.6-.8s-1.5.3-2.1,1c-.6.7-.9,1.5-.9,2.5s.2,1.5.7,2.1c.5.6,1,1.2,1.7,1.6.7.5,1.6,1,2.8,1.7,1.3.8,2.4,1.5,3.3,2,.8.6,1.5,1.3,2.1,2.2.6.9.9,1.9.9,3s-.3,2.2-1,3.2c-.7.9-1.7,1.7-3,2.2-1.3.6-2.9.8-4.8.8ZM46.5,43.4l1.9-.5v-20.5l-1.9-.5v-.5h4.2c1.9,0,2.9,1,2.9,2.9v5.1c.3-.4.7-.8,1-1,.9-.7,2-1.1,3.2-1.1s2.3.3,3.2.8c1,.5,1.7,1.1,2.2,2,.5.8.8,1.7.8,2.6v10.2l1.9.5v.5h-4.2c-1.9,0-2.9-1-2.9-2.9v-8.3c0-1.3-.2-2.4-.7-3.1-.5-.7-1-1.1-1.7-1.1s-1.5.4-2.2,1.3c-.3.4-.5.8-.7,1.3v11.8l1.9.5v.5h-9v-.5ZM76.3,44.3c-2.6,0-4.7-.7-6.2-2.2-1.5-1.5-2.2-3.6-2.2-6.2s.7-4.7,2.2-6.2c1.5-1.5,3.6-2.3,6.2-2.3s4.7.8,6.2,2.3c1.5,1.5,2.3,3.6,2.3,6.2s-.8,4.7-2.3,6.2c-1.5,1.5-3.6,2.2-6.2,2.2ZM76.3,43.7c.9,0,1.6-.6,2.1-1.8.6-1.2.9-3.2.9-6s-.3-4.9-.9-6c-.6-1.2-1.3-1.8-2.1-1.8s-1.6.6-2.2,1.8c-.6,1.2-.9,3.2-.9,6s.3,4.9.9,6c.6,1.2,1.3,1.8,2.2,1.8ZM87,28.8l-1.6-.5v-.5h3.7c1.1,0,2,.2,2.7.7.7.5,1.2,1.1,1.6,2l3.5,7.4,1.8-4.7-2.1-4.4-1.6-.5v-.5h3.7c1.1,0,2,.2,2.7.7.7.5,1.2,1.1,1.6,2l3.5,7.4,3.4-8.6-2.4-1v-.5h5.9v.5l-2.6,1-5.9,14.9h-1l-4.7-9.9-3.9,9.9h-1l-7.4-15.4ZM123,43.4l1.9-.5v-14.1l-1.9-.5v-.5h2.9c1.3,0,2.2.4,3,1.2.3.3.5.7.7,1.2.3-.6.7-1.1,1-1.4,1-1,2.1-1.4,3.3-1.4s2.3.3,3.3.8c.9.5,1.7,1.3,2.2,2.2.3-.6.7-1.1,1-1.5,1-1,2.1-1.5,3.3-1.5s2.1.2,3,.7c.9.5,1.6,1.1,2.1,1.9.5.8.8,1.7.8,2.7v10.2l1.9.5v.5h-4.2c-1.9,0-2.9-1-2.9-2.9v-8.3c0-1.4-.2-2.4-.6-3.1-.4-.7-.9-1.1-1.4-1.1s-1.2.4-1.9,1.3c-.3.4-.5.8-.7,1.3v11.8l1.9.5v.5h-9v-.5l1.9-.5v-10.2c0-1.4-.2-2.4-.6-3.1-.4-.7-.9-1.1-1.4-1.1s-1.2.4-1.9,1.3c-.3.4-.5.8-.7,1.3v11.8l1.9.5v.5h-9v-.5ZM161.9,44.3c-2.6,0-4.7-.7-6.2-2.2-1.5-1.5-2.2-3.6-2.2-6.2s.7-4.7,2.2-6.2c1.5-1.5,3.6-2.3,6.2-2.3s4.7.8,6.2,2.3c1.5,1.5,2.3,3.6,2.3,6.2s-.8,4.7-2.3,6.2c-1.5,1.5-3.6,2.2-6.2,2.2ZM161.9,43.7c.9,0,1.6-.6,2.1-1.8.6-1.2.9-3.2.9-6s-.3-4.9-.9-6c-.6-1.2-1.3-1.8-2.1-1.8s-1.6.6-2.2,1.8c-.6,1.2-.9,3.2-.9,6s.3,4.9.9,6c.6,1.2,1.3,1.8,2.2,1.8ZM172.9,43.4l1.9-.5v-14.1l-1.9-.5v-.5h2.9c1.3,0,2.3.4,3,1.2.3.3.5.7.7,1.2.3-.5.7-.9,1.2-1.3,1.1-.9,2.3-1.3,3.6-1.3s2,.3,2.5.8c.6.5.9,1.3.9,2.2s-.2,1.3-.7,1.8c-.4.4-1,.6-1.7.6s-.6,0-.9,0h-.4v-4.6c-1.1,0-2.1.4-3,1.3-.4.4-.8.9-1,1.3v11.8l1.9.5v.5h-9v-.5ZM197.7,44.3c-2.7,0-4.9-.7-6.4-2.2-1.5-1.5-2.3-3.6-2.3-6.2s.3-3.2,1-4.5c.7-1.3,1.6-2.3,2.8-2.9,1.2-.7,2.6-1,4.1-1s2.9.3,4,.9c1.2.6,2.1,1.4,2.7,2.3.6,1,1,2,1,3.2s0,1-.2,1.4l-.2.5c-.9.2-1.9.4-3,.5-2.2.3-4.5.5-6.8.5,0,2.5.3,4.2,1,5.3.7,1,1.6,1.6,2.8,1.6s1.6-.2,2.3-.6c.7-.4,1.3-.9,1.7-1.6.4-.7.6-1.3.6-2h.8c0,.9-.3,1.7-.8,2.4-.5.8-1.2,1.4-2.1,1.9-.9.4-2,.7-3.2.7ZM194.5,35.8c1.4,0,2.5,0,3.3-.2.4,0,.7,0,1.2-.2,0-.1,0-.3.2-.7.1-.5.2-1.1.2-1.7,0-1.8-.2-3.1-.7-3.9-.5-.8-1-1.2-1.7-1.2-1.6,0-2.4,2.6-2.4,7.8Z"/>
</svg>