<svg width="637" height="94" viewBox="0 0 637 94" fill="none" xmlns="http://www.w3.org/2000/svg">
<path d="M44.28 93.92C30.6267 93.92 19.96 89.8667 12.28 81.76C4.6 73.6533 0.76 62.1333 0.76 47.2C0.76 37.3867 2.424 28.9813 5.752 21.984C9.16533 14.9013 13.9013 9.56799 19.96 5.98399C26.104 2.31466 33.1867 0.479996 41.208 0.479996C46.072 0.479996 50.9787 1.888 55.928 4.70399C57.8053 5.728 59.6827 7.09333 61.56 8.8C63.0107 6.58133 64.504 4.83199 66.04 3.55199C67.576 2.44266 68.4293 1.84533 68.6 1.75999H71.8V26.08H66.68C65.5707 21.984 63.9067 18.272 61.688 14.944C59.64 11.7013 57.08 9.01333 54.008 6.88C51.0213 4.74666 47.5653 3.67999 43.64 3.67999C37.752 3.67999 32.8453 7.09333 28.92 13.92C25.08 20.7467 23.16 31.84 23.16 47.2C23.16 62.816 25.2507 73.9947 29.432 80.736C33.6987 87.392 39.5013 90.72 46.84 90.72C50.8507 90.72 54.648 89.6107 58.232 87.392C61.9013 85.088 64.8453 82.0587 67.064 78.304C69.368 74.5493 70.52 70.5813 70.52 66.4H73.72C73.72 71.264 72.3973 75.8293 69.752 80.096C67.192 84.2773 63.6507 87.648 59.128 90.208C54.6907 92.6827 49.7413 93.92 44.28 93.92ZM116.04 93.92C105.459 93.92 97.1387 90.9333 91.08 84.96C85.1067 78.9013 82.12 70.5813 82.12 60C82.12 49.4187 85.1067 41.1413 91.08 35.168C97.1387 29.1093 105.459 26.08 116.04 26.08C126.621 26.08 134.899 29.1093 140.872 35.168C146.931 41.1413 149.96 49.4187 149.96 60C149.96 70.5813 146.931 78.9013 140.872 84.96C134.899 90.9333 126.621 93.92 116.04 93.92ZM116.04 91.36C119.453 91.36 122.312 88.9707 124.616 84.192C127.005 79.4133 128.2 71.3493 128.2 60C128.2 48.6507 127.005 40.5867 124.616 35.808C122.312 31.0293 119.453 28.64 116.04 28.64C112.627 28.64 109.725 31.0293 107.336 35.808C105.032 40.5867 103.88 48.6507 103.88 60C103.88 71.3493 105.032 79.4133 107.336 84.192C109.725 88.9707 112.627 91.36 116.04 91.36ZM194.165 93.92C183.584 93.92 175.264 90.9333 169.205 84.96C163.232 78.9013 160.245 70.5813 160.245 60C160.245 49.4187 163.232 41.1413 169.205 35.168C175.264 29.1093 183.584 26.08 194.165 26.08C204.746 26.08 213.024 29.1093 218.997 35.168C225.056 41.1413 228.085 49.4187 228.085 60C228.085 70.5813 225.056 78.9013 218.997 84.96C213.024 90.9333 204.746 93.92 194.165 93.92ZM194.165 91.36C197.578 91.36 200.437 88.9707 202.741 84.192C205.13 79.4133 206.325 71.3493 206.325 60C206.325 48.6507 205.13 40.5867 202.741 35.808C200.437 31.0293 197.578 28.64 194.165 28.64C190.752 28.64 187.85 31.0293 185.461 35.808C183.157 40.5867 182.005 48.6507 182.005 60C182.005 71.3493 183.157 79.4133 185.461 84.192C187.85 88.9707 190.752 91.36 194.165 91.36ZM238.37 90.08L246.05 88.16V6.24L238.37 4.31999V2.39999H255.01C262.69 2.39999 266.53 6.24 266.53 13.92V58.72L290.21 33.76L280.61 29.92V28H304.93V29.92L294.69 33.76L279.97 49.12L304.93 88.16L311.33 90.08V92H294.69C290.594 92 287.266 91.104 284.706 89.312C282.146 87.52 279.714 84.7893 277.41 81.12L266.53 63.84V88.16L274.21 90.08V92H238.37V90.08ZM349.715 31.84L343.315 29.92V28H358.035C362.558 28 366.142 28.9387 368.787 30.816C371.432 32.6933 373.608 35.3813 375.315 38.88L389.395 68.32L396.691 49.632L388.115 31.84L381.715 29.92V28H396.435C400.958 28 404.542 28.9387 407.187 30.816C409.832 32.6933 412.008 35.3813 413.715 38.88L427.795 68.32L441.235 33.76L431.635 29.92V28H455.315V29.92L445.075 33.76L421.395 93.28H417.555L398.611 53.856L382.995 93.28H379.155L349.715 31.84ZM457.87 90.08L465.55 88.16V31.84L457.87 29.92V28H474.51C482.19 28 486.03 31.84 486.03 39.52V88.16L493.71 90.08V92H457.87V90.08ZM474.51 20.32C471.95 20.32 469.817 19.4667 468.11 17.76C466.403 16.0533 465.55 13.92 465.55 11.36C465.55 8.8 466.403 6.66666 468.11 4.96C469.817 3.25333 471.95 2.39999 474.51 2.39999C477.07 2.39999 479.203 3.25333 480.91 4.96C482.617 6.66666 483.47 8.8 483.47 11.36C483.47 13.92 482.617 16.0533 480.91 17.76C479.203 19.4667 477.07 20.32 474.51 20.32ZM534.65 93.92C529.018 93.92 524.111 92.896 519.93 90.848C515.834 88.8 512.677 85.984 510.458 82.4C508.239 78.816 507.13 74.7627 507.13 70.24V31.2H498.17V28H507.13V21.6C507.13 13.92 510.97 10.08 518.65 10.08H527.61V28H545.53V31.2H527.61V70.24C527.61 78.0907 528.421 83.4667 530.042 86.368C531.663 89.2693 534.053 90.72 537.21 90.72C540.282 90.72 542.97 89.2267 545.274 86.24C547.578 83.2533 548.73 79.2 548.73 74.08H551.93C551.93 80.3947 550.351 85.3013 547.194 88.8C544.037 92.2133 539.855 93.92 534.65 93.92ZM558.995 90.08L566.675 88.16V6.24L558.995 4.31999V2.39999H575.635C583.315 2.39999 587.155 6.24 587.155 13.92V34.4C588.435 32.6933 589.758 31.328 591.123 30.304C594.792 27.488 599.016 26.08 603.795 26.08C608.574 26.08 612.84 27.104 616.595 29.152C620.435 31.1147 623.422 33.7173 625.555 36.96C627.688 40.2027 628.755 43.616 628.755 47.2V88.16L636.435 90.08V92H619.795C612.115 92 608.275 88.16 608.275 80.48V47.2C608.275 41.824 607.294 37.728 605.331 34.912C603.454 32.0107 601.235 30.56 598.675 30.56C595.432 30.56 592.531 32.2667 589.971 35.68C588.862 37.1307 587.923 38.8373 587.155 40.8V88.16L594.835 90.08V92H558.995V90.08Z" fill="#746661"/>
</svg>
