<svg width="1521" height="42" viewBox="0 0 1521 42" fill="none" xmlns="http://www.w3.org/2000/svg">
<path d="M0.8 41V40.16L4.16 39.32V3.48L0.8 2.64V1.8H16.76V2.64L13.4 3.48V39.32L16.76 40.16V41H0.8ZM36.3469 41.84C33.8829 41.84 31.7362 41.392 29.9069 40.496C28.1149 39.6 26.7335 38.368 25.7629 36.8C24.7922 35.232 24.3069 33.4587 24.3069 31.48V14.4H20.3869V13H24.3069V10.2C24.3069 6.84 25.9869 5.16 29.3469 5.16H33.2669V13H41.1069V14.4H33.2669V31.48C33.2669 34.9147 33.6215 37.2667 34.3309 38.536C35.0402 39.8053 36.0855 40.44 37.4669 40.44C38.8109 40.44 39.9869 39.7867 40.9949 38.48C42.0029 37.1733 42.5069 35.4 42.5069 33.16H43.9069C43.9069 35.9227 43.2162 38.0693 41.8349 39.6C40.4535 41.0933 38.6242 41.84 36.3469 41.84ZM48.6778 14.96C49.4618 14.6987 50.2458 14.2693 51.0298 13.672C52.6351 12.4773 53.6245 10.8533 53.9978 8.8L53.2698 9.248C52.7845 9.50933 52.1871 9.64 51.4778 9.64C50.3578 9.64 49.3685 9.22933 48.5098 8.408C47.6885 7.54933 47.2778 6.56 47.2778 5.44C47.2778 4.32 47.6885 3.34933 48.5098 2.528C49.3685 1.66933 50.3578 1.24 51.4778 1.24C52.7845 1.24 53.8485 1.70666 54.6698 2.64C55.5285 3.536 55.9578 4.74933 55.9578 6.28C55.9578 9.71467 54.8378 12.4027 52.5978 14.344C51.6271 15.24 50.5071 15.912 49.2378 16.36L48.6778 14.96ZM73.8844 41.84C71.5697 41.84 69.4977 41.336 67.6684 40.328C66.7724 39.8427 66.0444 39.32 65.4844 38.76C64.887 39.5813 64.2337 40.216 63.5244 40.664C63.1884 40.888 62.815 41.0933 62.4044 41.28H61.0044V31.76H63.2444C63.7297 33.328 64.439 34.784 65.3724 36.128C67.351 39.0027 69.815 40.44 72.7644 40.44C74.3324 40.44 75.5084 40.0667 76.2924 39.32C77.1137 38.536 77.5244 37.416 77.5244 35.96C77.5244 34.728 76.9644 33.7013 75.8444 32.88C74.7617 32.0213 73.0444 30.976 70.6924 29.744C68.6764 28.736 67.0337 27.84 65.7644 27.056C64.5324 26.2347 63.4684 25.2267 62.5724 24.032C61.7137 22.8 61.2844 21.3627 61.2844 19.72C61.2844 17.48 62.2364 15.6693 64.1404 14.288C66.0817 12.8693 69.0497 12.16 73.0444 12.16C75.023 12.16 76.8524 12.6827 78.5324 13.728C79.3537 14.2133 80.063 14.7173 80.6604 15.24C81.1457 14.568 81.799 13.9333 82.6204 13.336C83.255 12.9627 83.6284 12.7573 83.7404 12.72H85.1404V22.24H82.9004C82.3404 20.6347 81.6497 19.1973 80.8284 17.928C78.9617 15.016 76.7404 13.56 74.1644 13.56C73.1564 13.56 72.2977 13.9333 71.5884 14.68C70.879 15.4267 70.5244 16.36 70.5244 17.48C70.5244 18.8987 71.1217 20.0933 72.3164 21.064C73.511 21.9973 75.3217 23.08 77.7484 24.312C79.727 25.32 81.295 26.216 82.4524 27C83.647 27.7467 84.655 28.68 85.4764 29.8C86.335 30.92 86.7644 32.2267 86.7644 33.72C86.7644 39.1333 82.471 41.84 73.8844 41.84ZM121.222 41.84C118.758 41.84 116.611 41.392 114.782 40.496C112.99 39.6 111.609 38.368 110.638 36.8C109.667 35.232 109.182 33.4587 109.182 31.48V14.4H105.262V13H109.182V10.2C109.182 6.84 110.862 5.16 114.222 5.16H118.142V13H125.982V14.4H118.142V31.48C118.142 34.9147 118.497 37.2667 119.206 38.536C119.915 39.8053 120.961 40.44 122.342 40.44C123.686 40.44 124.862 39.7867 125.87 38.48C126.878 37.1733 127.382 35.4 127.382 33.16H128.782C128.782 35.9227 128.091 38.0693 126.71 39.6C125.329 41.0933 123.499 41.84 121.222 41.84ZM131.873 40.16L135.233 39.32V14.68L131.873 13.84V13H139.153C142.513 13 144.193 14.68 144.193 18.04V39.32L147.553 40.16V41H131.873V40.16ZM139.153 9.64C138.033 9.64 137.099 9.26667 136.353 8.52C135.606 7.77333 135.233 6.84 135.233 5.72C135.233 4.6 135.606 3.66667 136.353 2.92C137.099 2.17333 138.033 1.8 139.153 1.8C140.273 1.8 141.206 2.17333 141.953 2.92C142.699 3.66667 143.073 4.6 143.073 5.72C143.073 6.84 142.699 7.77333 141.953 8.52C141.206 9.26667 140.273 9.64 139.153 9.64ZM150.904 40.16L154.264 39.32V14.68L150.904 13.84V13H155.944C158.147 13 159.883 13.7093 161.152 15.128C161.637 15.688 162.048 16.3787 162.384 17.2C162.944 16.1547 163.541 15.3147 164.176 14.68C165.856 13 167.779 12.16 169.944 12.16C172.109 12.16 174.013 12.6453 175.656 13.616C177.299 14.5493 178.568 15.8373 179.464 17.48C180.024 16.3973 180.621 15.52 181.256 14.848C182.973 13.056 184.896 12.16 187.024 12.16C189.003 12.16 190.776 12.5707 192.344 13.392C193.949 14.2133 195.181 15.3333 196.04 16.752C196.936 18.1707 197.384 19.72 197.384 21.4V39.32L200.744 40.16V41H193.464C190.104 41 188.424 39.32 188.424 35.96V21.4C188.424 18.9733 188.051 17.1627 187.304 15.968C186.557 14.736 185.717 14.12 184.784 14.12C183.701 14.12 182.6 14.8667 181.48 16.36C181.032 17.0693 180.64 17.816 180.304 18.6V39.32L183.664 40.16V41H167.984V40.16L171.344 39.32V21.4C171.344 18.9733 170.971 17.1627 170.224 15.968C169.477 14.736 168.637 14.12 167.704 14.12C166.621 14.12 165.52 14.8667 164.4 16.36C163.952 17.0693 163.56 17.816 163.224 18.6V39.32L166.584 40.16V41H150.904V40.16ZM219.235 41.84C214.456 41.84 210.742 40.5333 208.091 37.92C205.44 35.2693 204.115 31.6293 204.115 27C204.115 23.976 204.694 21.344 205.851 19.104C207.008 16.864 208.614 15.1467 210.667 13.952C212.758 12.7573 215.147 12.16 217.835 12.16C220.523 12.16 222.875 12.664 224.891 13.672C226.944 14.68 228.512 16.0427 229.595 17.76C230.715 19.44 231.275 21.3067 231.275 23.36C231.275 24.2933 231.182 25.096 230.995 25.768L230.715 26.72C229.11 27.056 227.374 27.336 225.507 27.56C221.587 28.12 217.63 28.4 213.635 28.4C213.635 32.7307 214.232 35.8293 215.427 37.696C216.622 39.5253 218.264 40.44 220.355 40.44C221.811 40.44 223.155 40.104 224.387 39.432C225.656 38.7227 226.646 37.808 227.355 36.688C228.102 35.5307 228.475 34.3547 228.475 33.16H229.875C229.875 34.6533 229.427 36.072 228.531 37.416C227.635 38.76 226.384 39.8427 224.779 40.664C223.174 41.448 221.326 41.84 219.235 41.84ZM213.635 27C216.024 27 217.966 26.9067 219.459 26.72C220.094 26.6827 220.766 26.5893 221.475 26.44C221.512 26.2533 221.606 25.8427 221.755 25.208C221.942 24.2747 222.035 23.2853 222.035 22.24C222.035 19.1413 221.624 16.8827 220.803 15.464C219.982 14.008 218.992 13.28 217.835 13.28C215.035 13.28 213.635 17.8533 213.635 27ZM265.706 41.84C263.242 41.84 261.096 41.392 259.266 40.496C257.474 39.6 256.093 38.368 255.122 36.8C254.152 35.232 253.666 33.4587 253.666 31.48V14.4H249.746V13H253.666V10.2C253.666 6.84 255.346 5.16 258.706 5.16H262.626V13H270.466V14.4H262.626V31.48C262.626 34.9147 262.981 37.2667 263.69 38.536C264.4 39.8053 265.445 40.44 266.826 40.44C268.17 40.44 269.346 39.7867 270.354 38.48C271.362 37.1733 271.866 35.4 271.866 33.16H273.266C273.266 35.9227 272.576 38.0693 271.194 39.6C269.813 41.0933 267.984 41.84 265.706 41.84ZM291.197 41.84C286.568 41.84 282.928 40.5333 280.277 37.92C277.664 35.2693 276.357 31.6293 276.357 27C276.357 22.3707 277.664 18.7493 280.277 16.136C282.928 13.4853 286.568 12.16 291.197 12.16C295.827 12.16 299.448 13.4853 302.061 16.136C304.712 18.7493 306.037 22.3707 306.037 27C306.037 31.6293 304.712 35.2693 302.061 37.92C299.448 40.5333 295.827 41.84 291.197 41.84ZM291.197 40.72C292.691 40.72 293.941 39.6747 294.949 37.584C295.995 35.4933 296.517 31.9653 296.517 27C296.517 22.0347 295.995 18.5067 294.949 16.416C293.941 14.3253 292.691 13.28 291.197 13.28C289.704 13.28 288.435 14.3253 287.389 16.416C286.381 18.5067 285.877 22.0347 285.877 27C285.877 31.9653 286.381 35.4933 287.389 37.584C288.435 39.6747 289.704 40.72 291.197 40.72ZM326.232 40.16L329.592 39.32V14.68L326.232 13.84V13H331.272C333.475 13 335.211 13.7093 336.48 15.128C336.966 15.688 337.376 16.3787 337.712 17.2C338.272 16.1547 338.87 15.3147 339.504 14.68C341.184 13 343.107 12.16 345.272 12.16C347.438 12.16 349.342 12.6453 350.984 13.616C352.627 14.5493 353.896 15.8373 354.792 17.48C355.352 16.3973 355.95 15.52 356.584 14.848C358.302 13.056 360.224 12.16 362.352 12.16C364.331 12.16 366.104 12.5707 367.672 13.392C369.278 14.2133 370.51 15.3333 371.368 16.752C372.264 18.1707 372.712 19.72 372.712 21.4V39.32L376.072 40.16V41H368.792C365.432 41 363.752 39.32 363.752 35.96V21.4C363.752 18.9733 363.379 17.1627 362.632 15.968C361.886 14.736 361.046 14.12 360.112 14.12C359.03 14.12 357.928 14.8667 356.808 16.36C356.36 17.0693 355.968 17.816 355.632 18.6V39.32L358.992 40.16V41H343.312V40.16L346.672 39.32V21.4C346.672 18.9733 346.299 17.1627 345.552 15.968C344.806 14.736 343.966 14.12 343.032 14.12C341.95 14.12 340.848 14.8667 339.728 16.36C339.28 17.0693 338.888 17.816 338.552 18.6V39.32L341.912 40.16V41H326.232V40.16ZM394.283 41.84C389.654 41.84 386.014 40.5333 383.363 37.92C380.75 35.2693 379.443 31.6293 379.443 27C379.443 22.3707 380.75 18.7493 383.363 16.136C386.014 13.4853 389.654 12.16 394.283 12.16C398.912 12.16 402.534 13.4853 405.147 16.136C407.798 18.7493 409.123 22.3707 409.123 27C409.123 31.6293 407.798 35.2693 405.147 37.92C402.534 40.5333 398.912 41.84 394.283 41.84ZM394.283 40.72C395.776 40.72 397.027 39.6747 398.035 37.584C399.08 35.4933 399.603 31.9653 399.603 27C399.603 22.0347 399.08 18.5067 398.035 16.416C397.027 14.3253 395.776 13.28 394.283 13.28C392.79 13.28 391.52 14.3253 390.475 16.416C389.467 18.5067 388.963 22.0347 388.963 27C388.963 31.9653 389.467 35.4933 390.475 37.584C391.52 39.6747 392.79 40.72 394.283 40.72ZM426.783 41.84C424.468 41.84 422.396 41.336 420.567 40.328C419.671 39.8427 418.943 39.32 418.383 38.76C417.785 39.5813 417.132 40.216 416.423 40.664C416.087 40.888 415.713 41.0933 415.303 41.28H413.903V31.76H416.143C416.628 33.328 417.337 34.784 418.271 36.128C420.249 39.0027 422.713 40.44 425.663 40.44C427.231 40.44 428.407 40.0667 429.191 39.32C430.012 38.536 430.423 37.416 430.423 35.96C430.423 34.728 429.863 33.7013 428.743 32.88C427.66 32.0213 425.943 30.976 423.591 29.744C421.575 28.736 419.932 27.84 418.663 27.056C417.431 26.2347 416.367 25.2267 415.471 24.032C414.612 22.8 414.183 21.3627 414.183 19.72C414.183 17.48 415.135 15.6693 417.039 14.288C418.98 12.8693 421.948 12.16 425.943 12.16C427.921 12.16 429.751 12.6827 431.431 13.728C432.252 14.2133 432.961 14.7173 433.559 15.24C434.044 14.568 434.697 13.9333 435.519 13.336C436.153 12.9627 436.527 12.7573 436.639 12.72H438.039V22.24H435.799C435.239 20.6347 434.548 19.1973 433.727 17.928C431.86 15.016 429.639 13.56 427.063 13.56C426.055 13.56 425.196 13.9333 424.487 14.68C423.777 15.4267 423.423 16.36 423.423 17.48C423.423 18.8987 424.02 20.0933 425.215 21.064C426.409 21.9973 428.22 23.08 430.647 24.312C432.625 25.32 434.193 26.216 435.351 27C436.545 27.7467 437.553 28.68 438.375 29.8C439.233 30.92 439.663 32.2267 439.663 33.72C439.663 39.1333 435.369 41.84 426.783 41.84ZM443.865 40.16L447.225 39.32V3.48L443.865 2.64V1.8H451.145C454.505 1.8 456.185 3.48 456.185 6.84V15.8C456.745 15.0533 457.324 14.456 457.921 14.008C459.526 12.776 461.374 12.16 463.465 12.16C465.556 12.16 467.422 12.608 469.065 13.504C470.745 14.3627 472.052 15.5013 472.985 16.92C473.918 18.3387 474.385 19.832 474.385 21.4V39.32L477.745 40.16V41H470.465C467.105 41 465.425 39.32 465.425 35.96V21.4C465.425 19.048 464.996 17.256 464.137 16.024C463.316 14.7547 462.345 14.12 461.225 14.12C459.806 14.12 458.537 14.8667 457.417 16.36C456.932 16.9947 456.521 17.7413 456.185 18.6V39.32L459.545 40.16V41H443.865V40.16ZM482.227 7.4C482.227 5.45867 482.731 3.90933 483.739 2.752C484.785 1.55733 486.054 0.959998 487.547 0.959998C489.041 0.959998 490.291 1.55733 491.299 2.752C492.345 3.90933 492.867 5.45867 492.867 7.4L488.387 28.96H486.707L482.227 7.4ZM487.547 41.56C486.427 41.56 485.438 41.1307 484.579 40.272C483.758 39.376 483.347 38.312 483.347 37.08C483.347 35.848 483.758 34.8027 484.579 33.944C485.438 33.048 486.427 32.6 487.547 32.6C488.667 32.6 489.638 33.048 490.459 33.944C491.318 34.8027 491.747 35.848 491.747 37.08C491.747 38.312 491.318 39.376 490.459 40.272C489.638 41.1307 488.667 41.56 487.547 41.56ZM514.698 41V40.16L518.058 39.32V3.48L514.698 2.64V1.8H530.658V2.64L527.298 3.48V39.32L530.658 40.16V41H514.698ZM550.245 41.84C547.781 41.84 545.635 41.392 543.805 40.496C542.013 39.6 540.632 38.368 539.661 36.8C538.691 35.232 538.205 33.4587 538.205 31.48V14.4H534.285V13H538.205V10.2C538.205 6.84 539.885 5.16 543.245 5.16H547.165V13H555.005V14.4H547.165V31.48C547.165 34.9147 547.52 37.2667 548.229 38.536C548.939 39.8053 549.984 40.44 551.365 40.44C552.709 40.44 553.885 39.7867 554.893 38.48C555.901 37.1733 556.405 35.4 556.405 33.16H557.805C557.805 35.9227 557.115 38.0693 555.733 39.6C554.352 41.0933 552.523 41.84 550.245 41.84ZM562.576 14.96C563.36 14.6987 564.144 14.2693 564.928 13.672C566.534 12.4773 567.523 10.8533 567.896 8.8L567.168 9.248C566.683 9.50933 566.086 9.64 565.376 9.64C564.256 9.64 563.267 9.22933 562.408 8.408C561.587 7.54933 561.176 6.56 561.176 5.44C561.176 4.32 561.587 3.34933 562.408 2.528C563.267 1.66933 564.256 1.24 565.376 1.24C566.683 1.24 567.747 1.70666 568.568 2.64C569.427 3.536 569.856 4.74933 569.856 6.28C569.856 9.71467 568.736 12.4027 566.496 14.344C565.526 15.24 564.406 15.912 563.136 16.36L562.576 14.96ZM587.783 41.84C585.468 41.84 583.396 41.336 581.567 40.328C580.671 39.8427 579.943 39.32 579.383 38.76C578.785 39.5813 578.132 40.216 577.423 40.664C577.087 40.888 576.713 41.0933 576.303 41.28H574.903V31.76H577.143C577.628 33.328 578.337 34.784 579.271 36.128C581.249 39.0027 583.713 40.44 586.663 40.44C588.231 40.44 589.407 40.0667 590.191 39.32C591.012 38.536 591.423 37.416 591.423 35.96C591.423 34.728 590.863 33.7013 589.743 32.88C588.66 32.0213 586.943 30.976 584.591 29.744C582.575 28.736 580.932 27.84 579.663 27.056C578.431 26.2347 577.367 25.2267 576.471 24.032C575.612 22.8 575.183 21.3627 575.183 19.72C575.183 17.48 576.135 15.6693 578.039 14.288C579.98 12.8693 582.948 12.16 586.943 12.16C588.921 12.16 590.751 12.6827 592.431 13.728C593.252 14.2133 593.961 14.7173 594.559 15.24C595.044 14.568 595.697 13.9333 596.519 13.336C597.153 12.9627 597.527 12.7573 597.639 12.72H599.039V22.24H596.799C596.239 20.6347 595.548 19.1973 594.727 17.928C592.86 15.016 590.639 13.56 588.063 13.56C587.055 13.56 586.196 13.9333 585.487 14.68C584.777 15.4267 584.423 16.36 584.423 17.48C584.423 18.8987 585.02 20.0933 586.215 21.064C587.409 21.9973 589.22 23.08 591.647 24.312C593.625 25.32 595.193 26.216 596.351 27C597.545 27.7467 598.553 28.68 599.375 29.8C600.233 30.92 600.663 32.2267 600.663 33.72C600.663 39.1333 596.369 41.84 587.783 41.84ZM635.12 41.84C632.656 41.84 630.51 41.392 628.68 40.496C626.888 39.6 625.507 38.368 624.536 36.8C623.566 35.232 623.08 33.4587 623.08 31.48V14.4H619.16V13H623.08V10.2C623.08 6.84 624.76 5.16 628.12 5.16H632.04V13H639.88V14.4H632.04V31.48C632.04 34.9147 632.395 37.2667 633.104 38.536C633.814 39.8053 634.859 40.44 636.24 40.44C637.584 40.44 638.76 39.7867 639.768 38.48C640.776 37.1733 641.28 35.4 641.28 33.16H642.68C642.68 35.9227 641.99 38.0693 640.608 39.6C639.227 41.0933 637.398 41.84 635.12 41.84ZM645.771 40.16L649.131 39.32V14.68L645.771 13.84V13H653.051C656.411 13 658.091 14.68 658.091 18.04V39.32L661.451 40.16V41H645.771V40.16ZM653.051 9.64C651.931 9.64 650.998 9.26667 650.251 8.52C649.505 7.77333 649.131 6.84 649.131 5.72C649.131 4.6 649.505 3.66667 650.251 2.92C650.998 2.17333 651.931 1.8 653.051 1.8C654.171 1.8 655.105 2.17333 655.851 2.92C656.598 3.66667 656.971 4.6 656.971 5.72C656.971 6.84 656.598 7.77333 655.851 8.52C655.105 9.26667 654.171 9.64 653.051 9.64ZM664.803 40.16L668.163 39.32V14.68L664.803 13.84V13H669.843C672.045 13 673.781 13.7093 675.051 15.128C675.536 15.688 675.947 16.3787 676.283 17.2C676.843 16.1547 677.44 15.3147 678.075 14.68C679.755 13 681.677 12.16 683.843 12.16C686.008 12.16 687.912 12.6453 689.555 13.616C691.197 14.5493 692.467 15.8373 693.363 17.48C693.923 16.3973 694.52 15.52 695.155 14.848C696.872 13.056 698.795 12.16 700.923 12.16C702.901 12.16 704.675 12.5707 706.243 13.392C707.848 14.2133 709.08 15.3333 709.939 16.752C710.835 18.1707 711.283 19.72 711.283 21.4V39.32L714.643 40.16V41H707.363C704.003 41 702.323 39.32 702.323 35.96V21.4C702.323 18.9733 701.949 17.1627 701.203 15.968C700.456 14.736 699.616 14.12 698.683 14.12C697.6 14.12 696.499 14.8667 695.379 16.36C694.931 17.0693 694.538 17.816 694.202 18.6V39.32L697.562 40.16V41H681.883V40.16L685.243 39.32V21.4C685.243 18.9733 684.869 17.1627 684.123 15.968C683.376 14.736 682.536 14.12 681.603 14.12C680.52 14.12 679.419 14.8667 678.299 16.36C677.851 17.0693 677.459 17.816 677.123 18.6V39.32L680.483 40.16V41H664.803V40.16ZM733.133 41.84C728.355 41.84 724.64 40.5333 721.989 37.92C719.339 35.2693 718.013 31.6293 718.013 27C718.013 23.976 718.592 21.344 719.749 19.104C720.907 16.864 722.512 15.1467 724.565 13.952C726.656 12.7573 729.045 12.16 731.733 12.16C734.421 12.16 736.773 12.664 738.789 13.672C740.843 14.68 742.411 16.0427 743.493 17.76C744.613 19.44 745.173 21.3067 745.173 23.36C745.173 24.2933 745.08 25.096 744.893 25.768L744.613 26.72C743.008 27.056 741.272 27.336 739.405 27.56C735.485 28.12 731.528 28.4 727.533 28.4C727.533 32.7307 728.131 35.8293 729.325 37.696C730.52 39.5253 732.163 40.44 734.253 40.44C735.709 40.44 737.053 40.104 738.285 39.432C739.555 38.7227 740.544 37.808 741.253 36.688C742 35.5307 742.373 34.3547 742.373 33.16H743.773C743.773 34.6533 743.325 36.072 742.429 37.416C741.533 38.76 740.283 39.8427 738.677 40.664C737.072 41.448 735.224 41.84 733.133 41.84ZM727.533 27C729.923 27 731.864 26.9067 733.357 26.72C733.992 26.6827 734.664 26.5893 735.373 26.44C735.411 26.2533 735.504 25.8427 735.653 25.208C735.84 24.2747 735.933 23.2853 735.933 22.24C735.933 19.1413 735.523 16.8827 734.701 15.464C733.88 14.008 732.891 13.28 731.733 13.28C728.933 13.28 727.533 17.8533 727.533 27ZM779.605 41.84C777.141 41.84 774.994 41.392 773.165 40.496C771.373 39.6 769.991 38.368 769.021 36.8C768.05 35.232 767.565 33.4587 767.565 31.48V14.4H763.645V13H767.565V10.2C767.565 6.84 769.245 5.16 772.605 5.16H776.525V13H784.365V14.4H776.525V31.48C776.525 34.9147 776.879 37.2667 777.589 38.536C778.298 39.8053 779.343 40.44 780.725 40.44C782.069 40.44 783.245 39.7867 784.253 38.48C785.261 37.1733 785.765 35.4 785.765 33.16H787.165C787.165 35.9227 786.474 38.0693 785.093 39.6C783.711 41.0933 781.882 41.84 779.605 41.84ZM805.096 41.84C800.466 41.84 796.826 40.5333 794.176 37.92C791.562 35.2693 790.256 31.6293 790.256 27C790.256 22.3707 791.562 18.7493 794.176 16.136C796.826 13.4853 800.466 12.16 805.096 12.16C809.725 12.16 813.346 13.4853 815.96 16.136C818.61 18.7493 819.936 22.3707 819.936 27C819.936 31.6293 818.61 35.2693 815.96 37.92C813.346 40.5333 809.725 41.84 805.096 41.84ZM805.096 40.72C806.589 40.72 807.84 39.6747 808.848 37.584C809.893 35.4933 810.416 31.9653 810.416 27C810.416 22.0347 809.893 18.5067 808.848 16.416C807.84 14.3253 806.589 13.28 805.096 13.28C803.602 13.28 802.333 14.3253 801.288 16.416C800.28 18.5067 799.776 22.0347 799.776 27C799.776 31.9653 800.28 35.4933 801.288 37.584C802.333 39.6747 803.602 40.72 805.096 40.72ZM840.131 40.16L843.491 39.32V14.68L840.131 13.84V13H845.171C847.373 13 849.109 13.7093 850.379 15.128C850.864 15.688 851.275 16.3787 851.611 17.2C852.171 16.1547 852.768 15.3147 853.403 14.68C855.083 13 857.005 12.16 859.171 12.16C861.336 12.16 863.24 12.6453 864.883 13.616C866.525 14.5493 867.795 15.8373 868.691 17.48C869.251 16.3973 869.848 15.52 870.483 14.848C872.2 13.056 874.123 12.16 876.251 12.16C878.229 12.16 880.003 12.5707 881.571 13.392C883.176 14.2133 884.408 15.3333 885.267 16.752C886.163 18.1707 886.611 19.72 886.611 21.4V39.32L889.971 40.16V41H882.691C879.331 41 877.651 39.32 877.651 35.96V21.4C877.651 18.9733 877.277 17.1627 876.531 15.968C875.784 14.736 874.944 14.12 874.011 14.12C872.928 14.12 871.827 14.8667 870.707 16.36C870.259 17.0693 869.867 17.816 869.531 18.6V39.32L872.891 40.16V41H857.211V40.16L860.571 39.32V21.4C860.571 18.9733 860.197 17.1627 859.451 15.968C858.704 14.736 857.864 14.12 856.931 14.12C855.848 14.12 854.747 14.8667 853.627 16.36C853.179 17.0693 852.787 17.816 852.451 18.6V39.32L855.811 40.16V41H840.131V40.16ZM908.182 41.84C903.552 41.84 899.912 40.5333 897.262 37.92C894.648 35.2693 893.342 31.6293 893.342 27C893.342 22.3707 894.648 18.7493 897.262 16.136C899.912 13.4853 903.552 12.16 908.182 12.16C912.811 12.16 916.432 13.4853 919.046 16.136C921.696 18.7493 923.022 22.3707 923.022 27C923.022 31.6293 921.696 35.2693 919.046 37.92C916.432 40.5333 912.811 41.84 908.182 41.84ZM908.182 40.72C909.675 40.72 910.926 39.6747 911.934 37.584C912.979 35.4933 913.502 31.9653 913.502 27C913.502 22.0347 912.979 18.5067 911.934 16.416C910.926 14.3253 909.675 13.28 908.182 13.28C906.688 13.28 905.419 14.3253 904.374 16.416C903.366 18.5067 902.862 22.0347 902.862 27C902.862 31.9653 903.366 35.4933 904.374 37.584C905.419 39.6747 906.688 40.72 908.182 40.72ZM940.681 41.84C938.367 41.84 936.295 41.336 934.465 40.328C933.569 39.8427 932.841 39.32 932.281 38.76C931.684 39.5813 931.031 40.216 930.321 40.664C929.985 40.888 929.612 41.0933 929.201 41.28H927.801V31.76H930.041C930.527 33.328 931.236 34.784 932.169 36.128C934.148 39.0027 936.612 40.44 939.561 40.44C941.129 40.44 942.305 40.0667 943.089 39.32C943.911 38.536 944.321 37.416 944.321 35.96C944.321 34.728 943.761 33.7013 942.641 32.88C941.559 32.0213 939.841 30.976 937.489 29.744C935.473 28.736 933.831 27.84 932.561 27.056C931.329 26.2347 930.265 25.2267 929.369 24.032C928.511 22.8 928.081 21.3627 928.081 19.72C928.081 17.48 929.033 15.6693 930.937 14.288C932.879 12.8693 935.847 12.16 939.841 12.16C941.82 12.16 943.649 12.6827 945.329 13.728C946.151 14.2133 946.86 14.7173 947.457 15.24C947.943 14.568 948.596 13.9333 949.417 13.336C950.052 12.9627 950.425 12.7573 950.537 12.72H951.937V22.24H949.697C949.137 20.6347 948.447 19.1973 947.625 17.928C945.759 15.016 943.537 13.56 940.961 13.56C939.953 13.56 939.095 13.9333 938.385 14.68C937.676 15.4267 937.321 16.36 937.321 17.48C937.321 18.8987 937.919 20.0933 939.113 21.064C940.308 21.9973 942.119 23.08 944.545 24.312C946.524 25.32 948.092 26.216 949.249 27C950.444 27.7467 951.452 28.68 952.273 29.8C953.132 30.92 953.561 32.2267 953.561 33.72C953.561 39.1333 949.268 41.84 940.681 41.84ZM957.763 40.16L961.123 39.32V3.48L957.763 2.64V1.8H965.043C968.403 1.8 970.083 3.48 970.083 6.84V15.8C970.643 15.0533 971.222 14.456 971.819 14.008C973.425 12.776 975.273 12.16 977.363 12.16C979.454 12.16 981.321 12.608 982.963 13.504C984.643 14.3627 985.95 15.5013 986.883 16.92C987.817 18.3387 988.283 19.832 988.283 21.4V39.32L991.643 40.16V41H984.363C981.003 41 979.323 39.32 979.323 35.96V21.4C979.323 19.048 978.894 17.256 978.035 16.024C977.214 14.7547 976.243 14.12 975.123 14.12C973.705 14.12 972.435 14.8667 971.315 16.36C970.83 16.9947 970.419 17.7413 970.083 18.6V39.32L973.443 40.16V41H957.763V40.16ZM996.126 7.4C996.126 5.45867 996.63 3.90933 997.638 2.752C998.683 1.55733 999.952 0.959998 1001.45 0.959998C1002.94 0.959998 1004.19 1.55733 1005.2 2.752C1006.24 3.90933 1006.77 5.45867 1006.77 7.4L1002.29 28.96H1000.61L996.126 7.4ZM1001.45 41.56C1000.33 41.56 999.336 41.1307 998.478 40.272C997.656 39.376 997.246 38.312 997.246 37.08C997.246 35.848 997.656 34.8027 998.478 33.944C999.336 33.048 1000.33 32.6 1001.45 32.6C1002.57 32.6 1003.54 33.048 1004.36 33.944C1005.22 34.8027 1005.65 35.848 1005.65 37.08C1005.65 38.312 1005.22 39.376 1004.36 40.272C1003.54 41.1307 1002.57 41.56 1001.45 41.56ZM1028.6 41V40.16L1031.96 39.32V3.48L1028.6 2.64V1.8H1044.56V2.64L1041.2 3.48V39.32L1044.56 40.16V41H1028.6ZM1064.14 41.84C1061.68 41.84 1059.53 41.392 1057.7 40.496C1055.91 39.6 1054.53 38.368 1053.56 36.8C1052.59 35.232 1052.1 33.4587 1052.1 31.48V14.4H1048.18V13H1052.1V10.2C1052.1 6.84 1053.78 5.16 1057.14 5.16H1061.06V13H1068.9V14.4H1061.06V31.48C1061.06 34.9147 1061.42 37.2667 1062.13 38.536C1062.84 39.8053 1063.88 40.44 1065.26 40.44C1066.61 40.44 1067.78 39.7867 1068.79 38.48C1069.8 37.1733 1070.3 35.4 1070.3 33.16H1071.7C1071.7 35.9227 1071.01 38.0693 1069.63 39.6C1068.25 41.0933 1066.42 41.84 1064.14 41.84ZM1076.47 14.96C1077.26 14.6987 1078.04 14.2693 1078.83 13.672C1080.43 12.4773 1081.42 10.8533 1081.79 8.8L1081.07 9.248C1080.58 9.50933 1079.98 9.64 1079.27 9.64C1078.15 9.64 1077.17 9.22933 1076.31 8.408C1075.49 7.54933 1075.07 6.56 1075.07 5.44C1075.07 4.32 1075.49 3.34933 1076.31 2.528C1077.17 1.66933 1078.15 1.24 1079.27 1.24C1080.58 1.24 1081.65 1.70666 1082.47 2.64C1083.33 3.536 1083.75 4.74933 1083.75 6.28C1083.75 9.71467 1082.63 12.4027 1080.39 14.344C1079.42 15.24 1078.3 15.912 1077.03 16.36L1076.47 14.96ZM1101.68 41.84C1099.37 41.84 1097.29 41.336 1095.47 40.328C1094.57 39.8427 1093.84 39.32 1093.28 38.76C1092.68 39.5813 1092.03 40.216 1091.32 40.664C1090.99 40.888 1090.61 41.0933 1090.2 41.28H1088.8V31.76H1091.04C1091.53 33.328 1092.24 34.784 1093.17 36.128C1095.15 39.0027 1097.61 40.44 1100.56 40.44C1102.13 40.44 1103.31 40.0667 1104.09 39.32C1104.91 38.536 1105.32 37.416 1105.32 35.96C1105.32 34.728 1104.76 33.7013 1103.64 32.88C1102.56 32.0213 1100.84 30.976 1098.49 29.744C1096.47 28.736 1094.83 27.84 1093.56 27.056C1092.33 26.2347 1091.27 25.2267 1090.37 24.032C1089.51 22.8 1089.08 21.3627 1089.08 19.72C1089.08 17.48 1090.03 15.6693 1091.94 14.288C1093.88 12.8693 1096.85 12.16 1100.84 12.16C1102.82 12.16 1104.65 12.6827 1106.33 13.728C1107.15 14.2133 1107.86 14.7173 1108.46 15.24C1108.94 14.568 1109.6 13.9333 1110.42 13.336C1111.05 12.9627 1111.43 12.7573 1111.54 12.72H1112.94V22.24H1110.7C1110.14 20.6347 1109.45 19.1973 1108.63 17.928C1106.76 15.016 1104.54 13.56 1101.96 13.56C1100.95 13.56 1100.09 13.9333 1099.39 14.68C1098.68 15.4267 1098.32 16.36 1098.32 17.48C1098.32 18.8987 1098.92 20.0933 1100.11 21.064C1101.31 21.9973 1103.12 23.08 1105.55 24.312C1107.52 25.32 1109.09 26.216 1110.25 27C1111.44 27.7467 1112.45 28.68 1113.27 29.8C1114.13 30.92 1114.56 32.2267 1114.56 33.72C1114.56 39.1333 1110.27 41.84 1101.68 41.84ZM1149.02 41.84C1146.55 41.84 1144.41 41.392 1142.58 40.496C1140.79 39.6 1139.41 38.368 1138.43 36.8C1137.46 35.232 1136.98 33.4587 1136.98 31.48V14.4H1133.06V13H1136.98V10.2C1136.98 6.84 1138.66 5.16 1142.02 5.16H1145.94V13H1153.78V14.4H1145.94V31.48C1145.94 34.9147 1146.29 37.2667 1147 38.536C1147.71 39.8053 1148.76 40.44 1150.14 40.44C1151.48 40.44 1152.66 39.7867 1153.67 38.48C1154.67 37.1733 1155.18 35.4 1155.18 33.16H1156.58C1156.58 35.9227 1155.89 38.0693 1154.51 39.6C1153.13 41.0933 1151.3 41.84 1149.02 41.84ZM1159.67 40.16L1163.03 39.32V14.68L1159.67 13.84V13H1166.95C1170.31 13 1171.99 14.68 1171.99 18.04V39.32L1175.35 40.16V41H1159.67V40.16ZM1166.95 9.64C1165.83 9.64 1164.9 9.26667 1164.15 8.52C1163.4 7.77333 1163.03 6.84 1163.03 5.72C1163.03 4.6 1163.4 3.66667 1164.15 2.92C1164.9 2.17333 1165.83 1.8 1166.95 1.8C1168.07 1.8 1169 2.17333 1169.75 2.92C1170.5 3.66667 1170.87 4.6 1170.87 5.72C1170.87 6.84 1170.5 7.77333 1169.75 8.52C1169 9.26667 1168.07 9.64 1166.95 9.64ZM1178.7 40.16L1182.06 39.32V14.68L1178.7 13.84V13H1183.74C1185.94 13 1187.68 13.7093 1188.95 15.128C1189.43 15.688 1189.84 16.3787 1190.18 17.2C1190.74 16.1547 1191.34 15.3147 1191.97 14.68C1193.65 13 1195.58 12.16 1197.74 12.16C1199.91 12.16 1201.81 12.6453 1203.45 13.616C1205.1 14.5493 1206.36 15.8373 1207.26 17.48C1207.82 16.3973 1208.42 15.52 1209.05 14.848C1210.77 13.056 1212.69 12.16 1214.82 12.16C1216.8 12.16 1218.57 12.5707 1220.14 13.392C1221.75 14.2133 1222.98 15.3333 1223.84 16.752C1224.73 18.1707 1225.18 19.72 1225.18 21.4V39.32L1228.54 40.16V41H1221.26C1217.9 41 1216.22 39.32 1216.22 35.96V21.4C1216.22 18.9733 1215.85 17.1627 1215.1 15.968C1214.35 14.736 1213.51 14.12 1212.58 14.12C1211.5 14.12 1210.4 14.8667 1209.28 16.36C1208.83 17.0693 1208.44 17.816 1208.1 18.6V39.32L1211.46 40.16V41H1195.78V40.16L1199.14 39.32V21.4C1199.14 18.9733 1198.77 17.1627 1198.02 15.968C1197.27 14.736 1196.43 14.12 1195.5 14.12C1194.42 14.12 1193.32 14.8667 1192.2 16.36C1191.75 17.0693 1191.36 17.816 1191.02 18.6V39.32L1194.38 40.16V41H1178.7V40.16ZM1247.03 41.84C1242.25 41.84 1238.54 40.5333 1235.89 37.92C1233.24 35.2693 1231.91 31.6293 1231.91 27C1231.91 23.976 1232.49 21.344 1233.65 19.104C1234.81 16.864 1236.41 15.1467 1238.46 13.952C1240.55 12.7573 1242.94 12.16 1245.63 12.16C1248.32 12.16 1250.67 12.664 1252.69 13.672C1254.74 14.68 1256.31 16.0427 1257.39 17.76C1258.51 19.44 1259.07 21.3067 1259.07 23.36C1259.07 24.2933 1258.98 25.096 1258.79 25.768L1258.51 26.72C1256.91 27.056 1255.17 27.336 1253.3 27.56C1249.38 28.12 1245.43 28.4 1241.43 28.4C1241.43 32.7307 1242.03 35.8293 1243.22 37.696C1244.42 39.5253 1246.06 40.44 1248.15 40.44C1249.61 40.44 1250.95 40.104 1252.18 39.432C1253.45 38.7227 1254.44 37.808 1255.15 36.688C1255.9 35.5307 1256.27 34.3547 1256.27 33.16H1257.67C1257.67 34.6533 1257.22 36.072 1256.33 37.416C1255.43 38.76 1254.18 39.8427 1252.58 40.664C1250.97 41.448 1249.12 41.84 1247.03 41.84ZM1241.43 27C1243.82 27 1245.76 26.9067 1247.26 26.72C1247.89 26.6827 1248.56 26.5893 1249.27 26.44C1249.31 26.2533 1249.4 25.8427 1249.55 25.208C1249.74 24.2747 1249.83 23.2853 1249.83 22.24C1249.83 19.1413 1249.42 16.8827 1248.6 15.464C1247.78 14.008 1246.79 13.28 1245.63 13.28C1242.83 13.28 1241.43 17.8533 1241.43 27ZM1293.5 41.84C1291.04 41.84 1288.89 41.392 1287.06 40.496C1285.27 39.6 1283.89 38.368 1282.92 36.8C1281.95 35.232 1281.46 33.4587 1281.46 31.48V14.4H1277.54V13H1281.46V10.2C1281.46 6.84 1283.14 5.16 1286.5 5.16H1290.42V13H1298.26V14.4H1290.42V31.48C1290.42 34.9147 1290.78 37.2667 1291.49 38.536C1292.2 39.8053 1293.24 40.44 1294.62 40.44C1295.97 40.44 1297.14 39.7867 1298.15 38.48C1299.16 37.1733 1299.66 35.4 1299.66 33.16H1301.06C1301.06 35.9227 1300.37 38.0693 1298.99 39.6C1297.61 41.0933 1295.78 41.84 1293.5 41.84ZM1318.99 41.84C1314.36 41.84 1310.72 40.5333 1308.07 37.92C1305.46 35.2693 1304.15 31.6293 1304.15 27C1304.15 22.3707 1305.46 18.7493 1308.07 16.136C1310.72 13.4853 1314.36 12.16 1318.99 12.16C1323.62 12.16 1327.24 13.4853 1329.86 16.136C1332.51 18.7493 1333.83 22.3707 1333.83 27C1333.83 31.6293 1332.51 35.2693 1329.86 37.92C1327.24 40.5333 1323.62 41.84 1318.99 41.84ZM1318.99 40.72C1320.49 40.72 1321.74 39.6747 1322.75 37.584C1323.79 35.4933 1324.31 31.9653 1324.31 27C1324.31 22.0347 1323.79 18.5067 1322.75 16.416C1321.74 14.3253 1320.49 13.28 1318.99 13.28C1317.5 13.28 1316.23 14.3253 1315.19 16.416C1314.18 18.5067 1313.67 22.0347 1313.67 27C1313.67 31.9653 1314.18 35.4933 1315.19 37.584C1316.23 39.6747 1317.5 40.72 1318.99 40.72ZM1354.03 40.16L1357.39 39.32V14.68L1354.03 13.84V13H1359.07C1361.27 13 1363.01 13.7093 1364.28 15.128C1364.76 15.688 1365.17 16.3787 1365.51 17.2C1366.07 16.1547 1366.67 15.3147 1367.3 14.68C1368.98 13 1370.9 12.16 1373.07 12.16C1375.23 12.16 1377.14 12.6453 1378.78 13.616C1380.42 14.5493 1381.69 15.8373 1382.59 17.48C1383.15 16.3973 1383.75 15.52 1384.38 14.848C1386.1 13.056 1388.02 12.16 1390.15 12.16C1392.13 12.16 1393.9 12.5707 1395.47 13.392C1397.07 14.2133 1398.31 15.3333 1399.17 16.752C1400.06 18.1707 1400.51 19.72 1400.51 21.4V39.32L1403.87 40.16V41H1396.59C1393.23 41 1391.55 39.32 1391.55 35.96V21.4C1391.55 18.9733 1391.18 17.1627 1390.43 15.968C1389.68 14.736 1388.84 14.12 1387.91 14.12C1386.83 14.12 1385.73 14.8667 1384.61 16.36C1384.16 17.0693 1383.77 17.816 1383.43 18.6V39.32L1386.79 40.16V41H1371.11V40.16L1374.47 39.32V21.4C1374.47 18.9733 1374.1 17.1627 1373.35 15.968C1372.6 14.736 1371.76 14.12 1370.83 14.12C1369.75 14.12 1368.65 14.8667 1367.53 16.36C1367.08 17.0693 1366.69 17.816 1366.35 18.6V39.32L1369.71 40.16V41H1354.03V40.16ZM1422.08 41.84C1417.45 41.84 1413.81 40.5333 1411.16 37.92C1408.55 35.2693 1407.24 31.6293 1407.24 27C1407.24 22.3707 1408.55 18.7493 1411.16 16.136C1413.81 13.4853 1417.45 12.16 1422.08 12.16C1426.71 12.16 1430.33 13.4853 1432.94 16.136C1435.59 18.7493 1436.92 22.3707 1436.92 27C1436.92 31.6293 1435.59 35.2693 1432.94 37.92C1430.33 40.5333 1426.71 41.84 1422.08 41.84ZM1422.08 40.72C1423.57 40.72 1424.82 39.6747 1425.83 37.584C1426.88 35.4933 1427.4 31.9653 1427.4 27C1427.4 22.0347 1426.88 18.5067 1425.83 16.416C1424.82 14.3253 1423.57 13.28 1422.08 13.28C1420.59 13.28 1419.32 14.3253 1418.27 16.416C1417.26 18.5067 1416.76 22.0347 1416.76 27C1416.76 31.9653 1417.26 35.4933 1418.27 37.584C1419.32 39.6747 1420.59 40.72 1422.08 40.72ZM1454.58 41.84C1452.27 41.84 1450.19 41.336 1448.36 40.328C1447.47 39.8427 1446.74 39.32 1446.18 38.76C1445.58 39.5813 1444.93 40.216 1444.22 40.664C1443.88 40.888 1443.51 41.0933 1443.1 41.28H1441.7V31.76H1443.94C1444.43 33.328 1445.13 34.784 1446.07 36.128C1448.05 39.0027 1450.51 40.44 1453.46 40.44C1455.03 40.44 1456.2 40.0667 1456.99 39.32C1457.81 38.536 1458.22 37.416 1458.22 35.96C1458.22 34.728 1457.66 33.7013 1456.54 32.88C1455.46 32.0213 1453.74 30.976 1451.39 29.744C1449.37 28.736 1447.73 27.84 1446.46 27.056C1445.23 26.2347 1444.16 25.2267 1443.27 24.032C1442.41 22.8 1441.98 21.3627 1441.98 19.72C1441.98 17.48 1442.93 15.6693 1444.84 14.288C1446.78 12.8693 1449.75 12.16 1453.74 12.16C1455.72 12.16 1457.55 12.6827 1459.23 13.728C1460.05 14.2133 1460.76 14.7173 1461.36 15.24C1461.84 14.568 1462.49 13.9333 1463.32 13.336C1463.95 12.9627 1464.32 12.7573 1464.44 12.72H1465.84V22.24H1463.6C1463.04 20.6347 1462.35 19.1973 1461.52 17.928C1459.66 15.016 1457.44 13.56 1454.86 13.56C1453.85 13.56 1452.99 13.9333 1452.28 14.68C1451.57 15.4267 1451.22 16.36 1451.22 17.48C1451.22 18.8987 1451.82 20.0933 1453.01 21.064C1454.21 21.9973 1456.02 23.08 1458.44 24.312C1460.42 25.32 1461.99 26.216 1463.15 27C1464.34 27.7467 1465.35 28.68 1466.17 29.8C1467.03 30.92 1467.46 32.2267 1467.46 33.72C1467.46 39.1333 1463.17 41.84 1454.58 41.84ZM1471.66 40.16L1475.02 39.32V3.48L1471.66 2.64V1.8H1478.94C1482.3 1.8 1483.98 3.48 1483.98 6.84V15.8C1484.54 15.0533 1485.12 14.456 1485.72 14.008C1487.32 12.776 1489.17 12.16 1491.26 12.16C1493.35 12.16 1495.22 12.608 1496.86 13.504C1498.54 14.3627 1499.85 15.5013 1500.78 16.92C1501.72 18.3387 1502.18 19.832 1502.18 21.4V39.32L1505.54 40.16V41H1498.26C1494.9 41 1493.22 39.32 1493.22 35.96V21.4C1493.22 19.048 1492.79 17.256 1491.93 16.024C1491.11 14.7547 1490.14 14.12 1489.02 14.12C1487.6 14.12 1486.33 14.8667 1485.21 16.36C1484.73 16.9947 1484.32 17.7413 1483.98 18.6V39.32L1487.34 40.16V41H1471.66V40.16ZM1510.02 7.4C1510.02 5.45867 1510.53 3.90933 1511.54 2.752C1512.58 1.55733 1513.85 0.959998 1515.34 0.959998C1516.84 0.959998 1518.09 1.55733 1519.1 2.752C1520.14 3.90933 1520.66 5.45867 1520.66 7.4L1516.18 28.96H1514.5L1510.02 7.4ZM1515.34 41.56C1514.22 41.56 1513.23 41.1307 1512.38 40.272C1511.55 39.376 1511.14 38.312 1511.14 37.08C1511.14 35.848 1511.55 34.8027 1512.38 33.944C1513.23 33.048 1514.22 32.6 1515.34 32.6C1516.46 32.6 1517.43 33.048 1518.26 33.944C1519.11 34.8027 1519.54 35.848 1519.54 37.08C1519.54 38.312 1519.11 39.376 1518.26 40.272C1517.43 41.1307 1516.46 41.56 1515.34 41.56Z" fill="#FBFAFA"/>
</svg>
