<?xml version="1.0" encoding="UTF-8"?>
<svg id="_레이어_1" data-name="레이어 1" xmlns="http://www.w3.org/2000/svg" version="1.1" viewBox="0 0 96 96">
  <defs>
    <style>
      .cls-1 {
        fill: #404040;
        stroke-width: 0px;
      }
    </style>
  </defs>
  <path class="cls-1" d="M58.7,55.9h0c.3,0,.5.3.5.9h0v.3c0,0,0,.2,0,.2,0,0,0,.1,0,.2,0,0,0,0,0,.1s0,0-.1.1c0,0-.1,0-.2,0s-.1,0-.2,0c-.1,0-.2,0-.3.1h0c-2.4.6-4.5,1.8-6.2,3.7-1.7,1.8-2.9,4-3.4,6.5h0c0,0,0,.2,0,.3,0,.1,0,.2,0,.3,0,0,0,.2,0,.2h0c0,.5-.4.6-.8.4h0c-.2,0-.3-.3-.3-.7h0c-.4-2.6-1.5-4.9-3.3-6.8-1.8-1.9-3.9-3.2-6.4-3.9h0c0,0-.2,0-.3-.1-.1,0-.2,0-.2,0s0,0-.2,0c0,0-.1,0-.1-.1s0,0,0-.1,0-.1,0-.2c0,0,0-.1,0-.2v-.3h0c0-.6.2-1,.5-1h0c.2,0,.4,0,.7.1h0c3.7,1,6.6,3.1,8.7,6.2h0l.3.5v-17.6c0-11.7,0-17.7.1-17.8h0c.2-.4.5-.5.9-.5h0c.4,0,.7.3.9.7h0v35.2l.3-.5c1.5-2.2,3.5-4,6-5.2h0c1.5-.7,2.7-1.1,3.4-1.1Z"/>
</svg>