<?xml version="1.0" encoding="UTF-8"?>
<svg id="_레이어_1" data-name="레이어 1" xmlns="http://www.w3.org/2000/svg" version="1.1" viewBox="0 0 100 100">
  <defs>
    <style>
      .cls-1 {
        fill: none;
      }

      .cls-1, .cls-2, .cls-3 {
        stroke-width: 0px;
      }

      .cls-2 {
        fill: #2f2f2f;
      }

      .cls-3 {
        fill: #000;
      }
    </style>
  </defs>
  <g>
    <g>
      <g>
        <path class="cls-3" d="M10.67,55.93l-.21-.69-7.44.33-.14.7h-.17s-.27-6.21-.27-6.21l2.09-.09v.35c-.09.15-.24.29-.41.4-.41.27-.86.41-1.34.43l.11,2.5,3.66-.16-.06-1.34c-.3-.04-.58-.13-.84-.27-.12-.06-.23-.13-.35-.21v-.35s2.6-.11,2.6-.11v.35c-.09.09-.2.17-.31.24-.25.16-.52.27-.81.34l.06,1.34,3.6-.16-.12-2.73c-.49.02-.95-.08-1.38-.31-.18-.1-.34-.22-.46-.36l-.02-.35,2.09-.09.28,6.45h-.17Z"/>
        <path class="cls-3" d="M10.43,48.42l-.07-.72-5.06-.76-.28.66-.17-.03.16-1.04c.07-.45.27-.79.6-1,.13-.08.28-.14.46-.19-.18-.14-.34-.29-.46-.46-.29-.4-.4-.85-.32-1.37.06-.43.21-.8.44-1.12.23-.31.51-.55.83-.69.32-.15.64-.2.96-.15l3.68.55.28-.66.17.03-.23,1.5c-.1.69-.5.98-1.19.88l-2.99-.45c-.48-.07-.87-.04-1.15.09-.28.13-.44.32-.48.55-.04.29.07.58.34.85.12.12.26.23.42.32l4.26.64.28-.66.17.03-.48,3.22-.17-.03Z"/>
        <path class="cls-3" d="M5.81,37.86c-.19.1-.4.12-.62.05-.22-.07-.38-.2-.49-.39-.1-.19-.12-.4-.05-.62.07-.22.2-.38.39-.49.19-.1.4-.12.62-.05.22.07.38.2.49.39.1.19.12.4.05.62-.07.22-.2.38-.39.49ZM13.72,42.61c-.27.2-.56.25-.9.15-.25-.08-.43-.22-.54-.41s-.12-.42-.04-.68c.02-.06.04-.12.07-.17.03-.06.05-.09.05-.12l.07-.14,1.56.48.05-.06c.04-.07.06-.12.07-.15.07-.23-.01-.46-.24-.69-.23-.23-.68-.45-1.35-.65l-5.56-1.71-.37.62-.17-.05.45-1.45c.21-.67.64-.9,1.31-.69l4.89,1.51c.39.12.72.33.97.61.25.29.41.65.47,1.07.06.43.02.89-.14,1.39-.17.56-.39.93-.66,1.14Z"/>
        <path class="cls-3" d="M12.92,35.81c-.73.26-1.53.19-2.4-.22-.87-.41-1.44-.98-1.7-1.71-.26-.73-.19-1.53.22-2.4.41-.87.98-1.44,1.71-1.7.73-.26,1.53-.19,2.4.22.87.41,1.44.98,1.7,1.71s.19,1.53-.22,2.4c-.41.87-.98,1.44-1.71,1.7ZM14.16,33.02c-.3-.38-.92-.79-1.85-1.23-.93-.44-1.64-.66-2.13-.65-.48,0-.79.15-.92.43-.13.28-.05.61.25.99.3.38.92.79,1.85,1.23.93.44,1.64.66,2.13.65.48,0,.79-.15.92-.43.13-.28.05-.61-.26-.99Z"/>
        <path class="cls-3" d="M18.43,31.23c-.26.05-.53-.02-.8-.2-.24-.17-.38-.37-.42-.59-.04-.22.01-.44.16-.66.04-.05.08-.1.12-.14s.07-.08.09-.1l.11-.11,1.28.9c.1-.21.11-.44.04-.7-.07-.26-.26-.62-.56-1.09l-.34-.52-6.31-.74-.48.37-.14-.1.84-1.19c.23-.33.48-.54.76-.64.27-.1.59-.12.96-.07l3.03.36-1.88-2.81-.79.51-.14-.1,1.24-1.76.14.1-.25.96,3.56,5.35c.38.57.6,1.05.67,1.44.07.39,0,.73-.2,1.03-.2.28-.43.45-.7.5Z"/>
        <path class="cls-3" d="M24.46,23.75c-.27-.02-.51-.15-.72-.4-.19-.22-.28-.45-.26-.68s.12-.43.33-.6c.05-.04.1-.08.15-.11.05-.03.09-.05.11-.07l.13-.08,1.02,1.2c.15-.17.22-.4.21-.67,0-.27-.09-.67-.26-1.19l-.2-.59-5.92-2.3-.56.24-.11-.13,1.11-.94c.31-.26.61-.4.89-.43.29-.03.6.03.94.17l2.85,1.11-1.11-3.19-.89.3-.11-.13,1.64-1.39.11.13-.48.87,2.11,6.07c.22.65.32,1.17.29,1.56-.03.4-.18.71-.45.94-.27.23-.53.33-.8.31Z"/>
        <path class="cls-3" d="M27.96,17.26c-.75-.19-1.37-.7-1.86-1.53-.49-.83-.64-1.61-.45-2.36.19-.75.7-1.37,1.53-1.86.83-.49,1.61-.64,2.36-.45.75.19,1.37.7,1.86,1.53.49.83.64,1.62.45,2.36-.19.75-.7,1.37-1.53,1.86s-1.61.64-2.36.45ZM30.55,15.65c-.04-.48-.32-1.17-.85-2.05s-.99-1.46-1.4-1.73c-.4-.26-.74-.32-1.01-.16-.27.16-.38.48-.34.96.04.48.32,1.17.85,2.05.53.89.99,1.46,1.4,1.73.4.26.74.32,1.01.16.27-.16.38-.48.34-.96Z"/>
        <path class="cls-3" d="M35.31,13.98c-.39-.05-.72-.18-1.01-.39-.28-.21-.48-.47-.59-.77l-1.28-3.5-.72.07-.06-.16,1.42-.52c.66-.24,1.1-.03,1.34.62l1.04,2.84c.17.46.38.78.63.97.25.18.49.24.71.16.27-.1.46-.33.57-.7.04-.14.07-.31.09-.53l-1.47-4.04-.72.08-.06-.16,3.06-1.12.06.16-.6.4,1.89,5.19-.11.04c-.53.19-.99.2-1.37,0-.17-.09-.31-.2-.42-.34-.03.22-.1.43-.18.62-.21.45-.56.76-1.05.94-.41.15-.81.2-1.19.14Z"/>
        <path class="cls-3" d="M41.06,11.98l.66-.3-.91-5.04-.72-.05-.03-.17,1.03-.19c.45-.08.83,0,1.14.24.12.1.23.22.33.38.08-.19.2-.37.34-.53.33-.37.73-.6,1.2-.69.4-.07.73-.03.96.12.24.15.38.4.45.75.05.26,0,.48-.12.67-.13.19-.32.3-.58.35-.11.02-.22.03-.33.03h-.14s-.29-1.61-.29-1.61c-.39.07-.72.29-.98.65-.13.18-.22.36-.28.52l.76,4.24.72.05.03.17-3.2.58-.03-.17Z"/>
        <path class="cls-3" d="M51.74,10.85c-.34-.26-.59-.63-.77-1.11-.17-.48-.24-1.04-.19-1.7.07-.99.36-1.73.86-2.23.5-.49,1.14-.71,1.92-.65.37.03.69.13.96.31.11.06.23.15.34.26l.17-2.26-.68-.23v-.17s1.52.11,1.52.11c.7.05,1.02.43.97,1.12l-.51,6.73.68.23v.17s-1.06-.08-1.06-.08c-.46-.03-.81-.2-1.05-.51-.1-.12-.17-.28-.22-.46-.11.19-.26.35-.42.49-.37.32-.82.46-1.34.42-.46-.03-.85-.18-1.19-.45ZM54.23,10.52c.09-.11.19-.26.3-.44l.3-4c-.08-.09-.16-.18-.25-.25-.2-.17-.39-.26-.59-.28-.33-.02-.6.15-.82.52-.21.37-.36,1.08-.43,2.13-.08,1-.04,1.7.09,2.1.14.4.33.61.58.63.29.02.56-.11.81-.41Z"/>
        <path class="cls-3" d="M58.57,11.5c-.29-.38-.37-.79-.25-1.23.08-.29.22-.56.42-.82.09-.12.19-.23.3-.32.33,0,.68.03,1.06.06.85.08,1.58.18,2.21.32l.09-.34c.22-.83.27-1.43.15-1.8-.12-.37-.39-.61-.81-.72-.16-.04-.3-.06-.42-.05h-.17s-.44,1.7-.44,1.7h-.15c-.12-.02-.23-.04-.31-.06-.26-.07-.44-.2-.55-.39-.11-.19-.14-.42-.07-.67.09-.35.34-.59.75-.74.41-.15.96-.13,1.65.05.59.15,1.06.39,1.43.71.37.32.62.69.74,1.11s.13.87,0,1.34l-.8,3.04.63.35-.04.17-1.01-.27c-.45-.12-.76-.35-.94-.69-.08-.14-.12-.3-.13-.49-.15.16-.32.3-.5.41-.43.25-.89.31-1.39.18-.67-.18-1.14-.45-1.43-.83ZM61.42,11.81c.11-.09.24-.22.38-.38l.43-1.63c-.35-.09-.68-.16-1.01-.2-.24-.03-.4-.05-.49-.07-.06.07-.13.18-.2.31-.15.26-.26.54-.33.81-.11.42-.13.75-.05.98.07.24.21.38.4.43.28.07.57-.01.87-.25Z"/>
        <path class="cls-3" d="M64.85,13.45l.71.11,1.99-4.72-.58-.43.07-.16,1.39.59c.64.27.83.73.56,1.37l-1.72,4.07.57.43-.07.16-3-1.27.07-.16ZM68.26,7.75c-.08-.2-.08-.41.01-.63.09-.21.24-.36.44-.45.2-.08.41-.08.63.01.21.09.36.24.45.44.08.2.08.41-.01.63-.09.21-.24.36-.44.45-.2.08-.41.08-.63-.01-.21-.09-.36-.24-.44-.44Z"/>
        <path class="cls-3" d="M68.71,15.14l.7.18,3.6-6.52-.53-.49.09-.15,1.32.73c.61.34.75.81.41,1.42l-3.26,5.91.53.49-.09.15-2.85-1.57.08-.15Z"/>
        <path class="cls-3" d="M71.32,19.36c-.05-.27.03-.53.22-.79.18-.24.38-.37.6-.41s.44.02.65.18c.05.04.1.08.14.12.04.05.07.08.09.09l.11.11-.94,1.26c.2.1.44.12.7.05.26-.07.63-.24,1.1-.53l.53-.33.9-6.29-.36-.49.1-.14,1.17.87c.32.24.53.5.62.77.09.27.11.59.05.96l-.44,3.03,2.86-1.8-.49-.8.1-.14,1.73,1.28-.1.14-.96-.28-5.44,3.42c-.58.36-1.06.57-1.46.63-.39.06-.73-.02-1.02-.23-.28-.21-.44-.45-.49-.71Z"/>
        <path class="cls-3" d="M80.21,23.81l.59.42,5.66-4.84-.32-.64.13-.11.98,1.15c.45.53.42,1.02-.11,1.48l-5.13,4.39.32.64-.13.11-2.12-2.47.13-.11Z"/>
        <path class="cls-3" d="M82.9,27.05l.54.48,4.22-2.9-.25-.67.14-.1.86,1.25c.4.57.31,1.06-.27,1.46l-3.64,2.51.25.67-.14.1-1.85-2.68.14-.1ZM88.84,24.09c.04-.22.16-.39.35-.52s.39-.18.61-.14c.22.04.39.16.52.35.13.19.18.4.14.61-.04.22-.16.39-.35.52s-.39.18-.61.14-.39-.16-.52-.35-.18-.4-.14-.61Z"/>
        <path class="cls-3" d="M85.23,30.49l.48.54,4.37-2.31-.38-.72.26-.14.38.72.51-.27c.36-.19.74-.28,1.12-.25s.74.15,1.08.39c.34.24.62.58.85,1.02.19.36.3.69.33,1.01.03.31,0,.58-.12.8-.11.22-.26.38-.45.49-.23.12-.46.15-.67.08-.22-.07-.38-.22-.51-.45-.05-.1-.09-.2-.13-.3l-.03-.14,1.6-.84-.03-.1s-.02-.07-.03-.1c-.01-.04-.03-.08-.05-.13-.12-.23-.34-.35-.65-.34-.31,0-.78.18-1.43.52l-.51.27.87,1.65-.26.14-.87-1.65-4.37,2.31.17.7-.15.08-1.52-2.88.15-.08Z"/>
        <path class="cls-3" d="M88.26,35.52c.33-.7.95-1.21,1.85-1.54.59-.21,1.15-.28,1.67-.21.52.07.97.27,1.34.59.38.32.66.75.85,1.27.19.53.25,1.02.2,1.49-.06.47-.21.87-.47,1.2-.26.33-.59.57-.99.72-.18.06-.35.1-.49.11h-.21c-.18-.28-.35-.6-.53-.95-.38-.73-.71-1.48-.99-2.27-.85.3-1.41.63-1.69,1-.28.36-.35.75-.2,1.16.1.29.26.53.48.72.22.2.47.33.74.39.27.06.53.05.76-.03l.1.27c-.29.1-.6.12-.93.03-.33-.08-.62-.25-.89-.51-.27-.26-.48-.59-.62-1-.33-.94-.34-1.75,0-2.46ZM91.24,36.97c.05.12.12.25.2.37.04,0,.13-.02.26-.03.2-.03.4-.08.6-.15.61-.22,1.02-.45,1.25-.72.22-.26.3-.5.22-.73-.2-.55-1.19-.5-2.98.13.17.47.32.84.46,1.12Z"/>
        <path class="cls-3" d="M95.82,44.27l.14-.59h.17s.07,1.33.07,1.33c.02.41-.05.74-.21.99-.16.25-.39.46-.7.63l-2.61,1.42,1.73.58,1.58-.86.14-.59h.17s.07,1.33.07,1.33c.02.41-.05.74-.21.99-.16.25-.39.46-.7.63l-2.61,1.42,3.2,1.06.3-.89h.17s.11,2.14.11,2.14h-.17s-.4-.9-.4-.9l-5.51-1.87-.02-.35,3.49-1.9-3.65-1.23-.02-.35,5.44-2.96Z"/>
        <path class="cls-3" d="M90.7,54.49l.09.71,5.08.63.26-.67.17.02-.18,1.5c-.09.69-.47,1-1.17.91l-4.39-.54-.26.67-.17-.02.4-3.23.17.02ZM97.11,56.22c.17-.13.38-.19.61-.16.23.03.41.13.55.3.13.17.19.37.16.61s-.13.41-.3.55c-.17.13-.37.19-.61.16-.23-.03-.41-.13-.55-.3-.14-.17-.19-.37-.16-.61.03-.23.13-.41.3-.55Z"/>
        <path class="cls-3" d="M89.68,60.27c.27-.32.59-.54.95-.66.37-.12.75-.13,1.15-.03l3.44.86.2-.79.28.07-.2.79.56.14c.68.17.93.59.76,1.27l-.2.79-1.58-.39-.39,1.58-.28-.07.39-1.58-3.44-.86c-.69-.17-1.19-.22-1.48-.14-.29.08-.47.26-.54.54-.07.27,0,.54.22.81.21.27.55.46,1,.57l-.07.28c-.56-.14-.95-.38-1.19-.74-.24-.36-.3-.76-.18-1.22.12-.5.32-.91.59-1.22Z"/>
        <path class="cls-3" d="M88.87,63.9l-.12.71,6.83,2.97.44-.57.16.07-.6,1.39c-.28.64-.74.82-1.38.54l-1.71-.74c.1.17.16.33.2.48.1.41.07.81-.11,1.21s-.41.72-.72.96c-.3.24-.63.4-.98.46-.35.06-.67.03-.97-.1l-3.42-1.48-.44.57-.16-.07.6-1.39c.28-.64.74-.82,1.38-.54l2.78,1.21c.45.2.83.26,1.13.21.31-.06.51-.19.6-.4.12-.27.08-.57-.11-.91-.08-.14-.19-.29-.33-.42l-3.95-1.72-.44.57-.16-.07,1.3-2.99.16.07Z"/>
        <path class="cls-3" d="M83.9,74.13l-.34.64,3.81,3.42.6-.4.13.12-.7.78c-.31.34-.66.51-1.05.51-.15,0-.32-.03-.49-.1.08.23.13.44.14.63.03.49-.11.91-.41,1.24-.3.33-.64.56-1.01.68-.37.12-.75.14-1.13.05.09.24.14.45.16.64.04.51-.09.94-.38,1.26-.27.31-.59.52-.93.66-.35.13-.69.17-1.03.11-.34-.06-.64-.21-.9-.44l-2.77-2.49-.6.4-.13-.12,1.01-1.13c.47-.52.96-.55,1.48-.08l2.25,2.02c.37.34.71.53,1,.59.29.05.5,0,.63-.14.15-.17.19-.44.11-.82-.05-.17-.11-.33-.18-.49l-3.2-2.88-.6.4-.13-.12,2.18-2.42.13.12-.34.64,2.77,2.49c.37.34.71.53,1,.59.29.05.5,0,.63-.14.15-.17.19-.44.11-.82-.05-.17-.11-.33-.18-.49l-3.2-2.88-.6.4-.13-.12,2.18-2.42.13.12Z"/>
        <path class="cls-3" d="M75.83,83.03c.76.13,1.42.59,1.97,1.38.55.79.76,1.56.63,2.32-.13.76-.59,1.42-1.38,1.97-.79.55-1.56.76-2.32.63-.76-.13-1.42-.59-1.97-1.38-.55-.79-.76-1.56-.63-2.32.13-.76.59-1.42,1.38-1.97.79-.55,1.56-.76,2.32-.63ZM73.37,84.83c.08.48.41,1.14,1,1.98.59.84,1.1,1.38,1.53,1.62s.76.26,1.02.08.34-.51.27-.98c-.08-.48-.41-1.14-1-1.98s-1.1-1.38-1.52-1.62c-.42-.23-.76-.26-1.02-.08-.25.18-.34.51-.27.98Z"/>
        <path class="cls-3" d="M68.92,86.81c.21.01.4.05.55.1.04-.21.11-.38.2-.53.04-.07.1-.14.15-.22l.26-.12.85,1.79-.42.2c-.23-.25-.49-.46-.79-.63-.63-.36-1.22-.42-1.77-.15-.29.14-.48.32-.57.53-.08.22-.06.46.07.73.11.23.3.38.59.44.28.06.7.1,1.25.12.47.01.85.04,1.16.08.31.04.6.13.87.28.27.15.48.38.63.69.2.42.18.85-.06,1.28s-.73.83-1.48,1.18c-.37.18-.76.24-1.17.19-.2-.02-.38-.05-.53-.1-.03.17-.1.35-.2.53-.09.13-.14.2-.16.22l-.26.12-.84-1.79.42-.2c.25.25.5.46.77.63.61.38,1.16.46,1.64.23.19-.09.32-.24.38-.44.07-.2.05-.41-.05-.62-.12-.27-.34-.44-.65-.51-.31-.07-.75-.12-1.31-.13-.46-.01-.84-.04-1.12-.08-.29-.04-.56-.13-.82-.26-.26-.14-.45-.34-.58-.62-.48-1.02.09-1.91,1.7-2.67.43-.21.87-.29,1.3-.27Z"/>
        <path class="cls-3" d="M64.41,88.95l-.63.35,1.93,7.19h.72s.05.16.05.16l-1.46.39c-.67.18-1.1-.07-1.28-.74l-.48-1.8c-.07.18-.16.33-.25.45-.26.33-.59.56-1.01.67-.42.11-.82.13-1.2.04-.38-.09-.7-.25-.97-.48s-.44-.51-.52-.82l-.97-3.6h-.72s-.05-.16-.05-.16l1.46-.39c.67-.18,1.1.07,1.28.74l.78,2.92c.13.47.31.81.54,1.02.24.21.47.28.69.22.28-.08.5-.29.64-.65.06-.15.11-.33.13-.52l-1.12-4.16h-.72s-.05-.16-.05-.16l3.15-.84.05.17Z"/>
        <path class="cls-3" d="M56.38,90.78c.19.15.3.35.33.58.03.23-.04.44-.19.64-.15.19-.35.3-.58.33-.23.03-.44-.04-.64-.19-.19-.15-.3-.35-.33-.58-.03-.23.04-.44.19-.64.15-.19.34-.3.58-.33.23-.03.44.04.64.19Z"/>
      </g>
      <g>
        <path class="cls-2" d="M69.37,54.58c-.15-.02-.31-.02-.46-.01-.45.01-.9.01-1.35,0-.06,0-.13,0-.18-.03-.12-.07,0,.24.06.14.52-.91.94-1.89,1.25-2.89.22-.72.35-1.43-.04-2.12-.35-.62-1-1-1.68-1.13-.73-.14-1.42.03-2.3.3.37-.97.69-1.78,1-2.58.21-.55.11-1.03-.36-1.4-.49-.39-1.02-.37-1.55-.1-.58.3-.89.83-1.13,1.42-.95,2.28-1.9,4.55-2.85,6.83-.4.96-.81,1.92-1.16,2.89-.2.54-.22,1.12.32,1.5.57.39,1.17.32,1.74-.04.45-.29.71-.75.92-1.23.45-1.08.89-2.16,1.35-3.23.24-.57.52-1.13,1.06-1.49.4-.27.87-.37,1.28-.09.41.29-.13,1.29-.27,1.61-.36.79-.62,1.6-.87,2.43-.2.64-.16,1.86.75,1.92.05,0,.1,0,.16.01,1.31.07,2.61,0,3.92,0,.19,0,.39-.01.55-.1.15-.09.25-.24.33-.39.13-.26.21-.55.23-.85.02-.21-.01-.71-.14-.89-.13-.18-.37-.42-.58-.45v-.02Z"/>
        <path class="cls-2" d="M76.24,44.52c-.85-.21-1.62.02-1.93.88-.79,2.16-1.29,4.41-1.75,6.66-.12.59.12,1.1.71,1.34.62.25,1.07-.07,1.43-.53.2-.25.36-.54.48-.84.66-1.65,1.31-3.31,1.95-4.98.12-.3.17-.62.21-.76.05-1-.3-1.58-1.1-1.78h0Z"/>
        <path class="cls-2" d="M73.61,54.26c-.36-.22-.79-.36-1.11-.65-.17-.16-.3-.35-.4-.55-.03-.06-.09-.21-.17-.22-.08,0-.16.13-.2.18-.52.71-.9,1.66-.86,2.55,0,.07.01.15.02.22,0,.05.02.09.03.13.21.87,1.08,1.45,1.95,1.44.23,0,.46-.05.68-.13.9-.37,1.28-1.59.71-2.4-.17-.24-.39-.44-.64-.59h0Z"/>
        <path class="cls-2" d="M53.26,50.77c.06-.04.14-.06.22-.08,1.2-.29,2.37.03,3.5.41.31.1.63.25.96.25.54,0,.93-.37,1.13-.84.3-.71.01-1.25-.63-1.63-1.71-1.02-5.54-.74-7.07.53-.71.59-1.17,1.35-1.01,2.3.17.98.98,1.32,1.82,1.54.68.18,1.43.27,2.13.36.29.03,1.08.12,1.06.52-.02.4-.85.28-1.13.27-.54-.01-1.08,0-1.61,0-1.04-.02-2.08,0-3.12,0-1.24,0-.19.09.11-1.14.61-2.53-.73-4.82-3.06-5.08-1.04-.12-2.09.07-3.03.54-1.98.98-2.95,2.99-2.87,5.19,0,.21.04.49-.3.49h-1.13c-.28,0,.22-.64.3-.86.29-.76.65-1.49.89-2.27.49-1.63-.49-3-2.2-3.14-.98-.08-1.86.17-2.65.76-.3.23-.54.35-.93.03-1.31-1.06-2.49-1.09-3.97-.21-.3.18-.33.27-.67,0-.96-.74-1.93-.51-2.47.6-.41.85-.76,1.73-1.09,2.61-.24.64-.4,1.36-.81,1.92-.44.59-1.47.7-1.63,1.5-.24,1.12,1.02,1.73,1.92,1.82.98.1,1.61-.36,2.05-1.23.67-1.31.98-2.77,1.72-4.05.21-.35.45-.7.8-.9.86-.51,1.47.09,1.19.96-.1.31-.23.6-.35.91-.31.77-1.9,3.36-.71,4.05.62.36,1.17.45,1.73.1.52-.32.79-.85,1.01-1.4.59-1.42,1.01-3.14,2.09-4.27.75-.79,2.12-.68,1.58.65-.32.78-.66,1.55-.96,2.34-.74,1.92-.09,2.85,1.97,2.86,2.86.01,4.95,0,7.81,0s6.11.14,8.77,0c1.85-.1,3.26-.94,3.78-2.39.49-1.37.09-2.26-1.27-2.79-.24-.09-.49-.17-.75-.24-.89-.22-1.81-.31-2.72-.47-.17-.03-.59-.1-.55-.35.01-.07.06-.14.13-.18h0ZM44.8,54.46c-.97,0-1.26-.36-1.25-1.27.01-1.16,1.02-2.34,2.02-2.37.77-.02,1.32.54,1.32,1.35,0,1.28-.95,2.29-2.09,2.29Z"/>
      </g>
    </g>
    <rect class="cls-1" x=".01" y="-.01" width="100" height="100"/>
  </g>
  <g>
    <g>
      <path class="cls-3" d="M591.74,507.53l-.28-.95-10.23.45-.2.97h-.24s-.37-8.54-.37-8.54l2.88-.13.02.48c-.15.21-.35.39-.58.55-.56.37-1.18.56-1.85.59l.15,3.44,5.04-.22-.08-1.84c-.41-.06-.79-.18-1.15-.37-.16-.08-.32-.17-.48-.28l-.02-.48,3.6-.16.02.48c-.14.12-.29.23-.45.33-.34.22-.71.37-1.12.46l.08,1.84,4.96-.22-.16-3.76c-.67.03-1.3-.11-1.89-.43-.25-.14-.46-.3-.63-.5l-.02-.48,2.88-.13.39,8.87h-.24Z"/>
      <path class="cls-3" d="M591.42,497.2l-.09-.99-6.96-1.05-.38.91-.24-.04.22-1.42c.09-.62.37-1.08.82-1.38.18-.11.39-.2.64-.26-.25-.19-.46-.4-.63-.63-.4-.55-.55-1.17-.44-1.88.09-.59.29-1.1.61-1.53.32-.43.7-.75,1.14-.95.44-.2.88-.27,1.33-.21l5.06.76.38-.91.24.04-.31,2.06c-.14.95-.69,1.35-1.64,1.21l-4.11-.62c-.66-.1-1.19-.06-1.58.13-.39.18-.61.43-.66.75-.06.4.1.79.47,1.17.16.16.35.31.58.44l5.85.88.38-.91.24.04-.67,4.43-.24-.04Z"/>
      <path class="cls-3" d="M585.06,482.68c-.27.14-.55.16-.86.07-.31-.09-.53-.27-.67-.54-.14-.27-.16-.55-.07-.86.09-.31.27-.53.54-.67.27-.14.55-.16.86-.07.31.09.53.28.67.54.14.27.16.55.07.86-.09.31-.27.53-.54.67ZM595.94,489.21c-.37.28-.78.35-1.24.21-.35-.11-.59-.3-.74-.57s-.16-.58-.06-.93c.03-.08.06-.16.1-.24.04-.08.06-.13.07-.16l.09-.19,2.14.66.07-.08c.05-.1.08-.16.1-.2.1-.32-.01-.63-.34-.95-.32-.32-.94-.62-1.86-.9l-7.65-2.36-.51.85-.23-.07.61-1.99c.28-.92.88-1.23,1.8-.95l6.73,2.07c.54.17.98.45,1.33.85.35.4.56.89.65,1.47.09.59.02,1.22-.19,1.92-.24.76-.54,1.29-.9,1.56Z"/>
      <path class="cls-3" d="M594.84,479.86c-1,.36-2.1.26-3.3-.31-1.2-.56-1.97-1.35-2.33-2.35-.36-1-.26-2.1.31-3.3.56-1.2,1.35-1.97,2.35-2.33,1-.36,2.1-.26,3.3.31,1.2.56,1.98,1.35,2.33,2.35s.26,2.1-.31,3.3c-.56,1.2-1.35,1.97-2.35,2.33ZM596.54,476.03c-.41-.52-1.26-1.08-2.55-1.69-1.28-.6-2.26-.9-2.92-.89-.67.01-1.09.21-1.27.6-.18.39-.06.84.35,1.36.42.52,1.26,1.08,2.55,1.69,1.28.6,2.26.9,2.92.89.67-.01,1.09-.21,1.27-.6.18-.38.06-.84-.35-1.36Z"/>
      <path class="cls-3" d="M602.42,473.57c-.36.07-.73-.02-1.09-.28-.33-.23-.53-.5-.58-.81-.06-.31.02-.61.23-.91.05-.07.1-.13.17-.2s.1-.1.12-.13l.14-.15,1.77,1.24c.14-.28.15-.6.05-.96-.1-.36-.36-.86-.77-1.5l-.47-.72-8.67-1.02-.66.52-.2-.14,1.15-1.64c.32-.45.67-.75,1.04-.88.38-.13.81-.17,1.31-.1l4.17.49-2.58-3.87-1.08.71-.2-.14,1.7-2.42.2.14-.34,1.32,4.9,7.36c.52.78.83,1.44.93,1.98.1.54,0,1.01-.28,1.41-.28.39-.6.62-.96.69Z"/>
      <path class="cls-3" d="M610.71,463.28c-.37-.02-.7-.2-.99-.55-.26-.31-.38-.62-.36-.93s.17-.59.45-.82c.06-.05.13-.1.21-.15.08-.04.12-.08.15-.1l.18-.11,1.4,1.65c.2-.24.3-.55.29-.92,0-.37-.13-.92-.36-1.64l-.27-.82-8.14-3.16-.77.33-.15-.18,1.52-1.29c.42-.36.83-.56,1.23-.59.4-.04.83.04,1.3.23l3.92,1.52-1.53-4.39-1.22.41-.15-.18,2.26-1.92.16.18-.67,1.19,2.9,8.35c.31.89.44,1.6.4,2.15-.04.54-.25.98-.62,1.29-.37.31-.73.46-1.1.43Z"/>
      <path class="cls-3" d="M615.53,454.36c-1.03-.26-1.88-.96-2.56-2.1-.68-1.14-.88-2.22-.62-3.25.26-1.03.96-1.88,2.1-2.56,1.14-.68,2.22-.88,3.25-.62,1.03.26,1.88.96,2.56,2.1.68,1.14.88,2.22.62,3.25-.26,1.03-.96,1.88-2.1,2.56s-2.22.88-3.25.62ZM619.08,452.14c-.05-.66-.44-1.6-1.17-2.82s-1.37-2.01-1.92-2.38c-.56-.36-1.02-.44-1.39-.22-.37.22-.52.66-.47,1.32.05.66.44,1.61,1.17,2.82.72,1.22,1.37,2.01,1.92,2.38.56.36,1.02.44,1.39.22.37-.22.52-.66.47-1.32Z"/>
      <path class="cls-3" d="M625.62,449.83c-.53-.07-.99-.25-1.38-.54-.39-.29-.66-.65-.81-1.07l-1.75-4.81-.98.1-.08-.23,1.95-.71c.9-.33,1.52-.04,1.85.86l1.42,3.91c.23.63.52,1.08.87,1.33.35.25.67.33.97.22.37-.14.63-.46.79-.97.05-.19.1-.43.13-.73l-2.03-5.56-.98.1-.08-.23,4.21-1.53.08.23-.82.55,2.6,7.14-.15.05c-.73.27-1.36.27-1.89,0-.24-.12-.43-.27-.58-.47-.05.3-.13.59-.25.86-.29.62-.77,1.04-1.44,1.29-.56.2-1.11.27-1.64.2Z"/>
      <path class="cls-3" d="M633.53,447.09l.9-.41-1.25-6.93-.99-.07-.04-.24,1.42-.26c.62-.11,1.14,0,1.57.33.17.13.32.31.45.52.11-.26.27-.5.47-.74.45-.51,1-.83,1.65-.95.56-.1,1-.05,1.32.16.32.21.53.55.62,1.03.06.36,0,.66-.17.92-.18.25-.44.41-.8.48-.15.03-.3.04-.45.05h-.2s-.4-2.22-.4-2.22c-.54.1-.99.39-1.35.89-.17.25-.3.49-.39.72l1.05,5.83.99.07.04.24-4.41.8-.04-.24Z"/>
      <path class="cls-3" d="M648.22,445.53c-.46-.36-.82-.87-1.06-1.52-.24-.65-.32-1.43-.26-2.34.1-1.36.5-2.38,1.18-3.06.69-.68,1.57-.98,2.64-.9.51.04.95.18,1.31.42.16.09.31.21.47.36l.23-3.11-.94-.31.02-.24,2.08.16c.96.07,1.4.59,1.33,1.54l-.7,9.25.94.31-.02.24-1.44-.11c-.64-.05-1.12-.28-1.44-.7-.14-.17-.24-.38-.31-.63-.16.26-.35.48-.58.68-.51.44-1.13.64-1.84.58-.63-.05-1.17-.25-1.64-.61ZM651.65,445.08c.13-.15.27-.35.41-.61l.41-5.5c-.11-.13-.22-.24-.34-.35-.27-.23-.54-.36-.8-.38-.46-.03-.83.21-1.12.72-.29.51-.49,1.49-.6,2.92-.1,1.37-.06,2.33.13,2.89.19.55.45.84.79.87.39.03.77-.16,1.12-.56Z"/>
      <path class="cls-3" d="M657.61,446.43c-.39-.52-.51-1.09-.35-1.7.11-.4.3-.78.58-1.12.12-.17.26-.31.41-.44.45,0,.93.04,1.45.08,1.16.11,2.18.25,3.04.44l.12-.46c.3-1.15.37-1.97.2-2.48-.16-.51-.54-.84-1.11-.99-.22-.06-.41-.08-.58-.07l-.24.02-.61,2.32h-.21c-.17-.03-.31-.06-.43-.09-.35-.09-.61-.27-.76-.54-.16-.27-.19-.58-.1-.93.12-.47.47-.81,1.04-1.02.57-.2,1.32-.18,2.27.07.8.21,1.46.53,1.97.97.51.44.85.95,1.02,1.53s.17,1.2,0,1.85l-1.1,4.18.87.48-.06.23-1.39-.37c-.62-.16-1.05-.48-1.29-.95-.1-.19-.17-.42-.19-.68-.21.22-.44.41-.69.56-.59.34-1.22.42-1.92.24-.92-.24-1.57-.62-1.96-1.15ZM661.54,446.85c.15-.13.33-.3.52-.53l.59-2.24c-.47-.12-.94-.22-1.38-.28-.33-.04-.55-.07-.67-.09-.08.1-.17.24-.28.42-.21.36-.36.74-.46,1.12-.15.58-.18,1.03-.07,1.35.1.32.29.52.56.59.38.1.78-.01,1.2-.35Z"/>
      <path class="cls-3" d="M666.25,449.11l.98.15,2.74-6.49-.79-.59.09-.22,1.92.81c.88.37,1.14,1,.77,1.89l-2.36,5.6.79.59-.09.22-4.13-1.74.09-.22ZM670.94,441.28c-.11-.28-.11-.57.02-.86.12-.29.33-.5.61-.61.28-.11.57-.11.86.02.29.12.5.33.61.61.11.28.11.57-.02.86-.12.29-.33.5-.61.61-.28.11-.57.11-.86-.02-.29-.12-.5-.33-.61-.61Z"/>
      <path class="cls-3" d="M671.56,451.44l.96.25,4.95-8.96-.72-.67.12-.21,1.82,1.01c.84.46,1.03,1.12.56,1.96l-4.48,8.12.72.67-.12.21-3.92-2.16.12-.21Z"/>
      <path class="cls-3" d="M675.15,457.24c-.06-.37.04-.73.31-1.09.24-.33.52-.51.83-.56s.61.03.9.25c.07.05.13.11.19.17.06.06.1.1.13.12l.15.15-1.29,1.73c.28.14.6.17.96.08.36-.09.87-.33,1.52-.73l.73-.45,1.24-8.65-.5-.67.14-.19,1.61,1.19c.44.33.73.69.85,1.06.12.38.15.82.07,1.32l-.6,4.16,3.94-2.48-.68-1.1.14-.19,2.38,1.77-.14.19-1.31-.38-7.48,4.7c-.79.5-1.46.79-2,.87-.54.08-1.01-.02-1.4-.31-.39-.29-.61-.61-.67-.98Z"/>
      <path class="cls-3" d="M687.38,463.36l.81.57,7.78-6.66-.44-.88.18-.16,1.35,1.58c.62.73.57,1.41-.16,2.03l-7.05,6.04.44.88-.18.16-2.91-3.4.18-.16Z"/>
      <path class="cls-3" d="M691.08,467.82l.74.65,5.8-3.99-.35-.93.2-.14,1.18,1.71c.54.79.42,1.46-.37,2l-5.01,3.45.35.93-.2.14-2.54-3.69.2-.14ZM699.25,463.75c.05-.3.21-.54.48-.72s.54-.25.84-.19c.3.05.54.21.72.48.18.26.25.54.19.84-.06.3-.21.54-.48.72s-.54.25-.84.19-.54-.21-.72-.48-.25-.54-.19-.84Z"/>
      <path class="cls-3" d="M694.28,472.55l.66.74,6.01-3.17-.52-.99.35-.19.52.99.71-.37c.5-.26,1.01-.38,1.54-.35s1.02.21,1.48.54c.46.33.85.79,1.17,1.4.26.49.41.95.45,1.38.04.43-.01.8-.16,1.11-.14.31-.35.53-.62.67-.32.17-.63.21-.92.12-.3-.09-.53-.3-.7-.62-.07-.13-.13-.27-.18-.41l-.05-.19,2.19-1.16-.04-.14s-.02-.09-.04-.14c-.02-.05-.04-.11-.08-.18-.17-.32-.47-.48-.89-.47-.42,0-1.08.25-1.97.71l-.71.37,1.19,2.26-.35.19-1.19-2.26-6.02,3.17.24.96-.21.11-2.09-3.96.21-.11Z"/>
      <path class="cls-3" d="M698.45,479.46c.46-.97,1.3-1.67,2.55-2.12.81-.29,1.58-.39,2.29-.29.71.1,1.33.37,1.85.81.52.44.91,1.03,1.17,1.75.26.72.35,1.41.27,2.05-.08.64-.29,1.2-.64,1.66-.35.46-.8.79-1.36.98-.25.09-.48.14-.68.16l-.28.02c-.24-.4-.49-.84-.73-1.32-.53-1-.98-2.04-1.36-3.12-1.17.42-1.94.87-2.32,1.37-.38.5-.47,1.03-.27,1.59.14.39.36.72.67.99.31.27.65.45,1.02.54.38.09.72.07,1.05-.04l.13.38c-.4.14-.83.16-1.28.05-.45-.11-.86-.35-1.23-.7-.37-.36-.66-.81-.86-1.38-.46-1.29-.46-2.41,0-3.38ZM702.55,481.45c.07.17.16.34.27.52.05,0,.17-.02.36-.04.27-.04.54-.11.83-.21.83-.3,1.41-.62,1.71-.98.31-.36.41-.69.3-1-.27-.75-1.64-.69-4.1.19.23.64.44,1.16.63,1.54Z"/>
      <path class="cls-3" d="M708.85,491.49l.2-.81h.24s.09,1.83.09,1.83c.03.56-.07,1.02-.28,1.36-.22.34-.54.63-.96.87l-3.58,1.95,2.38.79,2.17-1.18.2-.81h.24s.09,1.83.09,1.83c.03.56-.07,1.02-.28,1.36-.22.34-.54.63-.96.87l-3.59,1.95,4.4,1.46.42-1.22h.24s.15,2.94.15,2.94h-.24s-.54-1.24-.54-1.24l-7.58-2.58-.02-.48,4.8-2.62-5.02-1.7-.03-.48,7.48-4.07Z"/>
      <path class="cls-3" d="M701.81,505.55l.12.98,6.99.86.35-.92.24.03-.25,2.06c-.12.95-.65,1.37-1.61,1.25l-6.03-.74-.36.92-.24-.03.55-4.45.24.03ZM710.62,507.93c.24-.19.52-.26.83-.22.32.04.57.18.75.42.19.24.26.52.22.83s-.18.57-.42.75c-.24.19-.52.26-.83.22-.32-.04-.57-.18-.75-.42-.19-.24-.26-.52-.22-.83.04-.32.18-.57.41-.76Z"/>
      <path class="cls-3" d="M700.41,513.5c.37-.44.81-.74,1.31-.9.5-.16,1.03-.17,1.58-.04l4.74,1.18.27-1.09.39.1-.27,1.09.78.19c.93.23,1.28.81,1.05,1.75l-.27,1.09-2.17-.54-.54,2.17-.39-.1.54-2.17-4.73-1.18c-.95-.24-1.63-.3-2.03-.19-.4.11-.65.36-.74.74-.09.37,0,.74.3,1.11.29.37.75.63,1.37.79l-.1.39c-.77-.19-1.31-.53-1.63-1.02-.32-.49-.41-1.05-.25-1.68.17-.68.44-1.25.82-1.68Z"/>
      <path class="cls-3" d="M699.28,518.5l-.16.98,9.39,4.08.6-.78.22.1-.83,1.91c-.38.88-1.01,1.13-1.89.75l-2.35-1.02c.13.23.22.45.27.66.14.56.09,1.12-.15,1.66s-.57.99-.99,1.32c-.42.34-.87.55-1.35.63-.48.08-.92.04-1.33-.14l-4.7-2.04-.6.79-.22-.1.83-1.91c.38-.88,1.01-1.13,1.89-.75l3.82,1.66c.62.27,1.13.36,1.56.29.42-.08.7-.26.83-.56.16-.37.11-.79-.15-1.25-.11-.2-.26-.39-.45-.58l-5.43-2.36-.6.78-.22-.09,1.79-4.11.22.1Z"/>
      <path class="cls-3" d="M692.46,532.57l-.46.88,5.24,4.7.82-.55.18.16-.96,1.07c-.42.47-.9.7-1.45.7-.21,0-.44-.05-.68-.13.11.32.18.61.19.86.04.68-.15,1.25-.57,1.71-.41.46-.88.77-1.39.94-.51.17-1.03.19-1.55.07.12.33.2.62.22.88.05.71-.12,1.29-.53,1.74-.38.42-.81.72-1.28.9-.48.18-.95.23-1.42.14-.47-.08-.88-.29-1.24-.61l-3.81-3.42-.82.55-.18-.16,1.39-1.55c.64-.71,1.32-.75,2.03-.11l3.09,2.78c.52.46.97.73,1.38.8.4.07.69,0,.87-.19.21-.23.26-.61.16-1.13-.07-.23-.15-.46-.25-.68l-4.4-3.96-.82.55-.18-.16,2.99-3.33.18.16-.46.87,3.81,3.42c.52.46.97.73,1.37.8.4.07.69,0,.87-.19.21-.23.26-.61.15-1.13-.07-.23-.15-.46-.25-.68l-4.4-3.96-.82.55-.18-.16,2.99-3.33.18.16Z"/>
      <path class="cls-3" d="M681.36,544.8c1.05.18,1.95.82,2.71,1.9.76,1.08,1.05,2.15.87,3.2-.18,1.05-.82,1.95-1.9,2.71-1.08.76-2.15,1.05-3.2.87-1.05-.18-1.95-.82-2.71-1.9-.76-1.08-1.05-2.15-.87-3.2.18-1.05.82-1.95,1.9-2.71,1.08-.76,2.15-1.05,3.19-.86ZM677.98,547.28c.1.66.56,1.57,1.38,2.73.81,1.16,1.51,1.9,2.1,2.22s1.05.36,1.4.11.47-.7.37-1.35c-.1-.66-.56-1.57-1.38-2.73s-1.51-1.9-2.1-2.22c-.58-.32-1.05-.36-1.4-.11-.35.25-.47.7-.37,1.35Z"/>
      <path class="cls-3" d="M671.85,550c.29.02.54.06.76.14.05-.29.14-.53.27-.73.06-.1.13-.2.21-.3l.36-.17,1.16,2.46-.58.27c-.32-.35-.68-.64-1.08-.87-.86-.5-1.67-.57-2.44-.21-.41.19-.67.43-.78.73-.11.3-.08.63.1,1.01.15.32.42.52.81.6.39.08.96.14,1.72.17.64.01,1.18.05,1.6.1.42.05.82.19,1.19.39.37.21.66.52.86.95.27.58.25,1.17-.08,1.76s-1,1.14-2.04,1.63c-.51.24-1.05.33-1.61.26-.27-.03-.52-.07-.74-.13-.04.23-.13.48-.27.73-.12.17-.19.27-.21.3l-.36.17-1.16-2.46.58-.27c.34.35.69.63,1.06.86.84.53,1.59.63,2.25.32.26-.12.44-.32.53-.6.09-.28.07-.56-.07-.85-.17-.37-.47-.6-.9-.7-.43-.1-1.03-.16-1.8-.18-.63-.02-1.15-.06-1.54-.11-.4-.05-.77-.17-1.13-.36-.35-.19-.62-.47-.8-.86-.66-1.4.12-2.62,2.34-3.67.6-.28,1.2-.41,1.79-.37Z"/>
      <path class="cls-3" d="M665.64,552.94l-.87.48,2.66,9.89.99-.02.06.23-2.01.54c-.93.25-1.51-.09-1.76-1.02l-.66-2.47c-.1.25-.21.46-.35.62-.35.46-.82.77-1.39.92-.58.16-1.13.17-1.65.05-.52-.12-.96-.34-1.33-.66s-.6-.7-.72-1.13l-1.33-4.95-.99.02-.06-.23,2.01-.54c.93-.25,1.51.09,1.76,1.02l1.08,4.02c.17.65.42,1.11.75,1.4.32.28.64.38.95.3.39-.11.69-.41.88-.9.09-.21.14-.45.17-.71l-1.54-5.72-.99.02-.06-.23,4.33-1.16.06.23Z"/>
      <path class="cls-3" d="M654.61,555.46c.27.21.42.47.46.79.04.32-.05.61-.26.88-.21.27-.47.42-.79.45-.32.04-.61-.05-.88-.26-.27-.21-.42-.47-.46-.79-.04-.32.05-.61.26-.88.21-.27.47-.42.79-.45.32-.04.61.05.88.26Z"/>
    </g>
    <g>
      <path class="cls-2" d="M672.47,505.68c-.21-.03-.43-.02-.63-.02-.62.02-1.23.02-1.85,0-.09,0-.17,0-.25-.05-.16-.09,0,.32.08.2.72-1.26,1.3-2.6,1.72-3.97.3-.99.47-1.97-.06-2.92-.47-.85-1.37-1.38-2.31-1.56-1.01-.2-1.95.05-3.17.42.51-1.33.95-2.45,1.38-3.55.28-.75.15-1.42-.49-1.92-.67-.54-1.41-.51-2.14-.13-.79.42-1.23,1.15-1.56,1.95-1.31,3.13-2.62,6.26-3.92,9.39-.55,1.32-1.11,2.64-1.6,3.97-.27.74-.31,1.54.44,2.06.78.54,1.61.44,2.39-.06.63-.4.98-1.03,1.27-1.69.63-1.48,1.23-2.97,1.86-4.45.33-.78.72-1.55,1.46-2.05.55-.37,1.2-.51,1.76-.13.57.4-.18,1.78-.37,2.22-.49,1.08-.85,2.2-1.2,3.34-.28.89-.21,2.56,1.04,2.64.07,0,.14,0,.21.02,1.8.09,3.59,0,5.4,0,.26,0,.54-.02.76-.14.21-.12.34-.32.45-.53.18-.36.29-.76.32-1.16.02-.29-.02-.98-.19-1.22-.18-.25-.51-.58-.79-.62v-.02Z"/>
      <path class="cls-2" d="M681.92,491.84c-1.16-.28-2.22.03-2.66,1.21-1.08,2.98-1.77,6.06-2.41,9.16-.17.82.16,1.51.98,1.84.85.35,1.47-.1,1.96-.73.28-.34.5-.74.66-1.16.91-2.27,1.8-4.56,2.68-6.85.16-.41.24-.85.29-1.04.07-1.38-.41-2.18-1.51-2.45h0Z"/>
      <path class="cls-2" d="M678.3,505.24c-.5-.31-1.08-.49-1.53-.89-.23-.21-.41-.47-.55-.75-.04-.08-.12-.29-.24-.3-.11,0-.22.18-.28.25-.72.98-1.23,2.28-1.19,3.51,0,.1.02.21.03.31,0,.06.02.12.04.17.29,1.2,1.48,1.99,2.67,1.99.32,0,.63-.06.93-.18,1.24-.51,1.76-2.19.98-3.3-.23-.33-.54-.6-.88-.82v.02Z"/>
      <path class="cls-2" d="M650.32,500.43c.09-.06.2-.09.3-.11,1.65-.4,3.25.04,4.82.56.43.13.87.35,1.32.34.74,0,1.27-.51,1.55-1.16.42-.98.02-1.72-.87-2.25-2.36-1.4-7.62-1.02-9.73.73-.97.82-1.61,1.86-1.38,3.17.23,1.35,1.35,1.82,2.5,2.12.94.25,1.96.37,2.94.5.4.05,1.48.17,1.46.72-.02.55-1.17.39-1.56.37-.74-.02-1.48,0-2.21,0-1.43-.02-2.86,0-4.29,0-1.7,0-.26.13.15-1.57.84-3.47-1.01-6.62-4.2-6.98-1.42-.16-2.88.1-4.16.74-2.72,1.35-4.05,4.11-3.95,7.14,0,.29.06.68-.41.68h-1.56c-.38,0,.31-.88.42-1.18.4-1.04.89-2.05,1.22-3.12.67-2.25-.68-4.12-3.03-4.31-1.35-.11-2.56.23-3.65,1.04-.42.32-.74.47-1.27.05-1.8-1.46-3.43-1.5-5.46-.29-.42.25-.45.37-.93,0-1.32-1.02-2.66-.7-3.4.82-.57,1.16-1.04,2.37-1.5,3.59-.33.89-.55,1.87-1.12,2.64-.61.81-2.02.97-2.25,2.06-.32,1.54,1.41,2.37,2.64,2.51,1.35.14,2.22-.5,2.83-1.69.92-1.8,1.35-3.81,2.37-5.56.28-.48.62-.96,1.1-1.24,1.18-.7,2.02.12,1.64,1.32-.13.43-.32.83-.48,1.25-.43,1.05-2.62,4.62-.97,5.56.85.49,1.61.62,2.38.14.72-.44,1.08-1.17,1.39-1.92.82-1.95,1.39-4.31,2.87-5.87,1.03-1.08,2.91-.93,2.17.89-.44,1.08-.91,2.14-1.32,3.22-1.01,2.64-.12,3.93,2.71,3.93,3.93.02,6.81,0,10.75,0s8.4.19,12.06,0c2.54-.13,4.48-1.29,5.2-3.29.67-1.88.12-3.1-1.75-3.83-.33-.13-.68-.24-1.03-.32-1.23-.31-2.49-.43-3.74-.64-.24-.04-.82-.13-.76-.48.02-.1.09-.2.18-.25h0ZM638.68,505.51c-1.33,0-1.73-.5-1.73-1.75.02-1.6,1.4-3.22,2.78-3.26,1.06-.03,1.82.74,1.82,1.86,0,1.76-1.31,3.15-2.87,3.15Z"/>
    </g>
  </g>
</svg>